<?xml version="1.0" encoding="UTF-8"?>
<svg width="100px" height="100px" viewBox="0 0 100 100" version="1.1" xmlns="http://www.w3.org/2000/svg" xmlns:xlink="http://www.w3.org/1999/xlink">
    <!-- Generator: sketchtool 47.1 (45422) - http://www.bohemiancoding.com/sketch -->
    <title>img/tab-icons/icon-receive</title>
    <desc>Created with sketchtool.</desc>
    <defs></defs>
    <g id="Img-Assets" stroke="none" stroke-width="1" fill="none" fill-rule="evenodd">
        <g id="img/tab-icons/icon-receive" fill="#FFFFFF">
            <g id="icon-receive">
                <g>
                    <path d="M44.0909091,44.0909091 L0,44.0909091 L0,0 L44.0909091,0 L44.0909091,44.0909091 Z M5.45454545,38.6363636 L38.6363636,38.6363636 L38.6363636,5.45454545 L5.45454545,5.45454545 L5.45454545,38.6363636 Z" id="Shape" fill-rule="nonzero"></path>
                    <path d="M100,44.0909091 L55.9090909,44.0909091 L55.9090909,0 L100,0 L100,44.0909091 Z M61.3636364,38.6363636 L94.5454545,38.6363636 L94.5454545,5.45454545 L61.3636364,5.45454545 L61.3636364,38.6363636 Z" id="Shape" fill-rule="nonzero"></path>
                    <path d="M44.0909091,100 L0,100 L0,55.9090909 L44.0909091,55.9090909 L44.0909091,100 Z M5.45454545,94.5454545 L38.6363636,94.5454545 L38.6363636,61.3636364 L5.45454545,61.3636364 L5.45454545,94.5454545 Z" id="Shape" fill-rule="nonzero"></path>
                    <polygon id="Shape" fill-rule="nonzero" points="100 80 94.5454545 80 94.5454545 61.3636364 82.7272727 61.3636364 82.7272727 74.0909091 60 74.0909091 60 58.6363636 65.4545455 58.6363636 65.4545455 68.6363636 77.2727273 68.6363636 77.2727273 55.9090909 100 55.9090909"></polygon>
                    <polygon id="Shape" fill-rule="nonzero" points="97.2727273 100 60 100 60 88.6363636 65.4545455 88.6363636 65.4545455 94.5454545 97.2727273 94.5454545"></polygon>
                    <rect id="Rectangle-path" fill-rule="nonzero" x="17.2727273" y="17.2727273" width="10" height="10"></rect>
                    <rect id="Rectangle-path" fill-rule="nonzero" x="72.7272727" y="17.2727273" width="10" height="10"></rect>
                    <rect id="Rectangle-path" fill-rule="nonzero" x="17.2727273" y="72.7272727" width="10" height="10"></rect>
                </g>
            </g>
        </g>
        <g id="Text" transform="translate(-403.000000, -367.000000)"></g>
    </g>
</svg>