<?xml version="1.0" encoding="UTF-8"?>
<svg width="141px" height="80px" viewBox="0 0 141 80" version="1.1" xmlns="http://www.w3.org/2000/svg" xmlns:xlink="http://www.w3.org/1999/xlink">
    <!-- Generator: sketchtool 47.1 (45422) - http://www.bohemiancoding.com/sketch -->
    <title>img/currency-icons/icon-white-bch</title>
    <desc>Created with sketchtool.</desc>
    <defs></defs>
    <g id="Img-Assets" stroke="none" stroke-width="1" fill="none" fill-rule="evenodd">
        <g id="img/currency-icons/icon-white-bch" fill="#FFFFFF">
            <g id="icon-white-bch">
                <g id="icon-bch" transform="translate(0.000000, -13.000000)">
                    <g id="bch">
                        <g id="Group" transform="translate(0.666667, 0.000000)">
                            <path d="M39.1403802,13.5263158 L0.333333333,13.5263158 L0.333333333,92.4736842 L39.1403802,92.4736842 C27.3908814,83.324681 19.8333333,69.0449205 19.8333333,53 C19.8333333,36.9678426 27.3788627,22.6980381 39.1123493,13.5481586 C39.1216903,13.5408744 39.1310339,13.5335935 39.1403802,13.5263158 Z M100.526292,13.5263158 L139.333333,13.5263158 L139.333333,92.4736842 L100.526287,92.4736842 C112.275785,83.324681 119.833333,69.0449205 119.833333,53 C119.833333,36.9731994 112.292845,22.707574 100.566077,13.5573319 C100.552819,13.5469866 100.539555,13.5366479 100.526287,13.5263158 Z" id="Combined-Shape"></path>
                            <path d="M69.8333333,93.5263158 C47.7419433,93.5263158 29.8333333,75.6177058 29.8333333,53.5263158 C29.8333333,31.4349258 47.7419433,13.5263158 69.8333333,13.5263158 C91.9247233,13.5263158 109.833333,31.4349258 109.833333,53.5263158 C109.833333,75.6177058 91.9247233,93.5263158 69.8333333,93.5263158 Z M84.5708951,54.452012 C87.9728382,53.5862421 90.5123004,51.2645619 91.1298343,46.5626183 C91.9826117,40.1389712 87.1075865,36.7934659 80.4778471,34.6306439 L82.4893688,25.9118308 L77.2452307,24.7011261 L75.2838691,33.1900165 C73.9040989,32.8714715 72.4912336,32.5741896 71.0845028,32.2793687 L73.0558861,23.7351585 L67.8165944,22.5250503 L65.8032845,31.2411871 C64.6623613,31.0025091 63.5421016,30.7673828 62.4532646,30.516005 L62.4592182,30.490217 L55.2265549,28.8172909 L53.919183,34.4846074 C53.919183,34.4846074 57.808894,35.3049609 57.7285692,35.36181 C59.851564,35.853509 60.2567346,37.2616484 60.2074119,38.3849948 L57.9160137,48.3175749 L54.6950554,62.2690783 C54.4454664,62.9236028 53.802658,63.9130664 52.3175113,63.5722826 C52.371172,63.6480505 48.5028998,62.6909137 48.5028998,62.6909137 L45.9996564,68.7878458 L52.8229591,70.3631294 C54.0940405,70.6581487 55.3386563,70.9665593 56.5619404,71.2594238 L54.530898,80.0776793 L59.7686554,81.2884779 L61.7814641,72.5633454 C63.2157168,72.9258101 64.6037689,73.2598485 65.9629098,73.5717156 L63.9565906,82.2553389 L69.2005655,83.466006 L71.2357171,74.6641958 C80.1688259,76.1867976 86.8588568,75.363817 89.5605603,67.1618112 C91.7364265,60.5585278 89.2948381,56.8230912 84.5708951,54.452012 Z M69.8747007,38.5759913 C72.83233,39.2588138 82.354124,40.452949 80.9116331,46.7070191 C79.5261442,52.7022754 70.3890836,49.8550766 67.4285172,49.171576 L69.8747007,38.5759913 Z M63.3185653,66.0994458 L66.0180021,54.4173228 C69.5717592,55.2367276 80.9561677,56.7759111 79.3707236,63.6499241 C77.8503497,70.2420869 66.8749885,66.9177249 63.3185653,66.0994458 Z" id="Combined-Shape" transform="translate(69.833333, 53.526316) rotate(-26.000000) translate(-69.833333, -53.526316) "></path>
                        </g>
                    </g>
                </g>
            </g>
        </g>
        <g id="Text" transform="translate(-436.000000, -2730.000000)"></g>
    </g>
</svg>