<?xml version="1.0" encoding="UTF-8"?>
<svg width="80px" height="80px" viewBox="0 0 80 80" version="1.1" xmlns="http://www.w3.org/2000/svg" xmlns:xlink="http://www.w3.org/1999/xlink">
    <!-- Generator: sketchtool 47.1 (45422) - http://www.bohemiancoding.com/sketch -->
    <title>img/currency-icons/icon-white-btc</title>
    <desc>Created with sketchtool.</desc>
    <defs></defs>
    <g id="Img-Assets" stroke="none" stroke-width="1" fill="none" fill-rule="evenodd">
        <g id="img/currency-icons/icon-white-btc" fill="#FFFFFF">
            <g id="icon-white-btc">
                <g id="icon-btc">
                    <path d="M40,80 C17.90861,80 7.10542736e-14,62.09139 7.10542736e-14,40 C7.10542736e-14,17.90861 17.90861,2.27373675e-13 40,2.27373675e-13 C62.09139,2.27373675e-13 80,17.90861 80,40 C80,62.09139 62.09139,80 40,80 Z M54.7375617,40.9256962 C58.1395049,40.0599263 60.6789671,37.7382461 61.2965009,33.0363025 C62.1492784,26.6126554 57.2742532,23.2671501 50.6445138,21.1043281 L52.6560355,12.385515 L47.4118973,11.1748103 L45.4505357,19.6637007 C44.0707656,19.3451557 42.6579002,19.0478738 41.2511695,18.7530529 L43.2225528,10.2088427 L37.9832611,8.99873456 L35.9699511,17.7148713 C34.829028,17.4761933 33.7087683,17.2410671 32.6199312,16.9896892 L32.6258849,16.9639012 L25.3932216,15.2909751 L24.0858497,20.9582917 C24.0858497,20.9582917 27.9755607,21.7786451 27.8952358,21.8354942 C30.0182307,22.3271933 30.4234013,23.7353326 30.3740785,24.858679 L28.0826804,34.7912592 L24.861722,48.7427625 C24.612133,49.397287 23.9693247,50.3867506 22.4841779,50.0459669 C22.5378387,50.1217347 18.6695664,49.1645979 18.6695664,49.1645979 L16.1663231,55.26153 L22.9896258,56.8368136 C24.2607072,57.1318329 25.505323,57.4402435 26.7286071,57.733108 L24.6975647,66.5513635 L29.935322,67.7621621 L31.9481308,59.0370296 C33.3823834,59.3994944 34.7704355,59.7335327 36.1295765,60.0453998 L34.1232572,68.7290232 L39.3672322,69.9396902 L41.4023838,61.13788 C50.3354925,62.6604818 57.0255235,61.8375013 59.727227,53.6354954 C61.9030931,47.032212 59.4615047,43.2967754 54.7375617,40.9256962 Z M40.0413673,25.0496755 C42.9989966,25.7324981 52.5207906,26.9266332 51.0782997,33.1807034 C49.6928108,39.1759596 40.5557503,36.3287608 37.5951839,35.6452602 L40.0413673,25.0496755 Z M33.485232,52.57313 L36.1846688,40.891007 C39.7384259,41.7104118 51.1228344,43.2495953 49.5373903,50.1236083 C48.0170164,56.7157711 37.0416551,53.3914091 33.485232,52.57313 Z" id="Combined-Shape"></path>
                </g>
            </g>
        </g>
        <g id="Text" transform="translate(-125.000000, -2730.000000)"></g>
    </g>
</svg>