<?xml version="1.0" encoding="UTF-8"?>
<svg width="100px" height="100px" viewBox="0 0 100 100" version="1.1" xmlns="http://www.w3.org/2000/svg" xmlns:xlink="http://www.w3.org/1999/xlink">
    <!-- Generator: sketchtool 47.1 (45422) - http://www.bohemiancoding.com/sketch -->
    <title>img/social-icons/icon-social-whatsapp</title>
    <desc>Created with sketchtool.</desc>
    <defs></defs>
    <g id="Img-Assets" stroke="none" stroke-width="1" fill="none" fill-rule="evenodd">
        <g id="img/social-icons/icon-social-whatsapp" fill="#FFFFFF">
            <g id="icon-social-whatsapp">
                <g id="Shape">
                    <path d="M51.3978495,28.4946237 C39.6774194,28.4946237 30.1075269,38.0645161 30.1075269,49.6774194 C30.1075269,53.655914 31.1827957,57.6344086 33.3333333,60.9677419 L33.8709677,61.7204301 L31.7204301,69.5698925 L39.7849462,67.4193548 L40.5376344,67.8494624 C43.7634409,69.7849462 47.5268817,70.8602151 51.3978495,70.8602151 L51.3978495,70.8602151 C63.1182796,70.8602151 72.5806452,61.2903226 72.688172,49.6774194 C72.688172,43.9784946 70.4301075,38.7096774 66.4516129,34.6236559 C62.4731183,30.7526882 57.0967742,28.6021505 51.3978495,28.4946237 Z M63.9784946,58.9247312 C63.4408602,60.4301075 60.8602151,61.827957 59.6774194,61.9354839 C58.6021505,62.1505376 57.2043011,62.1505376 55.6989247,61.7204301 C54.7311828,61.3978495 53.5483871,61.0752688 52.0430108,60.3225806 C45.5913978,57.5268817 41.5053763,51.0752688 41.1827957,50.6451613 C40.8602151,50.2150538 38.6021505,47.2043011 38.6021505,44.0860215 C38.6021505,40.9677419 40.2150538,39.3548387 40.8602151,38.7096774 C41.3978495,38.0645161 42.1505376,37.9569892 42.5806452,37.9569892 C43.0107527,37.9569892 43.4408602,37.9569892 43.7634409,37.9569892 C44.1935484,37.9569892 44.7311828,37.8494624 45.1612903,39.0322581 C45.6989247,40.3225806 46.9892473,43.4408602 47.0967742,43.7634409 C47.2043011,44.0860215 47.311828,44.4086022 47.2043011,44.8387097 C46.9892473,45.2688172 46.8817204,45.483871 46.5591398,45.9139785 C46.2365591,46.2365591 45.9139785,46.7741935 45.5913978,46.9892473 C45.1612903,47.4193548 44.8387097,47.8494624 45.1612903,48.3870968 C45.483871,49.0322581 46.7741935,51.0752688 48.7096774,52.7956989 C51.1827957,54.9462366 53.2258065,55.5913978 53.8709677,55.9139785 C54.516129,56.2365591 54.8387097,56.1290323 55.2688172,55.8064516 C55.5913978,55.3763441 56.8817204,53.9784946 57.311828,53.3333333 C57.7419355,52.688172 58.172043,52.7956989 58.7096774,53.0107527 C59.2473118,53.2258065 62.4731183,54.7311828 63.1182796,55.0537634 C63.7634409,55.3763441 64.1935484,55.483871 64.3010753,55.8064516 C64.4086022,56.1290323 64.4086022,57.4193548 63.9784946,58.9247312 Z" fill-rule="nonzero"></path>
                    <path d="M49.8924731,0 C22.3655914,0 0,22.3655914 0,49.8924731 C0,77.4193548 22.3655914,99.7849462 49.8924731,99.7849462 C77.4193548,99.7849462 99.7849462,77.4193548 99.7849462,49.8924731 C99.7849462,22.3655914 77.4193548,0 49.8924731,0 Z M51.3978495,75.3763441 L51.3978495,75.3763441 C47.0967742,75.3763441 42.9032258,74.3010753 39.1397849,72.2580645 L25.5913978,75.8064516 L29.2473118,62.5806452 C26.9892473,58.7096774 25.8064516,54.3010753 25.8064516,49.7849462 C25.8064516,35.6989247 37.311828,24.1935484 51.3978495,24.1935484 C58.2795699,24.1935484 64.6236559,26.8817204 69.4623656,31.7204301 C74.3010753,36.5591398 76.9892473,43.0107527 76.9892473,49.7849462 C76.9892473,63.8709677 65.483871,75.3763441 51.3978495,75.3763441 Z" fill-rule="nonzero"></path>
                </g>
            </g>
        </g>
    </g>
</svg>