<?xml version="1.0" encoding="UTF-8"?>
<svg width="375px" height="270px" viewBox="0 0 375 270" version="1.1" xmlns="http://www.w3.org/2000/svg" xmlns:xlink="http://www.w3.org/1999/xlink">
    <!-- Generator: sketchtool 47.1 (45422) - http://www.bohemiancoding.com/sketch -->
    <title>img/onboarding/start</title>
    <desc>Created with sketchtool.</desc>
    <defs>
        <linearGradient x1="50%" y1="0%" x2="50%" y2="100%" id="linearGradient-1">
            <stop stop-color="#1E3186" offset="0%"></stop>
            <stop stop-color="#111B49" offset="100%"></stop>
        </linearGradient>
    </defs>
    <g id="Design" stroke="none" stroke-width="1" fill="none" fill-rule="evenodd">
        <g id="Start" transform="translate(0.000000, -80.000000)" fill="#FFFFFF">
            <g id="exportable" transform="translate(0.000000, 80.000000)">
                <g id="app-logo-name" transform="translate(111.900000, 98.500000)">
                    <g id="wallet">
                        <g transform="translate(3.235714, 7.320000)">
                            <path d="M57.7500888,43.5157895 L57.1536912,41.9900082 L55.2334221,41.9900082 L54.6435783,43.5157895 L54.0799499,43.5157895 L55.9740037,38.6989145 L56.4426018,38.6989145 L58.3268249,43.5157895 L57.7500888,43.5157895 Z M56.980015,41.487977 L56.4229403,40.0015707 C56.350848,39.8134448 56.2765721,39.5826658 56.2001105,39.309227 C56.1520489,39.519228 56.0832345,39.750007 55.9936652,40.0015707 L55.4300367,41.487977 L56.980015,41.487977 Z M61.3612433,43.5157895 L61.3612433,41.1893832 C61.3612433,40.8962568 61.2946134,40.6775089 61.1613518,40.5331332 C61.0280901,40.3887575 60.8194623,40.3165707 60.535462,40.3165707 C60.1597078,40.3165707 59.8844502,40.4182885 59.7096808,40.621727 C59.5349114,40.8251655 59.447528,41.1609434 59.447528,41.6290707 L59.447528,43.5157895 L58.903561,43.5157895 L58.903561,39.9195395 L59.3459438,39.9195395 L59.4344204,40.411727 L59.4606356,40.411727 C59.5720511,40.2345386 59.7282489,40.0972743 59.9292337,39.9999301 C60.1302185,39.9025859 60.3541385,39.8539145 60.6010002,39.8539145 C61.0335545,39.8539145 61.3590576,39.9583666 61.5775193,40.1672738 C61.7959811,40.3761811 61.9052103,40.7103184 61.9052103,41.1696957 L61.9052103,43.5157895 L61.3612433,43.5157895 Z M69.0062737,41.1106332 C69.0062737,41.8784496 68.8123918,42.4821935 68.4246222,42.9218832 C68.0368526,43.3615729 67.4978063,43.5814145 66.8074672,43.5814145 C66.1018358,43.5814145 65.5573281,43.365401 65.1739277,42.9333676 C64.7905274,42.5013342 64.5988301,41.8915747 64.5988301,41.1040707 C64.5988301,40.3231293 64.7910735,39.7177447 65.1755662,39.2878988 C65.5600589,38.8580529 66.106205,38.6431332 66.8140211,38.6431332 C67.5021755,38.6431332 68.0395834,38.861881 68.4262606,39.2993832 C68.8129379,39.7368854 69.0062737,40.3406294 69.0062737,41.1106332 Z M65.1886738,41.1106332 C65.1886738,41.760324 65.3268488,42.2530534 65.6032029,42.5888363 C65.879557,42.9246193 66.2809744,43.0925082 66.8074672,43.0925082 C67.3383293,43.0925082 67.7392005,42.9251661 68.0100931,42.590477 C68.2809857,42.2557878 68.4164299,41.7625115 68.4164299,41.1106332 C68.4164299,40.4653175 68.2815318,39.9758693 68.0117316,39.6422738 C67.7419313,39.3086784 67.3426985,39.1418832 66.8140211,39.1418832 C66.283159,39.1418832 65.879557,39.3097722 65.6032029,39.6455551 C65.3268488,39.981338 65.1886738,40.4696925 65.1886738,41.1106332 Z M71.6638474,43.5814145 C71.4300934,43.5814145 71.2165502,43.5382118 71.0232116,43.4518051 C70.829873,43.3653984 70.6676675,43.2325091 70.5365905,43.0531332 L70.4972676,43.0531332 C70.523483,43.2631343 70.5365905,43.4621948 70.5365905,43.6503207 L70.5365905,45.1301645 L69.9926235,45.1301645 L69.9926235,39.9195395 L70.4350063,39.9195395 L70.5103752,40.411727 L70.5365905,40.411727 C70.676406,40.214851 70.8391576,40.0726649 71.02485,39.9851645 C71.2105425,39.897664 71.4235395,39.8539145 71.6638474,39.8539145 C72.140094,39.8539145 72.5076504,40.0168816 72.7665276,40.3428207 C73.0254047,40.6687599 73.1548414,41.1259428 73.1548414,41.7143832 C73.1548414,42.3050112 73.0232201,42.7638347 72.7599737,43.0908676 C72.4967273,43.4179005 72.1313556,43.5814145 71.6638474,43.5814145 Z M71.5852016,40.3165707 C71.2181859,40.3165707 70.9527589,40.4182885 70.7889125,40.621727 C70.6250662,40.8251655 70.5409597,41.1489123 70.5365905,41.592977 L70.5365905,41.7143832 C70.5365905,42.2196983 70.620697,42.581179 70.7889125,42.7988363 C70.9571281,43.0164937 71.2269243,43.1253207 71.5983092,43.1253207 C71.9085249,43.1253207 72.15156,42.9995407 72.3274217,42.747977 C72.5032834,42.4964132 72.5912129,42.1496979 72.5912129,41.7078207 C72.5912129,41.259381 72.5032834,40.9154 72.3274217,40.6758676 C72.15156,40.4363352 71.9041558,40.3165707 71.5852016,40.3165707 Z M75.6223544,43.5814145 C75.0914924,43.5814145 74.6725983,43.4195411 74.3656595,43.0957895 C74.0587208,42.7720379 73.9052537,42.3225111 73.9052537,41.7471957 C73.9052537,41.1675053 74.0477978,40.7070412 74.3328904,40.3657895 C74.617983,40.0245378 75.0008314,39.8539145 75.4814473,39.8539145 C75.9314785,39.8539145 76.2875658,40.0021161 76.5497198,40.2985238 C76.8118739,40.5949316 76.942949,40.9859433 76.942949,41.4715707 L76.942949,41.816102 L74.4688822,41.816102 C74.4798053,42.2382916 74.5863038,42.5587571 74.7883809,42.7775082 C74.990458,42.9962593 75.2750001,43.1056332 75.6420158,43.1056332 C76.0286931,43.1056332 76.4109954,43.0246965 76.7889342,42.8628207 L76.7889342,43.3484457 C76.5966879,43.4315711 76.4148212,43.4911799 76.2433288,43.5272738 C76.0718363,43.5633678 75.8648469,43.5814145 75.6223544,43.5814145 Z M75.4748935,40.3100082 C75.186524,40.3100082 74.9565964,40.4040698 74.785104,40.5921957 C74.6136115,40.7803217 74.5125744,41.0406316 74.4819898,41.3731332 L76.3596591,41.3731332 C76.3596591,41.029694 76.2831986,40.7666498 76.1302754,40.5839926 C75.9773522,40.4013354 75.7588937,40.3100082 75.4748935,40.3100082 Z M80.3279967,43.5157895 L80.3279967,41.1893832 C80.3279967,40.8962568 80.2613669,40.6775089 80.1281053,40.5331332 C79.9948436,40.3887575 79.7862158,40.3165707 79.5022155,40.3165707 C79.1264613,40.3165707 78.8512036,40.4182885 78.6764342,40.621727 C78.5016649,40.8251655 78.4142815,41.1609434 78.4142815,41.6290707 L78.4142815,43.5157895 L77.8703145,43.5157895 L77.8703145,39.9195395 L78.3126973,39.9195395 L78.4011738,40.411727 L78.4273891,40.411727 C78.5388046,40.2345386 78.6950024,40.0972743 78.8959872,39.9999301 C79.096972,39.9025859 79.3208919,39.8539145 79.5677537,39.8539145 C80.0003079,39.8539145 80.3258111,39.9583666 80.5442728,40.1672738 C80.7627345,40.3761811 80.8719638,40.7103184 80.8719638,41.1696957 L80.8719638,43.5157895 L80.3279967,43.5157895 Z M87.9959655,43.5157895 L87.4454447,43.5157895 L86.4787563,40.3034457 C86.4328793,40.1612575 86.3815416,39.9818843 86.3247415,39.7653207 C86.2679415,39.5487571 86.2384496,39.4186022 86.236265,39.374852 C86.1882034,39.6636034 86.1117429,39.979694 86.0068813,40.3231332 L85.0696851,43.5157895 L84.5191643,43.5157895 L83.2444464,38.718602 L83.8342902,38.718602 L84.5912563,41.6815707 C84.6961179,42.0971978 84.7725784,42.473444 84.82064,42.8103207 C84.8796246,42.4100062 84.967008,42.0184476 85.0827928,41.6356332 L85.9413431,38.718602 L86.5311869,38.718602 L87.432337,41.6618832 C87.5371987,42.0009474 87.6256743,42.3837561 87.6977667,42.8103207 C87.7392744,42.4996942 87.8179195,42.1212605 87.9337042,41.6750082 L88.6873935,38.718602 L89.2772372,38.718602 L87.9959655,43.5157895 Z M92.0200106,43.5157895 L91.9118726,43.0039145 L91.8856573,43.0039145 C91.7065187,43.2292281 91.5279289,43.3818047 91.3498826,43.4616488 C91.1718363,43.541493 90.9495548,43.5814145 90.6830315,43.5814145 C90.3269388,43.5814145 90.0478581,43.4895404 89.845781,43.3057895 C89.6437039,43.1220386 89.5426669,42.8606349 89.5426669,42.5215707 C89.5426669,41.7953171 90.1226741,41.4146959 91.282706,41.3796957 L91.8922112,41.3600082 L91.8922112,41.1368832 C91.8922112,40.8546943 91.8315889,40.646337 91.7103427,40.5118051 C91.5890964,40.3772732 91.3952145,40.3100082 91.1286912,40.3100082 C90.8293986,40.3100082 90.490788,40.4018823 90.1128492,40.5856332 L89.9457268,40.1689145 C90.1226808,40.072664 90.3165627,39.997196 90.5273783,39.9425082 C90.7381938,39.8878205 90.9495524,39.860477 91.1614603,39.860477 C91.5896453,39.860477 91.9069562,39.9556323 92.1134026,40.1459457 C92.3198489,40.3362592 92.4230705,40.6414124 92.4230705,41.0614145 L92.4230705,43.5157895 L92.0200106,43.5157895 Z M90.7911695,43.1318832 C91.1297852,43.1318832 91.3957584,43.0389154 91.589097,42.852977 C91.7824357,42.6670385 91.8791035,42.4067286 91.8791035,42.0720395 L91.8791035,41.7471957 L91.3351365,41.7701645 C90.9025823,41.7854771 90.5907328,41.852742 90.3995788,41.9719613 C90.2084248,42.0911807 90.1128492,42.2765695 90.1128492,42.5281332 C90.1128492,42.7250092 90.1723791,42.8748515 90.2914408,42.9776645 C90.4105024,43.0804775 90.577077,43.1318832 90.7911695,43.1318832 Z M94.0877407,43.5157895 L93.5437737,43.5157895 L93.5437737,38.4101645 L94.0877407,38.4101645 L94.0877407,43.5157895 Z M95.7851799,43.5157895 L95.2412129,43.5157895 L95.2412129,38.4101645 L95.7851799,38.4101645 L95.7851799,43.5157895 Z M98.4558613,43.5814145 C97.9249993,43.5814145 97.5061052,43.4195411 97.1991665,43.0957895 C96.8922277,42.7720379 96.7387606,42.3225111 96.7387606,41.7471957 C96.7387606,41.1675053 96.8813048,40.7070412 97.1663974,40.3657895 C97.4514899,40.0245378 97.8343384,39.8539145 98.3149542,39.8539145 C98.7649854,39.8539145 99.1210727,40.0021161 99.3832268,40.2985238 C99.6453809,40.5949316 99.776456,40.9859433 99.776456,41.4715707 L99.776456,41.816102 L97.3023891,41.816102 C97.3133122,42.2382916 97.4198107,42.5587571 97.6218878,42.7775082 C97.8239649,42.9962593 98.1085071,43.1056332 98.4755228,43.1056332 C98.8622001,43.1056332 99.2445024,43.0246965 99.6224412,42.8628207 L99.6224412,43.3484457 C99.4301949,43.4315711 99.2483282,43.4911799 99.0768357,43.5272738 C98.9053433,43.5633678 98.6983539,43.5814145 98.4558613,43.5814145 Z M98.3084004,40.3100082 C98.0200309,40.3100082 97.7901034,40.4040698 97.6186109,40.5921957 C97.4471184,40.7803217 97.3460814,41.0406316 97.3154967,41.3731332 L99.193166,41.3731332 C99.193166,41.029694 99.1167056,40.7666498 98.9637823,40.5839926 C98.8108591,40.4013354 98.5924007,40.3100082 98.3084004,40.3100082 Z M101.863847,43.1318832 C101.959971,43.1318832 102.052815,43.1247739 102.142385,43.1105551 C102.231954,43.0963363 102.302953,43.0815708 102.355384,43.0662582 L102.355384,43.482977 C102.296399,43.5114146 102.209562,43.53493 102.09487,43.5535238 C101.980177,43.5721177 101.876956,43.5814145 101.785202,43.5814145 C101.090493,43.5814145 100.743144,43.2150119 100.743144,42.4821957 L100.743144,40.3428207 L100.228669,40.3428207 L100.228669,40.0803207 L100.743144,39.8539145 L100.972528,39.086102 L101.287111,39.086102 L101.287111,39.9195395 L102.329169,39.9195395 L102.329169,40.3428207 L101.287111,40.3428207 L101.287111,42.459227 C101.287111,42.6757906 101.338449,42.8420389 101.441126,42.957977 C101.543803,43.0739151 101.684709,43.1318832 101.863847,43.1318832 Z M107.601716,42.2393832 C107.601716,42.6615728 107.448795,42.9907883 107.142949,43.2270395 C106.837103,43.4632907 106.422031,43.5814145 105.897723,43.5814145 C105.329723,43.5814145 104.892806,43.508134 104.586959,43.3615707 L104.586959,42.8234457 C104.783575,42.9065711 104.997664,42.9721955 105.229234,43.0203207 C105.460803,43.068446 105.690185,43.0925082 105.917385,43.0925082 C106.28877,43.0925082 106.568397,43.0219621 106.756274,42.8808676 C106.944151,42.7397731 107.038088,42.543447 107.038088,42.2918832 C107.038088,42.1256324 107.004773,41.9894619 106.938142,41.8833676 C106.871511,41.7772733 106.760098,41.6793837 106.603897,41.5896957 C106.447697,41.5000078 106.210124,41.39829 105.891169,41.2845395 C105.445508,41.1248512 105.127104,40.9356343 104.93595,40.7168832 C104.744796,40.4981321 104.649221,40.2126662 104.649221,39.860477 C104.649221,39.4907876 104.787942,39.1965718 105.065388,38.9778207 C105.342835,38.7590696 105.709845,38.6496957 106.16643,38.6496957 C106.642677,38.6496957 107.080686,38.7371948 107.480471,38.9121957 L107.306794,39.3978207 C106.911379,39.2315699 106.526892,39.1484457 106.153322,39.1484457 C105.858399,39.1484457 105.627925,39.2118826 105.461894,39.3387582 C105.295863,39.4656339 105.212849,39.6417258 105.212849,39.8670395 C105.212849,40.0332903 105.243433,40.1694608 105.304603,40.2755551 C105.365772,40.3816494 105.468994,40.4789922 105.614271,40.5675863 C105.759548,40.6561805 105.981829,40.7540702 106.281122,40.8612582 C106.783584,41.0406341 107.129294,41.2331322 107.318264,41.4387582 C107.507233,41.6443843 107.601716,41.9112566 107.601716,42.2393832 Z M109.659616,43.1318832 C109.755739,43.1318832 109.848584,43.1247739 109.938153,43.1105551 C110.027722,43.0963363 110.098721,43.0815708 110.151152,43.0662582 L110.151152,43.482977 C110.092167,43.5114146 110.00533,43.53493 109.890638,43.5535238 C109.775945,43.5721177 109.672724,43.5814145 109.58097,43.5814145 C108.886262,43.5814145 108.538913,43.2150119 108.538913,42.4821957 L108.538913,40.3428207 L108.024438,40.3428207 L108.024438,40.0803207 L108.538913,39.8539145 L108.768296,39.086102 L109.08288,39.086102 L109.08288,39.9195395 L110.124937,39.9195395 L110.124937,40.3428207 L109.08288,40.3428207 L109.08288,42.459227 C109.08288,42.6757906 109.134217,42.8420389 109.236894,42.957977 C109.339571,43.0739151 109.480477,43.1318832 109.659616,43.1318832 Z M113.077433,43.5157895 L112.969294,43.0039145 L112.943079,43.0039145 C112.763941,43.2292281 112.585351,43.3818047 112.407304,43.4616488 C112.229258,43.541493 112.006977,43.5814145 111.740453,43.5814145 C111.384361,43.5814145 111.10528,43.4895404 110.903203,43.3057895 C110.701126,43.1220386 110.600089,42.8606349 110.600089,42.5215707 C110.600089,41.7953171 111.180096,41.4146959 112.340128,41.3796957 L112.949633,41.3600082 L112.949633,41.1368832 C112.949633,40.8546943 112.889011,40.646337 112.767765,40.5118051 C112.646518,40.3772732 112.452636,40.3100082 112.186113,40.3100082 C111.88682,40.3100082 111.54821,40.4018823 111.170271,40.5856332 L111.003149,40.1689145 C111.180103,40.072664 111.373985,39.997196 111.5848,39.9425082 C111.795616,39.8878205 112.006974,39.860477 112.218882,39.860477 C112.647067,39.860477 112.964378,39.9556323 113.170824,40.1459457 C113.377271,40.3362592 113.480492,40.6414124 113.480492,41.0614145 L113.480492,43.5157895 L113.077433,43.5157895 Z M111.848591,43.1318832 C112.187207,43.1318832 112.45318,43.0389154 112.646519,42.852977 C112.839858,42.6670385 112.936525,42.4067286 112.936525,42.0720395 L112.936525,41.7471957 L112.392558,41.7701645 C111.960004,41.7854771 111.648155,41.852742 111.457001,41.9719613 C111.265847,42.0911807 111.170271,42.2765695 111.170271,42.5281332 C111.170271,42.7250092 111.229801,42.8748515 111.348863,42.9776645 C111.467924,43.0804775 111.634499,43.1318832 111.848591,43.1318832 Z M116.036482,43.5814145 C115.516543,43.5814145 115.114033,43.4211817 114.828941,43.1007113 C114.543848,42.780241 114.401304,42.3268862 114.401304,41.7406332 C114.401304,41.1390677 114.546033,40.6742286 114.835495,40.346102 C115.124956,40.0179753 115.537297,39.8539145 116.072528,39.8539145 C116.245113,39.8539145 116.417695,39.872508 116.59028,39.9096957 C116.762865,39.9468834 116.898309,39.990633 116.996617,40.0409457 L116.829494,40.503602 C116.70934,40.4554767 116.578265,40.4155553 116.436265,40.3838363 C116.294265,40.3521174 116.168651,40.3362582 116.05942,40.3362582 C115.329758,40.3362582 114.964933,40.8021911 114.964933,41.7340707 C114.964933,42.1759479 115.053954,42.515007 115.232001,42.7512582 C115.410047,42.9875094 115.673836,43.1056332 116.023374,43.1056332 C116.322667,43.1056332 116.629601,43.0411026 116.944186,42.9120395 L116.944186,43.3943832 C116.703878,43.5190713 116.401313,43.5814145 116.036482,43.5814145 Z M118.333596,41.6750082 C118.427534,41.5415701 118.570625,41.3665718 118.762871,41.1500082 L119.922897,39.9195395 L120.568448,39.9195395 L119.1135,41.4518832 L120.670032,43.5157895 L120.011373,43.5157895 L118.743209,41.816102 L118.333596,42.170477 L118.333596,43.5157895 L117.796183,43.5157895 L117.796183,38.4101645 L118.333596,38.4101645 L118.333596,41.1171957 C118.333596,41.2375088 118.324857,41.4234445 118.30738,41.6750082 L118.333596,41.6750082 Z M124.7334,43.5814145 C124.499646,43.5814145 124.286103,43.5382118 124.092765,43.4518051 C123.899426,43.3653984 123.73722,43.2325091 123.606143,43.0531332 L123.566821,43.0531332 C123.593036,43.2631343 123.606143,43.4621948 123.606143,43.6503207 L123.606143,45.1301645 L123.062176,45.1301645 L123.062176,39.9195395 L123.504559,39.9195395 L123.579928,40.411727 L123.606143,40.411727 C123.745959,40.214851 123.908711,40.0726649 124.094403,39.9851645 C124.280095,39.897664 124.493092,39.8539145 124.7334,39.8539145 C125.209647,39.8539145 125.577203,40.0168816 125.836081,40.3428207 C126.094958,40.6687599 126.224394,41.1259428 126.224394,41.7143832 C126.224394,42.3050112 126.092773,42.7638347 125.829527,43.0908676 C125.56628,43.4179005 125.200909,43.5814145 124.7334,43.5814145 Z M124.654755,40.3165707 C124.287739,40.3165707 124.022312,40.4182885 123.858465,40.621727 C123.694619,40.8251655 123.610513,41.1489123 123.606143,41.592977 L123.606143,41.7143832 C123.606143,42.2196983 123.69025,42.581179 123.858465,42.7988363 C124.026681,43.0164937 124.296477,43.1253207 124.667862,43.1253207 C124.978078,43.1253207 125.221113,42.9995407 125.396975,42.747977 C125.572836,42.4964132 125.660766,42.1496979 125.660766,41.7078207 C125.660766,41.259381 125.572836,40.9154 125.396975,40.6758676 C125.221113,40.4363352 124.973709,40.3165707 124.654755,40.3165707 Z M128.813153,39.8539145 C128.97263,39.8539145 129.11572,39.8670393 129.242428,39.8932895 L129.167059,40.398602 C129.018505,40.3657893 128.88743,40.3493832 128.77383,40.3493832 C128.483276,40.3493832 128.234779,40.467507 128.028333,40.7037582 C127.821887,40.9400094 127.718665,41.2342252 127.718665,41.5864145 L127.718665,43.5157895 L127.174698,43.5157895 L127.174698,39.9195395 L127.623635,39.9195395 L127.685896,40.5856332 L127.712111,40.5856332 C127.845373,40.3515696 128.00594,40.1711026 128.193817,40.044227 C128.381694,39.9173513 128.588137,39.8539145 128.813153,39.8539145 Z M132.879798,41.7143832 C132.879798,42.3006362 132.732339,42.758366 132.437415,43.0875863 C132.142492,43.4168067 131.735067,43.5814145 131.215128,43.5814145 C130.893989,43.5814145 130.608901,43.5059465 130.359854,43.3550082 C130.110808,43.20407 129.918565,42.9875096 129.783118,42.7053207 C129.647672,42.4231318 129.57995,42.0928226 129.57995,41.7143832 C129.57995,41.1281303 129.726317,40.6714942 130.019056,40.3444613 C130.311795,40.0174285 130.718127,39.8539145 131.238066,39.8539145 C131.740528,39.8539145 132.139761,40.0212566 132.435777,40.3559457 C132.731792,40.6906349 132.879798,41.1434429 132.879798,41.7143832 Z M130.143578,41.7143832 C130.143578,42.1737605 130.235331,42.523757 130.418839,42.7643832 C130.602347,43.0050094 130.872143,43.1253207 131.228235,43.1253207 C131.584328,43.1253207 131.85467,43.0055563 132.039271,42.7660238 C132.223871,42.5264914 132.316169,42.175948 132.316169,41.7143832 C132.316169,41.2571934 132.223871,40.9099313 132.039271,40.6725863 C131.85467,40.4352414 131.582144,40.3165707 131.221682,40.3165707 C130.865589,40.3165707 130.596885,40.4336008 130.415562,40.6676645 C130.234239,40.9017281 130.143578,41.2506309 130.143578,41.7143832 Z M133.39755,45.1301645 C133.190011,45.1301645 133.021798,45.102821 132.892906,45.0481332 L132.892906,44.6051645 C133.043644,44.6489147 133.192196,44.6707895 133.338565,44.6707895 C133.508965,44.6707895 133.634033,44.6243056 133.713771,44.5313363 C133.79351,44.4383671 133.833379,44.2967279 133.833379,44.1064145 L133.833379,39.9195395 L134.377346,39.9195395 L134.377346,44.0670395 C134.377346,44.775793 134.05075,45.1301645 133.39755,45.1301645 Z M133.787502,38.9450082 C133.787502,38.8203201 133.818086,38.7289929 133.879255,38.6710238 C133.940425,38.6130548 134.016885,38.5840707 134.108639,38.5840707 C134.196024,38.5840707 134.271392,38.6136017 134.334746,38.6726645 C134.3981,38.7317273 134.429776,38.8225076 134.429776,38.9450082 C134.429776,39.0675088 134.3981,39.158836 134.334746,39.2189926 C134.271392,39.2791491 134.196024,39.309227 134.108639,39.309227 C134.016885,39.309227 133.940425,39.2791491 133.879255,39.2189926 C133.818086,39.158836 133.787502,39.0675088 133.787502,38.9450082 Z M137.048027,43.5814145 C136.517165,43.5814145 136.098271,43.4195411 135.791332,43.0957895 C135.484394,42.7720379 135.330926,42.3225111 135.330926,41.7471957 C135.330926,41.1675053 135.473471,40.7070412 135.758563,40.3657895 C136.043656,40.0245378 136.426504,39.8539145 136.90712,39.8539145 C137.357151,39.8539145 137.713238,40.0021161 137.975393,40.2985238 C138.237547,40.5949316 138.368622,40.9859433 138.368622,41.4715707 L138.368622,41.816102 L135.894555,41.816102 C135.905478,42.2382916 136.011976,42.5587571 136.214054,42.7775082 C136.416131,42.9962593 136.700673,43.1056332 137.067689,43.1056332 C137.454366,43.1056332 137.836668,43.0246965 138.214607,42.8628207 L138.214607,43.3484457 C138.022361,43.4315711 137.840494,43.4911799 137.669002,43.5272738 C137.497509,43.5633678 137.29052,43.5814145 137.048027,43.5814145 Z M136.900566,40.3100082 C136.612197,40.3100082 136.382269,40.4040698 136.210777,40.5921957 C136.039284,40.7803217 135.938247,41.0406316 135.907663,41.3731332 L137.785332,41.3731332 C137.785332,41.029694 137.708871,40.7666498 137.555948,40.5839926 C137.403025,40.4013354 137.184566,40.3100082 136.900566,40.3100082 Z M140.731274,43.5814145 C140.211335,43.5814145 139.808825,43.4211817 139.523732,43.1007113 C139.23864,42.780241 139.096096,42.3268862 139.096096,41.7406332 C139.096096,41.1390677 139.240824,40.6742286 139.530286,40.346102 C139.819748,40.0179753 140.232088,39.8539145 140.76732,39.8539145 C140.939904,39.8539145 141.112487,39.872508 141.285071,39.9096957 C141.457656,39.9468834 141.5931,39.990633 141.691408,40.0409457 L141.524286,40.503602 C141.404132,40.4554767 141.273057,40.4155553 141.131057,40.3838363 C140.989057,40.3521174 140.863443,40.3362582 140.754212,40.3362582 C140.02455,40.3362582 139.659724,40.8021911 139.659724,41.7340707 C139.659724,42.1759479 139.748746,42.515007 139.926792,42.7512582 C140.104839,42.9875094 140.368627,43.1056332 140.718166,43.1056332 C141.017459,43.1056332 141.324393,43.0411026 141.638978,42.9120395 L141.638978,43.3943832 C141.39867,43.5190713 141.096105,43.5814145 140.731274,43.5814145 Z M143.651,43.1318832 C143.747123,43.1318832 143.839968,43.1247739 143.929538,43.1105551 C144.019107,43.0963363 144.090106,43.0815708 144.142537,43.0662582 L144.142537,43.482977 C144.083552,43.5114146 143.996715,43.53493 143.882022,43.5535238 C143.76733,43.5721177 143.664108,43.5814145 143.572354,43.5814145 C142.877646,43.5814145 142.530297,43.2150119 142.530297,42.4821957 L142.530297,40.3428207 L142.015822,40.3428207 L142.015822,40.0803207 L142.530297,39.8539145 L142.759681,39.086102 L143.074264,39.086102 L143.074264,39.9195395 L144.116321,39.9195395 L144.116321,40.3428207 L143.074264,40.3428207 L143.074264,42.459227 C143.074264,42.6757906 143.125602,42.8420389 143.228279,42.957977 C143.330956,43.0739151 143.471862,43.1318832 143.651,43.1318832 Z" id="An-Open-Wallet-Stack-project"></path>
                            <path d="M63.1973157,35.8549292 L61.8591295,32.3063051 L61.6313531,32.3063051 C60.1128364,33.8578758 58.5848518,34.9140033 57.0473536,35.4747195 C55.5098554,36.0354356 53.5358132,36.3157895 51.1251679,36.3157895 C48.03119,36.3157895 45.6158355,35.6398678 43.879032,34.2880043 C42.1422285,32.9361407 41.2738397,31.0235897 41.2738397,28.5502939 C41.2738397,25.9233772 42.4791443,23.9416978 44.8897897,22.6051964 C47.300435,21.2686949 50.9732923,20.5390068 55.9084717,20.4161101 L61.3466327,20.277852 L61.3466327,18.9183142 C61.3466327,17.2899331 60.8768486,16.072506 59.9372664,15.2659965 C58.9976841,14.459487 57.540879,14.0562383 55.5668072,14.0562383 C53.9533831,14.0562383 52.4064174,14.2482615 50.9258636,14.6323137 C49.4453097,15.0163658 48.0217216,15.4695405 46.6550566,15.9918515 L44.491181,12.1206252 C46.1995124,11.3986071 48.0691581,10.8494208 50.1001742,10.4730497 C52.1311904,10.0966786 54.048289,9.90849586 55.8515277,9.90849586 C59.8566156,9.90849586 62.8793677,10.6151412 64.9198745,12.0284531 C66.9603814,13.441765 67.9806196,15.6615531 67.9806196,18.6878841 L67.9806196,35.8549292 L63.1973157,35.8549292 Z M53.2320994,32.168047 C55.6617262,32.168047 57.6120419,31.6188607 59.083105,30.5204715 C60.5541681,29.4220824 61.2896886,27.8820564 61.2896886,25.9003473 L61.2896886,23.688218 L57.2466579,23.8264761 C54.0957357,23.9186486 51.8037588,24.3449401 50.3706587,25.1053633 C48.9375585,25.8657866 48.2210191,27.0294471 48.2210191,28.5963799 C48.2210191,29.7331743 48.638605,30.6126405 49.4737892,31.234805 C50.3089734,31.8569694 51.5617309,32.168047 53.2320994,32.168047 Z M79.8453282,35.8549292 L73.1543972,35.8549292 L73.1543972,0 L79.8453282,0 L79.8453282,35.8549292 Z M91.9378132,35.8549292 L85.2468822,35.8549292 L85.2468822,0 L91.9378132,0 L91.9378132,35.8549292 Z M111.091366,36.3157895 C106.194149,36.3157895 102.364697,35.1598099 99.6028949,32.8478159 C96.8410925,30.535822 95.4602121,27.3520775 95.4602121,23.2964868 C95.4602121,19.1333615 96.7414414,15.8612863 99.3039384,13.480163 C101.866435,11.0990397 105.387443,9.90849586 109.867068,9.90849586 C114.024007,9.90849586 117.307751,10.9300592 119.718396,12.9732167 C122.129041,15.0163741 123.334346,17.8275936 123.334346,21.4069597 L123.334346,24.3334224 L102.350447,24.3334224 C102.445355,26.8067182 103.271036,28.7077478 104.827515,30.0365683 C106.383995,31.3653887 108.576321,32.0297889 111.404558,32.0297889 C113.264741,32.0297889 114.996773,31.8876918 116.600707,31.6034932 C118.20464,31.3192946 119.927182,30.8469175 121.768383,30.1863478 L121.768383,34.5875635 C120.135978,35.217409 118.484616,35.6629028 116.814247,35.9240582 C115.143879,36.1852137 113.236271,36.3157895 111.091366,36.3157895 Z M109.867068,14.0101523 C107.741144,14.0101523 106.037584,14.5554982 104.756335,15.6462063 C103.475087,16.7369144 102.711095,18.3268664 102.464336,20.4161101 L116.757303,20.4161101 C116.71934,18.3115043 116.092961,16.7177118 114.878148,15.6346847 C113.663335,14.5516577 111.992991,14.0101523 109.867068,14.0101523 Z M139.543075,31.9376169 C141.175481,31.9376169 142.807862,31.7302318 144.440267,31.3154555 L144.440267,35.3940689 C143.69999,35.6552244 142.746186,35.8741308 141.578827,36.0507948 C140.411467,36.2274588 139.201417,36.3157895 137.948641,36.3157895 C131.608833,36.3157895 128.438977,33.6121029 128.438977,28.2046487 L128.438977,14.4710126 L124.139698,14.4710126 L124.139698,12.0745391 L128.75217,10.09284 L131.029933,4.70077478 L135.15838,4.70077478 L135.15838,10.3693561 L144.127075,10.3693561 L144.127075,14.4710126 L135.15838,14.4710126 L135.15838,28.1124766 C135.15838,29.4182539 135.56173,30.3822104 136.368442,31.0043748 C137.175154,31.6265393 138.233355,31.9376169 139.543075,31.9376169 Z" id="allet"></path>
                            <path d="M21.1268102,22.5764986 L26.4570368,22.5764986 C27.3043353,24.6566453 27.8577291,26.1823974 28.1172184,27.1537546 C28.5064522,28.6107906 28.7959999,29.9020597 28.9858701,31.0276006 L29.1567524,31.0276006 C29.5364927,28.8073554 30.1820416,26.1400175 31.0934184,23.0255068 L35.1091525,10.4210526 L41.9444444,10.4210526 L33.1155256,36 L25.6577338,36 C24.4699662,32.613785 22.9397784,28.1938234 21.0671705,22.7401152 L16.2338185,36 L8.82891881,36 L0,10.4210526 L6.83529198,10.4210526 L10.851026,23.0255068 C11.7624028,26.1400175 12.4079517,28.8073554 12.7876921,31.0276006 L12.9585744,31.0276006 C13.1484446,29.9020597 13.4379922,28.6107906 13.8272261,27.1537546 C14.2164599,25.6967187 14.5534744,24.6058854 14.8382797,23.881222 L19.6229841,10.4210526 L25.5575839,10.4210526 L21.1268102,22.5764986 Z" id="w"></path>
                        </g>
                    </g>
                </g>
            </g>
        </g>
    </g>
</svg>