<?xml version="1.0" encoding="UTF-8"?>
<svg width="84px" height="100px" viewBox="0 0 84 100" version="1.1" xmlns="http://www.w3.org/2000/svg" xmlns:xlink="http://www.w3.org/1999/xlink">
    <!-- Generator: sketchtool 47.1 (45422) - http://www.bohemiancoding.com/sketch -->
    <title>img/icon-testnet-white</title>
    <desc>Created with sketchtool.</desc>
    <defs></defs>
    <g id="Img-Assets" stroke="none" stroke-width="1" fill="none" fill-rule="evenodd">
        <g id="img/icon-testnet-white" fill="#FFFFFF">
            <g id="icon-testnet-white" transform="translate(6.000000, 4.000000)">
                <g id="icon-chem">
                    <path d="M21,18 C19.3431458,18 18,19.3431458 18,21 C18,22.6568542 19.3431458,24 21,24 L24,24 L24,38.16 L2.34,73.416 C0.06,77.1 0.12,81.444 2.064,84.666 C4.008,87.894 7.722,90.006 12,90.006 L66,90.006 C70.278,90.006 73.98,87.894 75.924,84.666 C77.868,81.456 77.934,77.124 75.666,73.434 L54,38.148 L54,24 L57,24 C58.6568542,24 60,22.6568542 60,21 C60,19.3431458 58.6568542,18 57,18 L51,18 C49.3431458,18 48,19.3431458 48,21 L48,39 C47.9997458,39.5549815 48.1534439,40.0991558 48.444,40.572 L70.56,76.572 C71.772,78.552 71.604,80.208 70.782,81.576 C69.96,82.938 68.37,84 66,84 L12,84 C9.63,84 8.04,82.932 7.2,81.564 C6.384,80.196 6.21,78.546 7.428,76.584 C7.4306742,76.5813409 14.8066742,64.5773409 29.556,40.572 C29.8465561,40.0991558 30.0002542,39.5549815 30,39 L30,21 C30,19.3431458 28.6568542,18 27,18 L21,18 Z" id="flask" fill-rule="nonzero"></path>
                    <path d="M27.408,55.524 L13.608,78 L64.392,78 L54.372,61.68 C46.596,63.042 36.708,56.34 27.408,55.524 Z M32.952,62.862 C36.2657085,62.862 38.952,65.5482915 38.952,68.862 C38.952,72.1757085 36.2657085,74.862 32.952,74.862 C31.3586229,74.8651868 29.8294148,74.2344528 28.7015998,73.108889 C27.5737848,71.9833251 26.9399968,70.4553803 26.94,68.862 C26.9399968,67.2686197 27.5737848,65.7406749 28.7015998,64.615111 C29.8294148,63.4895472 31.3586229,62.8588132 32.952,62.862 L32.952,62.862 Z" id="liquid" fill-rule="nonzero"></path>
                    <circle id="bubble1" fill-rule="nonzero" cx="41.196" cy="8.154" r="6.126"></circle>
                    <circle id="bubble2" fill-rule="nonzero" cx="37.95" cy="27.51" r="4.722"></circle>
                    <circle id="bubble3" fill-rule="nonzero" cx="42.426" cy="48.93" r="6.57"></circle>
                </g>
            </g>
        </g>
        <g id="Text" transform="translate(-384.000000, -1231.000000)"></g>
    </g>
</svg>