<?xml version="1.0" encoding="UTF-8"?>
<svg width="99px" height="99px" viewBox="0 0 99 99" version="1.1" xmlns="http://www.w3.org/2000/svg" xmlns:xlink="http://www.w3.org/1999/xlink">
    <!-- Generator: sketchtool 47.1 (45422) - http://www.bohemiancoding.com/sketch -->
    <title>img/icon-star</title>
    <desc>Created with sketchtool.</desc>
    <defs></defs>
    <g id="Img-Assets" stroke="none" stroke-width="1" fill="none" fill-rule="evenodd">
        <g id="img/icon-star" fill="#FFFFFF">
            <g id="icon-star">
                <g id="Shape">
                    <path d="M98.3333333,33.3333333 C97.7777778,32.2222222 97.2222222,31.6666667 96.1111111,31.6666667 L65.5555556,31.6666667 L51.6666667,1.66666667 C51.1111111,0.555555556 50.5555556,0 49.4444444,0 C48.3333333,0 47.7777778,0.555555556 47.2222222,1.66666667 L32.7777778,32.2222222 L2.22222222,32.2222222 C1.66666667,32.2222222 0.555555556,32.7777778 0,33.3333333 C0,34.4444444 0,35.5555556 0.555555556,36.1111111 L22.7777778,59.4444444 L13.8888889,95.5555556 C13.8888889,96.6666667 13.8888889,97.7777778 15,98.3333333 C15.5555556,98.8888889 16.6666667,98.8888889 17.7777778,98.3333333 L49.4444444,80 L81.1111111,98.3333333 C81.6666667,98.3333333 81.6666667,98.8888889 82.2222222,98.8888889 C82.7777778,98.8888889 83.3333333,98.8888889 83.8888889,98.3333333 C84.4444444,97.7777778 85,96.6666667 85,95.5555556 L76.1111111,59.4444444 L98.3333333,36.1111111 C98.8888889,35.5555556 98.8888889,34.4444444 98.3333333,33.3333333 Z" fill-rule="nonzero"></path>
                </g>
            </g>
        </g>
        <g id="Text" transform="translate(-289.000000, -3026.000000)"></g>
    </g>
</svg>