<?xml version="1.0" encoding="UTF-8"?>
<svg width="104px" height="104px" viewBox="0 0 104 104" version="1.1" xmlns="http://www.w3.org/2000/svg" xmlns:xlink="http://www.w3.org/1999/xlink">
    <!-- Generator: sketchtool 47.1 (45422) - http://www.bohemiancoding.com/sketch -->
    <title>img/icon-broadcasted</title>
    <desc>Created with sketchtool.</desc>
    <defs></defs>
    <g id="Img-Assets" stroke="none" stroke-width="1" fill="none" fill-rule="evenodd">
        <g id="img/icon-broadcasted" stroke="#0EC286">
            <g id="icon-broadcasted" transform="translate(2.000000, 2.000000)">
                <g transform="translate(51.000000, 51.000000) rotate(225.000000) translate(-51.000000, -51.000000) " id="Received">
                    <g transform="translate(51.340737, 51.025686) scale(-1, 1) translate(-51.340737, -51.025686) translate(0.840737, 0.525686)" stroke-width="3">
                        <path d="M50.840737,98.9743141 C77.6265474,98.9743141 99.340737,77.2601246 99.340737,50.4743141 C99.340737,23.6885039 77.6265474,1.97431429 50.840737,1.97431429 C24.0549266,1.97431429 2.34073697,23.6885039 2.34073697,50.4743141 C2.34073697,77.2601245 24.0549266,98.9743141 50.840737,98.9743141 Z" id="Oval-204"></path>
                        <path d="M34.5724774,49.5027054 L71.5874957,49.5027054 M48.1912389,66.4658557 L31.5714274,49.74407 L47.6133931,33.2857154" id="Line" stroke-linecap="round" stroke-linejoin="round" transform="translate(51.579462, 49.875786) scale(-1, 1) rotate(270.000000) translate(-51.579462, -49.875786) "></path>
                    </g>
                </g>
            </g>
        </g>
        <g id="Text" transform="translate(0.000000, -1533.000000)"></g>
    </g>
</svg>