<?xml version="1.0" encoding="UTF-8"?>
<svg width="80px" height="100px" viewBox="0 0 80 100" version="1.1" xmlns="http://www.w3.org/2000/svg" xmlns:xlink="http://www.w3.org/1999/xlink">
    <!-- Generator: sketchtool 47.1 (45422) - http://www.bohemiancoding.com/sketch -->
    <title>img/icon-sigma</title>
    <desc>Created with sketchtool.</desc>
    <defs></defs>
    <g id="Img-Assets" stroke="none" stroke-width="1" fill="none" fill-rule="evenodd">
        <g id="img/icon-sigma" stroke="#FFFFFF">
            <g id="icon-sigma">
                <g id="Shape">
                    <path d="M37.3391862,50.8426172 L2.47159097,7.37661961 L2.34452161,2.6192668 L71.7372132,2.6192668 L73.8390395,28.0513646 L68.6287742,28.0513646 L68.5286934,26.7796308 C68.3589496,24.6226836 67.8928618,22.4091023 67.1564901,20.1700838 C64.7552448,12.8757939 58.8683999,10.4323027 48.013617,10.4091212 C46.5105423,10.4059112 45.2259801,10.4351174 42.655655,10.5166247 C39.992562,10.6010738 38.9932843,10.6257026 37.6817957,10.6256918 L23.4950526,10.6818399 L51.6890784,45.9257254 L20.374085,83.7516497 L49.293442,83.7516497 C49.7744015,83.7516497 50.1517045,83.7538071 51.0436511,83.7605349 C53.0794194,83.7758903 54.010256,83.7734169 55.1497636,83.7361522 C59.7282919,83.5864229 62.9418658,82.8275214 65.5516787,80.9965637 C68.3721716,79.0173741 69.738914,76.74488 72.1023136,71.0827126 C72.1698338,70.9209367 72.1698338,70.9209367 72.2375414,70.7587852 C72.6303195,69.8184166 72.8725243,69.2488443 73.1397071,68.6458907 L73.6099701,67.5846443 L78.2469776,68.7438962 L78.0059853,70.0226597 C77.8741002,70.7224742 77.7353236,71.4523239 77.562822,72.3546569 C77.476958,72.8038 77.1722691,74.3944293 77.1136597,74.7008197 C76.2217026,79.363672 75.7182427,82.1196771 75.2393102,85.0763356 C74.6037156,89.0001373 74.161341,92.4682108 73.9033704,95.7332174 L73.8034438,96.9979403 L1.90949379,97.3698425 L2.0863427,92.7846326 L37.3391862,50.8426172 Z" stroke-width="2.76" fill-rule="nonzero"></path>
                </g>
            </g>
        </g>
    </g>
</svg>