<?xml version="1.0" encoding="UTF-8"?>
<svg width="60px" height="95px" viewBox="0 0 60 95" version="1.1" xmlns="http://www.w3.org/2000/svg" xmlns:xlink="http://www.w3.org/1999/xlink">
    <!-- Generator: sketchtool 47.1 (45422) - http://www.bohemiancoding.com/sketch -->
    <title>img/icon-trezor-white</title>
    <desc>Created with sketchtool.</desc>
    <defs></defs>
    <g id="Img-Assets" stroke="none" stroke-width="1" fill="none" fill-rule="evenodd">
        <g id="img/icon-trezor-white" stroke="#FFFFFF">
            <g id="icon-trezor-white" transform="translate(-3.000000, -3.000000)">
                <g transform="translate(2.000000, 3.000000)">
                    <path d="M51.7684211,18.8789474 C51.7684211,17.5736842 50.7052632,16.5105263 49.4,16.5105263 L11.0736842,16.5105263 C9.76842105,16.5105263 8.70526316,17.5736842 8.70526316,18.8789474 L8.70526316,36.3157895 C8.70526316,37.6210526 9.76842105,38.6842105 11.0736842,38.6842105 L49.4,38.6842105 C50.7052632,38.6842105 51.7684211,37.6210526 51.7684211,36.3157895 L51.7684211,18.8789474 Z" id="Rectangle-211" stroke-width="3"></path>
                    <path d="M28.2789474,47.1 C28.2789474,45.7894737 27.2157895,44.7315789 25.9105263,44.7315789 L11.0736842,44.7315789 C9.76842105,44.7315789 8.70526316,45.7894737 8.70526316,47.1 L8.70526316,52.4421053 C8.70526316,53.7473684 9.76842105,54.8105263 11.0736842,54.8105263 L25.9105263,54.8105263 C27.2157895,54.8105263 28.2789474,53.7473684 28.2789474,52.4421053 L28.2789474,47.1 Z" id="Rectangle-211-Copy" stroke-width="3"></path>
                    <path d="M51.7684211,47.1 C51.7684211,45.7894737 50.7052632,44.7315789 49.4,44.7315789 L34.5631579,44.7315789 C33.2526316,44.7315789 32.1947368,45.7894737 32.1947368,47.1 L32.1947368,52.4421053 C32.1947368,53.7473684 33.2526316,54.8105263 34.5631579,54.8105263 L49.4,54.8105263 C50.7052632,54.8105263 51.7684211,53.7473684 51.7684211,52.4421053 L51.7684211,47.1 Z" id="Rectangle-211-Copy-2" stroke-width="3"></path>
                    <path d="M0.952631579,7.71052632 C0.863157895,3.76315789 3.95263158,0.563157895 7.87894737,0.563157895 L52.4578947,0.563157895 C56.3736842,0.563157895 59.5421053,3.71578947 59.5421053,7.66315789 L59.5421053,59.2736842 C59.5421053,61.9105263 58.6578947,65.9315789 57.5105263,68.3578947 L47.3842105,89.8263158 C46.2631579,92.2105263 43.2210526,94.1421053 40.6052632,94.1421053 L21.7473684,94.1421053 C19.1263158,94.1421053 16.0736842,92.1842105 14.9736842,89.8526316 L4.22631579,67.1263158 C3.10526316,64.7578947 2.15263158,60.7684211 2.09473684,58.0578947 L0.952631579,7.71052632 L0.952631579,7.71052632 Z" id="Path-394" stroke-width="3"></path>
                </g>
            </g>
        </g>
    </g>
</svg>