<?xml version="1.0" encoding="UTF-8"?>
<svg width="99px" height="99px" viewBox="0 0 99 99" version="1.1" xmlns="http://www.w3.org/2000/svg" xmlns:xlink="http://www.w3.org/1999/xlink">
    <!-- Generator: sketchtool 47.1 (45422) - http://www.bohemiancoding.com/sketch -->
    <title>img/icon-update</title>
    <desc>Created with sketchtool.</desc>
    <defs></defs>
    <g id="Img-Assets" stroke="none" stroke-width="1" fill="none" fill-rule="evenodd">
        <g id="img/icon-update">
            <g id="icon-update">
                <g>
                    <path d="M49.1489362,98.0851064 C76.1702128,98.0851064 98.0851064,76.1702128 98.0851064,49.1489362 C98.0851064,22.1276596 76.1702128,0.212765957 49.1489362,0.212765957 C22.1276596,0.212765957 0.212765957,22.1276596 0.212765957,49.1489362 C0.212765957,76.1702128 22.1276596,98.0851064 49.1489362,98.0851064 Z" id="Oval-87" fill-rule="nonzero"></path>
                    <path d="M71.4893617,37.4468085 L41.7021277,37.4468085 C34.6808511,37.4468085 28.9361702,43.1914894 28.9361702,50.212766 L28.9361702,52.3404255" id="Shape" stroke="#FFFEFE" stroke-width="5"></path>
                    <path d="M28.9361702,62.9787234 L58.7234043,62.9787234 C65.7446809,62.9787234 71.4893617,57.2340426 71.4893617,50.212766 L71.4893617,48.0851064" id="Shape_1_" stroke="#FFFEFE" stroke-width="5"></path>
                    <polyline id="Shape_2_" stroke="#FFFEFE" stroke-width="5" points="62.9787234 45.9574468 71.4893617 37.4468085 62.9787234 28.9361702"></polyline>
                    <polyline id="Shape_3_" stroke="#FFFEFE" stroke-width="5" points="37.4468085 54.4680851 28.9361702 62.9787234 37.4468085 71.4893617"></polyline>
                </g>
            </g>
        </g>
    </g>
</svg>