<?xml version="1.0" encoding="UTF-8"?>
<svg width="100px" height="101px" viewBox="0 0 100 101" version="1.1" xmlns="http://www.w3.org/2000/svg" xmlns:xlink="http://www.w3.org/1999/xlink">
    <!-- Generator: sketchtool 47.1 (45422) - http://www.bohemiancoding.com/sketch -->
    <title>img/icon-read-only-white</title>
    <desc>Created with sketchtool.</desc>
    <defs></defs>
    <g id="Img-Assets" stroke="none" stroke-width="1" fill="none" fill-rule="evenodd">
        <g id="img/icon-read-only-white" stroke="#FFFFFF">
            <g id="icon-read-only-white" transform="translate(0.000000, 1.000000)">
                <g>
                    <path d="M39.0371145,63.0514071 L16.4482626,84.8726767" id="Line" stroke-width="3"></path>
                    <path d="M85.5306738,15.7902654 L66.4507698,35.6377518" id="Line-Copy" stroke-width="3"></path>
                    <circle id="Oval-146" stroke-width="3" cx="50.0025766" cy="49.3445795" r="49.3445795"></circle>
                    <path d="M68.8851024,74.7241415 L77.9206431,74.7241415 L77.9206431,65.0416385 L54.5751743,41.6632733 C54.3065205,41.4384813 54.1749349,41.1533793 54.1749349,40.8024845 C54.1749349,40.6599335 54.2078313,40.506417 54.2681414,40.3364524 L54.235245,40.3090387 C54.9754137,38.3133246 55.3482394,36.246335 55.3482394,34.1080699 C55.3482394,30.8403622 54.5422779,27.8248601 52.9248723,25.0560809 C51.3129493,22.2927845 49.1198569,20.1051748 46.3565605,18.4877691 C43.593264,16.8758462 40.5722792,16.0698847 37.3045715,16.0698847 C34.0368638,16.0698847 31.0213617,16.8758462 28.2525825,18.4877691 C25.4892861,20.1051748 23.2961936,22.2927845 21.6842707,25.0560809 C20.0723478,27.8248601 19.2609036,30.8403622 19.2609036,34.1080699 C19.2609036,37.3812603 20.0723478,40.3967624 21.6842707,43.1600589 C23.2961936,45.928838 25.4892861,48.1164477 28.2525825,49.7283707 C31.0213617,51.3457763 34.0368638,52.1517378 37.3045715,52.1517378 C39.4044575,52.1517378 41.4659644,51.7789121 43.5055403,51.0387434 L43.532954,51.0716398 C43.7412977,50.9893988 43.8948142,50.9510197 43.9989861,50.9510197 C44.32795,50.9510197 44.613052,51.0935707 44.8597749,51.3786727 L44.8926713,51.3786727 L54.7012771,61.1872786 L60.9899696,61.1872786 C61.2970026,61.1872786 61.5656564,61.2969332 61.7904484,61.5107597 C62.0207231,61.7245862 62.1303777,61.9877573 62.1303777,62.300273 L62.1303777,67.9420032 L67.7775907,67.9420032 C68.0846236,67.9420032 68.3477947,68.0516578 68.5616212,68.2819325 C68.7754477,68.5067245 68.8851024,68.7753783 68.8851024,69.0824113 L68.8851024,74.7241415 Z M32.8032493,34.1080699 C34.0587947,34.1080699 35.1224445,33.6749341 35.9941988,32.7976972 C36.865953,31.9259429 37.3045715,30.8622931 37.3045715,29.6067477 C37.3045715,28.3512023 36.865953,27.2875525 35.9941988,26.4157982 C35.1224445,25.5385612 34.0587947,25.1054255 32.8032493,25.1054255 C31.5477039,25.1054255 30.4840541,25.5385612 29.6122998,26.4157982 C28.7350629,27.2875525 28.3019271,28.3512023 28.3019271,29.6067477 C28.3019271,30.8622931 28.7350629,31.9259429 29.6122998,32.7976972 C30.4840541,33.6749341 31.5477039,34.1080699 32.8032493,34.1080699 L32.8032493,34.1080699 Z" id="Key" stroke-width="3" stroke-linejoin="round"></path>
                </g>
            </g>
        </g>
        <g id="Text" transform="translate(-239.000000, -1231.000000)"></g>
    </g>
</svg>