<?xml version="1.0" encoding="UTF-8"?>
<svg width="93px" height="97px" viewBox="0 0 93 97" version="1.1" xmlns="http://www.w3.org/2000/svg" xmlns:xlink="http://www.w3.org/1999/xlink">
    <!-- Generator: sketchtool 47.1 (45422) - http://www.bohemiancoding.com/sketch -->
    <title>img/icon-camera-toggle</title>
    <desc>Created with sketchtool.</desc>
    <defs></defs>
    <g id="Img-Assets" stroke="none" stroke-width="1" fill="none" fill-rule="evenodd">
        <g id="img/icon-camera-toggle">
            <g id="icon-camera-toggle" transform="translate(1.000000, 0.000000)">
                <g>
                    <path d="M0.380952381,41.3333333 C0.380952381,18.952381 20.8571429,0.857142857 45.6190476,0.857142857 C63.2380952,0.857142857 78.4761905,9.9047619 86.0952381,23.2380952" id="top-arrow-line" stroke="#FFFFFF" stroke-width="5" opacity="0.8"></path>
                    <path d="M90.8571429,55.1428571 C90.8571429,77.5238095 70.3809524,95.6190476 45.6190476,95.6190476 C28,95.6190476 12.7619048,86.5714286 5.14285714,73.2380952" id="bottom-arrow-line" stroke="#FFFFFF" stroke-width="5" opacity="0.8"></path>
                    <polyline id="top-arrow-head" stroke="#FFFFFF" stroke-width="5" opacity="0.8" points="88 8 85.6190476 22.2857143 69.4285714 20.3809524"></polyline>
                    <polyline id="bottom-arrow-head" stroke="#FFFFFF" stroke-width="5" opacity="0.8" points="2.76190476 87.5238095 4.66666667 73.2380952 20.8571429 75.1428571"></polyline>
                    <g id="camera" opacity="0.5" transform="translate(24.000000, 32.000000)" fill-rule="nonzero" fill="#FFFFFF">
                        <path d="M39.2015198,5.20372881 L32.2817955,5.20372881 L28.1402123,1.04074576 C28.1402123,1.04074576 28.1197094,1.02033898 28.109458,1.02033898 L28.0889551,0.999932203 L28.0889551,0.999932203 C27.4738685,0.387728814 26.6435016,0 25.7003688,0 L17.0891562,0 C16.0845148,0 15.1926392,0.428542373 14.5673012,1.11216949 L14.5673012,1.12237288 L10.517981,5.20372881 L3.44448501,5.20372881 C1.53771652,5.20372881 0,6.69342373 0,8.59125424 L0,29.2123051 C0,31.1101356 1.53771652,32.6508475 3.44448501,32.6508475 L39.2015198,32.6508475 C41.0980369,32.6508475 42.6460048,31.1101356 42.6460048,29.2123051 L42.6460048,8.59125424 C42.6460048,6.69342373 41.0980369,5.20372881 39.2015198,5.20372881 L39.2015198,5.20372881 Z M21.3230024,27.4981356 C16.1050177,27.4981356 11.8506687,23.2535254 11.8506687,18.0497966 C11.8506687,12.8358644 16.1050177,8.60145763 21.3230024,8.60145763 C26.5512386,8.60145763 30.7953362,12.8358644 30.7953362,18.0497966 C30.7953362,23.2535254 26.5512386,27.4981356 21.3230024,27.4981356 L21.3230024,27.4981356 Z M38.5556789,10.6625424 C37.7663178,10.6625424 37.1204768,10.0197288 37.1204768,9.22386441 C37.1204768,8.428 37.7663178,7.78518644 38.5556789,7.78518644 C39.34504,7.78518644 39.990881,8.428 39.990881,9.22386441 C39.990881,10.0197288 39.34504,10.6625424 38.5556789,10.6625424 L38.5556789,10.6625424 Z" id="Shape"></path>
                        <path d="M21.3230024,10.9074237 C17.3659453,10.9074237 14.1674949,14.1010847 14.1674949,18.0497966 C14.1674949,21.9883051 17.3659453,25.1921695 21.3230024,25.1921695 C25.2698081,25.1921695 28.4785099,21.9985085 28.4785099,18.0497966 C28.4785099,14.1010847 25.2698081,10.9074237 21.3230024,10.9074237 L21.3230024,10.9074237 Z" id="Shape"></path>
                    </g>
                </g>
            </g>
        </g>
        <g id="Text" transform="translate(10.000000, -2430.000000)"></g>
    </g>
</svg>