<?xml version="1.0" encoding="UTF-8"?>
<svg width="100px" height="92px" viewBox="0 0 100 92" version="1.1" xmlns="http://www.w3.org/2000/svg" xmlns:xlink="http://www.w3.org/1999/xlink">
    <!-- Generator: sketchtool 47.1 (45422) - http://www.bohemiancoding.com/sketch -->
    <title>img/icon-positive-feedback</title>
    <desc>Created with sketchtool.</desc>
    <defs></defs>
    <g id="Img-Assets" stroke="none" stroke-width="1" fill="none" fill-rule="evenodd">
        <g id="img/icon-positive-feedback">
            <g id="icon-positive-feedback">
                <g id="Shape">
                    <path d="M49.4421189,69.9967077 C48.8865895,69.9967077 48.8865895,69.9967077 48.3310601,69.4411783 L1.11105885,39.4425893 C0.555529426,39.4425893 0,38.3315304 0,37.776001 C0,37.2204716 0.555529426,36.1094127 1.11105885,36.1094127 L49.4421189,5.55529426 L97.773179,35.5538833 C98.3287084,36.1094127 98.8842379,36.6649421 98.8842379,37.2204716 C98.8842379,37.776001 98.3287084,38.8870598 97.773179,38.8870598 L50.5531778,68.8856488 C50.5531778,69.9967077 49.9976484,69.9967077 49.4421189,69.9967077 Z" fill="#CCCBCB" fill-rule="nonzero"></path>
                    <path d="M49.4421189,37.776001 L48.3310601,36.6649421 C46.6644718,34.9983538 30.5541184,21.6656476 30.5541184,11.6661179 C30.5541184,4.99976484 35.5538833,0 41.664707,0 C44.4423541,0 47.2200012,1.11105885 49.4421189,3.33317656 C51.6642366,1.11105885 54.4418838,0 57.2195309,0 C63.3303546,0 68.3301194,4.99976484 68.3301194,11.6661179 C68.3301194,21.6656476 52.2197661,34.9983538 50.5531778,36.6649421 L49.4421189,37.776001 Z" fill="#E86C60" fill-rule="nonzero"></path>
                    <path d="M97.2176496,91.1068259 C96.6621201,91.1068259 96.6621201,91.1068259 97.2176496,91.1068259 L47.7755306,63.3303546 L98.8842379,37.776001 L98.8842379,88.8847082 C98.8842379,89.4402376 98.3287084,89.995767 98.3287084,90.5512965 C97.773179,90.5512965 97.773179,91.1068259 97.2176496,91.1068259 Z" fill="#DCDCDC" fill-rule="nonzero"></path>
                    <path d="M97.2176496,91.1068259 L2.2221177,91.1068259 C1.11105885,91.1068259 0,89.995767 0,88.8847082 L0,37.776001 L98.3287084,87.2181199 C99.4397673,87.7736493 99.4397673,88.8847082 99.4397673,89.4402376 C98.8842379,90.5512965 97.773179,91.1068259 97.2176496,91.1068259 Z" fill="#EEEEEE" fill-rule="nonzero"></path>
                </g>
            </g>
        </g>
        <g id="Text" transform="translate(0.000000, -3026.000000)"></g>
    </g>
</svg>