<?xml version="1.0" encoding="UTF-8"?>
<svg width="104px" height="104px" viewBox="0 0 104 104" version="1.1" xmlns="http://www.w3.org/2000/svg" xmlns:xlink="http://www.w3.org/1999/xlink">
    <!-- Generator: sketchtool 47.1 (45422) - http://www.bohemiancoding.com/sketch -->
    <title>img/icon-touch-id</title>
    <desc>Created with sketchtool.</desc>
    <defs></defs>
    <g id="Img-Assets" stroke="none" stroke-width="1" fill="none" fill-rule="evenodd" stroke-linecap="round">
        <g id="img/icon-touch-id" stroke="#FFFFFF">
            <g id="touch-id" transform="translate(2.000000, 2.000000)">
                <g id="Shape">
                    <path d="M5.54291045,27.2712687 C0.575746269,36.9708955 -1.26492537,48.3567164 1.05671642,59.8697761" stroke-width="2.98507463"></path>
                    <path d="M71.9682836,5.16231343 C62.4373134,0.483955224 51.3447761,-1.20335821 40.1320896,1.05746269 C27.3947761,3.62537313 16.7764925,10.8287313 9.67761194,20.5563433" stroke-width="2.98507463"></path>
                    <path d="M98.941791,40.1324627 C96.3074627,27.0679104 88.7966418,16.2309701 78.686194,9.13619403" stroke-width="2.98507463"></path>
                    <path d="M99.9541045,51.005597 C100.022761,47.4257463 99.705597,43.7828358 98.9686567,40.1272388" stroke-width="2.98507463"></path>
                    <path d="M37.1097015,98.2425373 C48.2951493,85.5115672 53.6205224,67.891791 50.0123134,49.9985075" stroke-width="2.98507463"></path>
                    <path d="M41.4835821,79.230597 C39.0376866,85.4985075 35.3481343,91.2197761 30.6552239,96.0313433" stroke-width="2.98507463"></path>
                    <path d="M44.0996269,99.5880597 C54.9395522,85.716791 59.8839552,67.3742537 56.1313433,48.7652985 L56.1507463,48.7589552 C55.4656716,45.3619403 52.1570896,43.1634328 48.7600746,43.8485075 C45.3634328,44.5335821 43.1652985,47.8421642 43.85,51.2395522 L43.894403,51.2320896 C45.2921642,58.1652985 45.1817164,65.0529851 43.7884328,71.5548507" stroke-width="2.98507463"></path>
                    <path d="M38.25,55.2776119 C40.2070896,69.7182836 34.8115672,83.6664179 24.7567164,93.0735075" stroke-width="2.98507463"></path>
                    <path d="M63.6171642,60.9828358 C63.6048507,56.5462687 63.1593284,52.0462687 62.2492537,47.5317164 L62.2630597,47.5264925 C60.8977612,40.7533582 54.3003731,36.369403 47.5272388,37.7354478 C42.4679104,38.755597 38.7414179,42.6951493 37.75,47.4470149" stroke-width="2.98507463"></path>
                    <path d="M51.594403,99.9059701 C57.8421642,90.7757463 61.8951493,80.1526119 63.1783582,68.8992537" stroke-width="2.98507463"></path>
                    <path d="M51.4664179,31.3052239 C49.7764925,31.1735075 48.0395522,31.2705224 46.2951493,31.6223881 C36.1455224,33.6690299 29.5768657,43.5548507 31.6235075,53.7052239 L31.6585821,53.6992537 C34.4264925,67.4276119 29.3104478,80.9149254 19.4276119,89.4738806" stroke-width="2.98507463"></path>
                    <path d="M59.5552239,99.0014925 C68.5507463,83.6664179 72.158209,65.0958955 68.3675373,46.2977612 L68.3764925,46.2940299 C67.2485075,40.7014925 63.7406716,36.1958955 59.1201493,33.6197761" stroke-width="2.98507463"></path>
                    <path d="M24.0511194,72.3850746 C22.1003731,77.4078358 18.8731343,81.8708955 14.6873134,85.2996269" stroke-width="2.98507463"></path>
                    <path d="M75.0313433,74.2761194 C76.5843284,64.8485075 76.4865672,54.986194 74.486194,45.0645522 L74.4899254,45.0619403 C71.7623134,31.5358209 58.5880597,22.7824627 45.0626866,25.5097015 C31.5365672,28.2373134 22.7828358,41.4119403 25.5104478,54.9384328 L25.5395522,54.9324627 C26.1873134,58.1451493 26.3171642,61.3421642 25.986194,64.436194" stroke-width="2.98507463"></path>
                    <path d="M67.9126866,96.6078358 C70.1768657,91.9600746 72.0048507,87.0854478 73.3537313,82.0477612" stroke-width="2.98507463"></path>
                    <path d="M75.2485075,31.6261194 C77.816791,35.1511194 79.6839552,39.2738806 80.6029851,43.8294776 L80.6048507,43.8309701 C83.9985075,60.6608209 82.3074627,77.3343284 76.5958955,92.2660448" stroke-width="2.98507463"></path>
                    <path d="M36.9664179,21.6238806 C39.1156716,20.638806 41.4115672,19.8839552 43.8294776,19.3966418 C53.3850746,17.4701493 62.8003731,20.1287313 69.7951493,25.8574627" stroke-width="2.98507463"></path>
                    <path d="M10.5503731,80.6156716 C17.6033582,74.9496269 21.3324627,65.6462687 19.4201493,56.1664179 L19.3966418,56.1716418 C17.0212687,44.3929104 21.6130597,32.8276119 30.3350746,25.7447761" stroke-width="2.98507463"></path>
                    <path d="M12.5686567,51.4835821 C12.6488806,53.4425373 12.8835821,55.4208955 13.2835821,57.4041045 L13.3026119,57.3992537 C14.7026119,64.3421642 12.0731343,71.1608209 7.0261194,75.4376866" stroke-width="2.98507463"></path>
                    <path d="M87.5708955,47.4462687 C87.3313433,45.8320896 87.0488806,44.2156716 86.7231343,42.5977612 L86.7156716,42.5973881 C82.6268657,22.3182836 62.8753731,9.19514925 42.5970149,13.2835821 C27.0130597,16.4261194 15.6541045,28.8190299 13.0865672,43.5929104" stroke-width="2.98507463"></path>
                    <path d="M85.4414179,85.1708955 C87.9884328,75.6175373 89.0473881,65.5574627 88.4007463,55.3093284" stroke-width="2.98507463"></path>
                    <path d="M55.8537313,6.69067164 C51.1552239,6.05597015 46.2735075,6.18097015 41.3649254,7.17089552 C17.7093284,11.9402985 2.4,34.9813433 7.16977612,58.6365672 L7.18432836,58.6328358 C8.01231343,62.7373134 6.72723881,66.7757463 4.08246269,69.6291045" stroke-width="2.98507463"></path>
                    <path d="M94.0686567,73.4686567 C95.366791,63.0414179 95.0328358,52.2313433 92.8414179,41.363806 L92.8291045,41.3645522 C89.5854478,25.2779851 77.8921642,13.0518657 63.3033582,8.37462687" stroke-width="2.98507463"></path>
                </g>
            </g>
        </g>
    </g>
</svg>