<?xml version="1.0" encoding="UTF-8"?>
<svg width="97px" height="96px" viewBox="0 0 97 96" version="1.1" xmlns="http://www.w3.org/2000/svg" xmlns:xlink="http://www.w3.org/1999/xlink">
    <!-- Generator: sketchtool 47.1 (45422) - http://www.bohemiancoding.com/sketch -->
    <title>img/icon-tx-moved-outline</title>
    <desc>Created with sketchtool.</desc>
    <defs></defs>
    <g id="Img-Assets" stroke="none" stroke-width="1" fill="none" fill-rule="evenodd">
        <g id="img/icon-tx-moved-outline" stroke="#FFFFFF">
            <g id="icon-tx-moved-outline">
                <g transform="translate(-0.970000, -0.960000)" id="Group-2">
                    <g transform="translate(49.470000, 48.960000) rotate(90.000000) translate(-49.470000, -48.960000) " stroke-width="3">
                        <g id="Received" transform="translate(49.800515, 48.984658) scale(-1, 1) translate(-49.800515, -48.984658) translate(0.815515, 0.504658)">
                            <path d="M49.315515,94.9553417 C75.276358,94.9553417 96.315515,74.1330831 96.315515,48.4553416 C96.315515,22.7776003 75.2763579,1.95534171 49.315515,1.95534171 C23.3546722,1.95534171 2.31551503,22.7776003 2.31551503,48.4553416 C2.31551503,74.1330831 23.3546721,94.9553417 49.315515,94.9553417 Z" id="Oval-204"></path>
                            <path d="M33.5353031,50.4025972 L69.4398708,50.4025972 M46.7455017,66.6872215 L30.6242846,50.6343072 L46.1849913,34.8342868" id="Line" stroke-linecap="round" stroke-linejoin="round" transform="translate(50.032078, 50.760754) scale(-1, 1) rotate(90.000000) translate(-50.032078, -50.760754) "></path>
                        </g>
                    </g>
                </g>
            </g>
        </g>
        <g id="Text" transform="translate(-439.000000, -1533.000000)"></g>
    </g>
</svg>