<?xml version="1.0" encoding="UTF-8"?>
<svg width="122px" height="28px" viewBox="0 0 122 28" version="1.1" xmlns="http://www.w3.org/2000/svg" xmlns:xlink="http://www.w3.org/1999/xlink">
    <!-- Generator: sketchtool 47.1 (45422) - http://www.bohemiancoding.com/sketch -->
    <title>img/icon-text-auditable-white</title>
    <desc>Created with sketchtool.</desc>
    <defs></defs>
    <g id="Img-Assets" stroke="none" stroke-width="1" fill="none" fill-rule="evenodd">
        <g id="img/icon-text-auditable-white">
            <g id="icon-text-auditable-white">
                <g>
                    <rect id="Rectangle" stroke="#FBFBFB" x="0.87718749" y="0.87718749" width="120.122813" height="26.3199997" rx="2"></rect>
                    <path d="M19.1328125,23 L16.0390625,23 L14.8085938,19.0976562 L9.18359375,19.0976562 L8.0234375,23 L5,23 L10.484375,5.8203125 L13.4960938,5.8203125 L19.1328125,23 Z M13.8945312,16.203125 L11.9609375,9.828125 L10.0507812,16.203125 L13.8945312,16.203125 Z M20.609375,5.8203125 L23.4453125,5.8203125 L23.4453125,15.125 C23.4453125,16.5703197 23.4804684,17.5117166 23.5507812,17.9492188 C23.6757819,18.707035 23.974607,19.2929667 24.4472656,19.7070312 C24.9199242,20.1210958 25.5429649,20.328125 26.3164062,20.328125 C26.9726595,20.328125 27.5078104,20.1816421 27.921875,19.8886719 C28.3359396,19.5957017 28.6191399,19.1894557 28.7714844,18.6699219 C28.9238289,18.150388 29,17.0351648 29,15.3242188 L29,5.8203125 L31.8476562,5.8203125 L31.8476562,14.84375 C31.8476562,17.148449 31.7246106,18.814448 31.4785156,19.8417969 C31.2324206,20.8691458 30.6777387,21.7011687 29.8144531,22.3378906 C28.9511676,22.9746126 27.8125071,23.2929688 26.3984375,23.2929688 C24.9296802,23.2929688 23.7832072,23.0292995 22.9589844,22.5019531 C22.1347615,21.9746067 21.5371112,21.2324267 21.1660156,20.2753906 C20.79492,19.3183546 20.609375,17.5547004 20.609375,14.984375 L20.609375,5.8203125 Z M34.8242188,5.8203125 L40.015625,5.8203125 C41.3281316,5.8203125 42.318356,5.96679541 42.9863281,6.25976562 C43.6543002,6.55273584 44.2695284,7.04687152 44.8320312,7.7421875 C45.3945341,8.43750348 45.8359359,9.3398382 46.15625,10.4492188 C46.4765641,11.5585993 46.6367188,12.9374918 46.6367188,14.5859375 C46.6367188,16.0703199 46.4687517,17.3613226 46.1328125,18.4589844 C45.7968733,19.5566461 45.3710963,20.425778 44.8554688,21.0664062 C44.3398412,21.7070345 43.7168005,22.1894515 42.9863281,22.5136719 C42.2558557,22.8378922 41.316412,23 40.1679688,23 L34.8242188,23 L34.8242188,5.8203125 Z M37.6601562,8.7265625 L37.6601562,20.1054688 L39.7929688,20.1054688 C40.7070358,20.1054688 41.3691386,20.0195321 41.7792969,19.8476562 C42.1894552,19.6757804 42.5253893,19.4160174 42.7871094,19.0683594 C43.0488294,18.7207014 43.2656241,18.1718787 43.4375,17.421875 C43.6093759,16.6718713 43.6953125,15.6835999 43.6953125,14.4570312 C43.6953125,13.1835874 43.6074228,12.1796912 43.4316406,11.4453125 C43.2558585,10.7109338 42.9824237,10.1328146 42.6113281,9.7109375 C42.2402325,9.28906039 41.7890652,9.01171941 41.2578125,8.87890625 C40.859373,8.77734324 40.0898495,8.7265625 38.9492188,8.7265625 L37.6601562,8.7265625 Z M48.9570312,23 L48.9570312,5.8203125 L51.7929688,5.8203125 L51.7929688,23 L48.9570312,23 Z M57.6875,23 L57.6875,8.7265625 L53.5039062,8.7265625 L53.5039062,5.8203125 L64.6953125,5.8203125 L64.6953125,8.7265625 L60.5234375,8.7265625 L60.5234375,23 L57.6875,23 Z M77.796875,23 L74.703125,23 L73.4726562,19.0976562 L67.8476562,19.0976562 L66.6875,23 L63.6640625,23 L69.1484375,5.8203125 L72.1601562,5.8203125 L77.796875,23 Z M72.5585938,16.203125 L70.625,9.828125 L68.7148438,16.203125 L72.5585938,16.203125 Z M79.296875,5.8203125 L84.9335938,5.8203125 C86.4726639,5.8203125 87.5546844,5.96093609 88.1796875,6.2421875 C88.8046906,6.52343891 89.3320291,7.0195277 89.7617188,7.73046875 C90.1914084,8.4414098 90.40625,9.24608926 90.40625,10.1445312 C90.40625,10.9726604 90.2226581,11.7206998 89.8554688,12.3886719 C89.4882794,13.056644 89.0117217,13.5507796 88.4257812,13.8710938 C89.2617229,14.1679702 89.9160133,14.6757777 90.3886719,15.3945312 C90.8613305,16.1132848 91.0976562,16.9882761 91.0976562,18.0195312 C91.0976562,19.2695375 90.796878,20.3261676 90.1953125,21.1894531 C89.593747,22.0527387 88.8828166,22.5859365 88.0625,22.7890625 C87.4921846,22.9296882 86.1679791,23 84.0898438,23 L79.296875,23 L79.296875,5.8203125 Z M82.1328125,8.6796875 L82.1328125,12.6523438 L84.0078125,12.6523438 C85.1328181,12.6523438 85.8281237,12.6328127 86.09375,12.59375 C86.5781274,12.5156246 86.9570299,12.3105485 87.2304688,11.9785156 C87.5039076,11.6464827 87.640625,11.1953154 87.640625,10.625 C87.640625,10.117185 87.529298,9.70507971 87.3066406,9.38867188 C87.0839833,9.07226404 86.8144547,8.87500039 86.4980469,8.796875 C86.181639,8.71874961 85.273445,8.6796875 83.7734375,8.6796875 L82.1328125,8.6796875 Z M82.1328125,15.5117188 L82.1328125,20.1054688 L84.7695312,20.1054688 C85.925787,20.1054688 86.6679671,20.0449225 86.9960938,19.9238281 C87.3242204,19.8027338 87.5996083,19.5644549 87.8222656,19.2089844 C88.044923,18.8535138 88.15625,18.4023465 88.15625,17.8554688 C88.15625,17.2929659 88.0371106,16.8300799 87.7988281,16.4667969 C87.5605457,16.1035138 87.2441426,15.8535163 86.8496094,15.7167969 C86.4550762,15.5800774 85.6484436,15.5117188 84.4296875,15.5117188 L82.1328125,15.5117188 Z M93.5820312,23 L93.5820312,5.9609375 L96.4179688,5.9609375 L96.4179688,20.1054688 L103.496094,20.1054688 L103.496094,23 L93.5820312,23 Z M105.535156,23 L105.535156,5.8203125 L115.988281,5.8203125 L115.988281,8.7265625 L108.371094,8.7265625 L108.371094,12.5351562 L115.449219,12.5351562 L115.449219,15.4296875 L108.371094,15.4296875 L108.371094,20.1054688 L116.246094,20.1054688 L116.246094,23 L105.535156,23 Z" id="AUDITABLE" fill="#FFFFFF"></path>
                </g>
            </g>
        </g>
    </g>
</svg>