<?xml version="1.0" encoding="UTF-8"?>
<svg width="100px" height="100px" viewBox="0 0 100 100" version="1.1" xmlns="http://www.w3.org/2000/svg" xmlns:xlink="http://www.w3.org/1999/xlink">
    <!-- Generator: sketchtool 47.1 (45422) - http://www.bohemiancoding.com/sketch -->
    <title>img/no-screenshot</title>
    <desc>Created with sketchtool.</desc>
    <defs></defs>
    <g id="Img-Assets" stroke="none" stroke-width="1" fill="none" fill-rule="evenodd">
        <g id="img/no-screenshot">
            <g id="no-screenshot" transform="translate(2.000000, 2.000000)">
                <g>
                    <g id="camera" opacity="0.5" transform="translate(19.200000, 25.600000)" fill-rule="nonzero" fill="#FFFFFF">
                        <path d="M53.7881318,7.14 L44.2936263,7.14 L38.610989,1.428 C38.610989,1.428 38.5828571,1.4 38.5687912,1.4 L38.5406594,1.372 L38.5406594,1.372 C37.6967033,0.532 36.5573627,0 35.2632967,0 L23.447912,0 C22.0694505,0 20.8457143,0.588 19.9876923,1.526 L19.9876923,1.54 L14.4316484,7.14 L4.72615385,7.14 C2.10989011,7.14 0,9.184 0,11.788 L0,40.082 C0,42.686 2.10989011,44.8 4.72615385,44.8 L53.7881318,44.8 C56.3903297,44.8 58.5142857,42.686 58.5142857,40.082 L58.5142857,11.788 C58.5142857,9.184 56.3903297,7.14 53.7881318,7.14 L53.7881318,7.14 Z M29.2571429,37.73 C22.0975824,37.73 16.2602198,31.906 16.2602198,24.766 C16.2602198,17.612 22.0975824,11.802 29.2571429,11.802 C36.4307692,11.802 42.2540659,17.612 42.2540659,24.766 C42.2540659,31.906 36.4307692,37.73 29.2571429,37.73 L29.2571429,37.73 Z M52.9019781,14.63 C51.8189011,14.63 50.9327472,13.748 50.9327472,12.656 C50.9327472,11.564 51.8189011,10.682 52.9019781,10.682 C53.9850549,10.682 54.8712088,11.564 54.8712088,12.656 C54.8712088,13.748 53.9850549,14.63 52.9019781,14.63 L52.9019781,14.63 Z" id="Shape"></path>
                        <path d="M29.2571429,14.966 C23.8276923,14.966 19.4391209,19.348 19.4391209,24.766 C19.4391209,30.17 23.8276923,34.566 29.2571429,34.566 C34.6725275,34.566 39.0751648,30.184 39.0751648,24.766 C39.0751648,19.348 34.6725275,14.966 29.2571429,14.966 L29.2571429,14.966 Z" id="Shape"></path>
                    </g>
                    <g id="ui-24px-outline-2_ban" stroke-width="3" stroke="#FFFFFF">
                        <g id="Group">
                            <path d="M82.0363636,13.9636364 L13.9636364,82.0363636" id="Shape"></path>
                            <circle id="Oval" cx="48" cy="48" r="48"></circle>
                        </g>
                    </g>
                </g>
            </g>
        </g>
        <g id="Text" transform="translate(0.000000, -2131.000000)"></g>
    </g>
</svg>