<?xml version="1.0" encoding="UTF-8"?>
<svg width="100px" height="100px" viewBox="0 0 100 100" version="1.1" xmlns="http://www.w3.org/2000/svg" xmlns:xlink="http://www.w3.org/1999/xlink">
    <!-- Generator: sketchtool 47.1 (45422) - http://www.bohemiancoding.com/sketch -->
    <title>img/qr-scan-guides</title>
    <desc>Created with sketchtool.</desc>
    <defs></defs>
    <g id="Img-Assets" stroke="none" stroke-width="1" fill="none" fill-rule="evenodd">
        <g id="img/qr-scan-guides">
            <g id="qr-scan-guides">
                <g>
                    <path d="M0,49.9249771 L99.0108227,49.9249771" id="line" stroke="#647CE8"></path>
                    <path d="M6.75977504,4.22747541 L27.8741312,4.22747541 C28.9875059,4.22747541 29.8623003,3.29743082 29.8623003,2.11373771 C29.8623003,0.930044591 28.9875059,0 27.8741312,0 L4.77160591,0 C3.6582312,0 2.78343678,0.930044591 2.78343678,2.11373771 L2.78343678,26.6330951 C2.78343678,27.8167882 3.6582312,28.7468328 4.77160591,28.7468328 C5.88498063,28.7468328 6.75977504,27.8167882 6.75977504,26.6330951 L6.75977504,4.22747541 Z" id="top-left" fill-opacity="0.3" fill="#FFFFFF" fill-rule="nonzero"></path>
                    <path d="M6.75977504,94.9913725 L6.75977504,72.5434781 C6.75977504,71.359785 5.88498063,70.4297404 4.77160591,70.4297404 C3.6582312,70.4297404 2.78343678,71.359785 2.78343678,72.5434781 L2.78343678,97.1051103 C2.78343678,98.2888034 3.6582312,99.218848 4.77160591,99.218848 L27.8343678,99.218848 C28.9477425,99.218848 29.822537,98.2888034 29.822537,97.1051103 C29.822537,95.9214171 28.9477425,94.9913725 27.8343678,94.9913725 L6.75977504,94.9913725 Z" id="bottom-left" fill-opacity="0.3" fill="#FFFFFF" fill-rule="nonzero"></path>
                    <path d="M92.6486815,4.22747541 L92.6486815,26.6753699 C92.6486815,27.859063 93.5234759,28.7891076 94.6368506,28.7891076 C95.7502253,28.7891076 96.6250197,27.859063 96.6250197,26.6753699 L96.6250197,2.11373771 C96.6250197,0.930044591 95.7502253,0 94.6368506,0 L71.5740887,0 C70.460714,0 69.5859196,0.930044591 69.5859196,2.11373771 C69.5859196,3.29743082 70.460714,4.22747541 71.5740887,4.22747541 L92.6486815,4.22747541 Z" id="top-right" fill-opacity="0.3" fill="#FFFFFF" fill-rule="nonzero"></path>
                    <path d="M92.6884449,95.3718453 L71.5740887,95.3718453 C70.460714,95.3718453 69.5859196,96.3018899 69.5859196,97.485583 C69.5859196,98.6692762 70.460714,99.5993208 71.5740887,99.5993208 L94.676614,99.5993208 C95.7899887,99.5993208 96.6647831,98.6692762 96.6647831,97.485583 L96.6647831,72.9662256 C96.6647831,71.7825325 95.7899887,70.8524879 94.676614,70.8524879 C93.5632393,70.8524879 92.6884449,71.7825325 92.6884449,72.9662256 L92.6884449,95.3718453 Z" id="bottom-right" fill-opacity="0.3" fill="#FFFFFF" fill-rule="nonzero"></path>
                </g>
            </g>
        </g>
        <g id="Text" transform="translate(-362.000000, -2430.000000)"></g>
    </g>
</svg>