<?xml version="1.0" encoding="UTF-8"?>
<svg width="100px" height="100px" viewBox="0 0 100 100" version="1.1" xmlns="http://www.w3.org/2000/svg" xmlns:xlink="http://www.w3.org/1999/xlink">
    <!-- Generator: sketchtool 47.1 (45422) - http://www.bohemiancoding.com/sketch -->
    <title>img/backup-warning</title>
    <desc>Created with sketchtool.</desc>
    <defs>
        <linearGradient x1="50%" y1="0%" x2="50%" y2="89.4673583%" id="linearGradient-1">
            <stop stop-color="#3950B5" offset="0%"></stop>
            <stop stop-color="#162360" offset="100%"></stop>
        </linearGradient>
        <linearGradient x1="50%" y1="0%" x2="50%" y2="100%" id="linearGradient-2">
            <stop stop-color="#9EB3F6" offset="0%"></stop>
            <stop stop-color="#647CE8" offset="100%"></stop>
        </linearGradient>
    </defs>
    <g id="Icons" stroke="none" stroke-width="1" fill="none" fill-rule="evenodd">
        <g id="img/backup-warning" fill-rule="nonzero">
            <g id="backup-warning">
                <path d="M50,100 C77.6142377,100 100,77.6142377 100,50 C100,22.3857625 77.6142377,0 50,0 C22.3857625,0 0,22.3857625 0,50 C0,77.6142377 22.3857625,100 50,100 Z" id="Oval-2" fill="url(#linearGradient-1)" opacity="0.300000012"></path>
                <path d="M64.3980118,18.7646119 C64.2669868,18.3380887 63.7752828,17.9923356 63.3044565,18.0001292 L46.6887557,21.2578599 L37.619952,18.0865675 C37.147686,18.0943611 36.6552623,18.4408227 36.5242372,18.8680544 L30.5402811,38.623449 L70.4597189,38.623449 L64.3980118,18.7646119 L64.3980118,18.7646119 Z M50.5,43.1494131 C38.5716832,43.1494131 27.6138156,45.7128035 19,50 L82,50 C73.3775452,45.7128035 62.4283168,43.1494131 50.5,43.1494131 L50.5,43.1494131 Z" id="Shape" fill="url(#linearGradient-2)"></path>
                <path d="M63.3211163,53 C58.4705064,53 54.4535498,56.5054416 53.7603999,61.0553417 C51.6060139,60.5890279 49.3759725,60.5862145 47.2208666,61.0447917 C46.4772794,56.551862 42.4877028,53.1055009 37.6781631,53.1055009 C32.3419156,53.1055009 28,57.3438219 28,62.5527506 C28,67.761679 32.3411951,72 37.6781631,72 C42.5489481,72 46.5795947,68.4657216 47.2482469,63.8883912 C49.3867807,63.3278301 51.6377172,63.3362703 53.7726485,63.9144146 C54.4982227,68.4277414 58.4978863,71.8944991 63.3218367,71.8944991 C68.6580842,71.8944991 73,67.6568818 73,62.4472498 C72.9985591,57.238321 68.6573638,53 63.3211163,53 Z M37.6774426,69.4630561 C33.7671246,69.4630561 30.5975117,66.3690681 30.5975117,62.552047 C30.5975117,58.7350263 33.7671246,55.6410379 37.6774426,55.6410379 C41.5877606,55.6410379 44.7573735,58.7350263 44.7573735,62.552047 C44.7573735,66.3690681 41.5877606,69.4630561 37.6774426,69.4630561 Z M63.3211163,69.3582588 C59.4107984,69.3582588 56.2411855,66.2642705 56.2411855,62.4472498 C56.2411855,58.6302287 59.4107984,55.5362407 63.3211163,55.5362407 C67.2314345,55.5362407 70.401047,58.6302287 70.401047,62.4472498 C70.4003266,66.2642705 67.2307137,69.3582588 63.3211163,69.3582588 Z" id="Combined-Shape" fill="#647CE8" opacity="0.400000006"></path>
            </g>
        </g>
        <g id="Text" transform="translate(-2079.000000, -548.000000)"></g>
    </g>
</svg>