<?xml version="1.0" encoding="UTF-8"?>
<svg width="93px" height="97px" viewBox="0 0 93 97" version="1.1" xmlns="http://www.w3.org/2000/svg" xmlns:xlink="http://www.w3.org/1999/xlink">
    <!-- Generator: sketchtool 47.1 (45422) - http://www.bohemiancoding.com/sketch -->
    <title>img/icon-camera-toggle</title>
    <desc>Created with sketchtool.</desc>
    <defs></defs>
    <g id="Icons" stroke="none" stroke-width="1" fill="none" fill-rule="evenodd">
        <g id="img/icon-camera-toggle">
            <g id="icon-camera-toggle" transform="translate(1.000000, 0.000000)">
                <path d="M0.380952381,41.3333333 C0.380952381,18.952381 20.8571429,0.857142857 45.6190476,0.857142857 C63.2380952,0.857142857 78.4761905,9.9047619 86.0952381,23.2380952" id="top-arrow-line" stroke="#FFFFFF" stroke-width="5" opacity="0.8"></path>
                <path d="M90.8571429,55.1428571 C90.8571429,77.5238095 70.3809524,95.6190476 45.6190476,95.6190476 C28,95.6190476 12.7619048,86.5714286 5.14285714,73.2380952" id="bottom-arrow-line" stroke="#FFFFFF" stroke-width="5" opacity="0.8"></path>
                <polyline id="top-arrow-head" stroke="#FFFFFF" stroke-width="5" opacity="0.8" points="88 8 85.6190476 22.2857143 69.4285714 20.3809524"></polyline>
                <polyline id="bottom-arrow-head" stroke="#FFFFFF" stroke-width="5" opacity="0.8" points="2.76190476 87.5238095 4.66666667 73.2380952 20.8571429 75.1428571"></polyline>
                <path d="M67.5238095,59.4285714 C67.5238095,63.2380952 64.1904762,66.5714286 60.3809524,66.5714286 L31.3333333,66.5714286 C27.5238095,66.5714286 24.1904762,63.2380952 24.1904762,59.4285714 L24.1904762,42.7619048 C24.1904762,38.952381 27.5238095,35.6190476 31.3333333,35.6190476 L36.0952381,35.6190476 L39.9047619,30.3809524 L51.8095238,30.3809524 L55.6190476,35.6190476 L60.3809524,35.6190476 C64.1904762,35.6190476 67.5238095,38.952381 67.5238095,42.7619048 L67.5238095,59.4285714 Z M46.0952381,59.4285714 C51.3333333,59.4285714 56.0952381,55.6190476 56.0952381,50.3809524 C56.0952381,45.1428571 51.8095238,41.3333333 46.0952381,41.3333333 C40.3809524,41.3333333 36.0952381,45.6190476 36.0952381,50.3809524 C36.0952381,55.1428571 40.3809524,59.4285714 46.0952381,59.4285714 Z" id="camera" fill="#FFFFFF" fill-rule="nonzero" opacity="0.386"></path>
            </g>
        </g>
        <g id="Text" transform="translate(-2910.000000, -548.000000)"></g>
    </g>
</svg>