<?xml version="1.0" encoding="UTF-8"?>
<svg width="55px" height="82px" viewBox="0 0 55 82" version="1.1" xmlns="http://www.w3.org/2000/svg" xmlns:xlink="http://www.w3.org/1999/xlink">
    <!-- Generator: sketchtool 47.1 (45422) - http://www.bohemiancoding.com/sketch -->
    <title>img/icon-bitcoin-white</title>
    <desc>Created with sketchtool.</desc>
    <defs></defs>
    <g id="Icons" stroke="none" stroke-width="1" fill="none" fill-rule="evenodd">
        <g id="img/icon-bitcoin-white" fill-rule="nonzero" fill="#FFFFFF" opacity="0.229999989">
            <g id="icon-bitcoin-white" transform="translate(-15.000000, -7.000000)">
                <g id="Symbols">
                    <g id="Button/Slide-to-complete">
                        <g id="Imported-Layers-+-Imported-Layers" transform="translate(39.105787, 48.248893) rotate(-13.000000) translate(-39.105787, -48.248893) translate(9.105787, 6.248893)">
                            <path d="M53.8330868,45.7781571 C56.2906984,43.9353161 58.1719532,41.2649626 58.9256182,38.0004811 C61.2980211,27.7244753 56.6935776,20.167225 46.6471026,17.8478134 L46.6535326,17.8492979 L49.4939861,5.51660658 C49.5988463,5.06240711 49.5455061,5.21461316 49.6698197,4.67615053 L44.0577524,3.39565576 C43.6245484,3.29564274 43.2830747,3.20165413 43.2830747,3.20165413 L40.2237884,16.3648745 L33.7940445,14.8804513 L36.6344982,2.54775995 C36.7393584,2.09356047 36.7135524,2.19800463 36.8260045,1.71092197 L30.4042976,0.228354132 C30.2351926,0.960827816 30.337025,0.598580368 30.2185858,1.03275987 L27.3643005,13.3960279 L12.8660876,10.037595 C12.8660876,10.037595 12.8032239,10.4235595 12.6969239,10.8748287 L11.3454724,16.6241037 L12.9778237,17.0009616 C16.5286497,17.8207345 18.7277318,21.4300771 17.8892297,25.0620287 L11.8247195,51.3706445 C11.0311032,54.8081737 10.30853,57.7711411 6.08901053,56.7969882 C5.74662658,56.7179426 3.36770474,56.1830124 2.27103158,55.9298255 L0.967158947,61.5775182 C0.884147895,61.9077432 0.712362895,62.6811613 0.712362895,62.6811613 C0.712362895,62.6811613 1.52725526,62.8476466 1.77480053,62.9047968 L15.2177876,66.008355 L12.1746824,79.1601579 L18.6044263,80.6445813 L18.7942187,79.8225008 L21.6475318,67.4927784 L28.0772758,68.9772018 L25.0404355,82.2192055 L30.6021642,83.5032318 L31.4271808,83.6937018 L34.5070197,70.461625 L37.7154618,71.2023524 C47.7619368,73.5217639 55.2132637,68.7478074 57.5856666,58.4718016 C58.6969947,53.6581095 57.0861374,48.9272861 53.8330868,45.7781571 L53.8330868,45.7781571 Z M31.50361,24.7451418 L41.1482261,26.9717768 C44.6990521,27.7915495 46.8981342,31.4008924 46.0596321,35.0328437 C45.22113,38.6647953 41.6623763,40.9448368 38.1115503,40.1250639 L28.4669342,37.8984289 L31.50361,24.7451418 L31.50361,24.7451418 Z M36.7846429,60.5978692 L23.925155,57.6290226 L26.9618305,44.4757353 L39.8213184,47.4445818 C43.3721447,48.2643547 45.5712268,51.8736976 44.7327247,55.5056489 C43.8942226,59.1376005 40.3354689,61.4176421 36.7846429,60.5978692 L36.7846429,60.5978692 Z" id="Imported-Layers"></path>
                        </g>
                    </g>
                </g>
            </g>
        </g>
        <g id="Text" transform="translate(-2079.000000, -837.000000)"></g>
    </g>
</svg>