<?xml version="1.0" encoding="UTF-8"?>
<svg width="100px" height="101px" viewBox="0 0 100 101" version="1.1" xmlns="http://www.w3.org/2000/svg" xmlns:xlink="http://www.w3.org/1999/xlink">
    <!-- Generator: sketchtool 47.1 (45422) - http://www.bohemiancoding.com/sketch -->
    <title>img/icon-read-only-white</title>
    <desc>Created with sketchtool.</desc>
    <defs></defs>
    <g id="Icons" stroke="none" stroke-width="1" fill="none" fill-rule="evenodd">
        <g id="img/icon-read-only-white" stroke="#FFFFFF" stroke-width="3">
            <g id="icon-read-only-white" transform="translate(0.000000, 1.000000)">
                <path d="M39.0371145,63.0514071 L16.4482626,84.8726767" id="Line"></path>
                <path d="M85.5306738,15.7902654 L66.4507698,35.6377518" id="Line-Copy"></path>
                <circle id="Oval-146" cx="50.0025766" cy="49.3445795" r="49.3445795"></circle>
                <path d="M79.0336375,76.977544 L67.7775907,76.977544 C67.465075,76.977544 67.2019039,76.8678894 66.9716292,76.6540629 C66.7468372,76.4402364 66.6316999,76.1660998 66.6316999,75.8371359 L66.6316999,70.1899229 L60.9899696,70.1899229 C60.6829367,70.1899229 60.4197656,70.0857511 60.2059391,69.8664418 C59.9866299,69.6526153 59.882458,69.3894442 59.882458,69.0824113 L59.882458,63.440681 L54.235245,63.440681 C54.0707631,63.440681 53.928212,63.4077846 53.8021092,63.3474746 L53.7746956,63.3474746 C53.6102136,63.2652336 53.4950763,63.1829927 53.4347662,63.1007517 L43.6864704,53.3853523 C41.77848,54.0652109 39.6511804,54.3996575 37.3045715,54.3996575 C34.5522405,54.3996575 31.9260123,53.8678326 29.425887,52.7987 C26.9257616,51.7295675 24.7710483,50.293092 22.9507816,48.478308 C21.1305149,46.6690067 19.6830739,44.5142934 18.6139413,42.0032026 C17.5448088,39.4975945 17.0129839,36.8658836 17.0129839,34.1080699 C17.0129839,31.3557389 17.5448088,28.7295107 18.6139413,26.2293854 C19.6830739,23.72926 21.1305149,21.5745467 22.9507816,19.75428 C24.7710483,17.9340133 26.9257616,16.492055 29.425887,15.4174397 C31.9260123,14.3483072 34.5522405,13.8164823 37.3045715,13.8164823 C40.0623852,13.8164823 42.6940961,14.3483072 45.1997042,15.4174397 C47.710795,16.492055 49.8709911,17.9340133 51.6912578,19.75428 C53.5115245,21.5745467 54.9534828,23.72926 56.0226153,26.2293854 C57.0917479,28.7295107 57.6290555,31.3557389 57.6290555,34.1080699 C57.6290555,36.3121278 57.2781607,38.4394274 56.5818539,40.4954516 L79.8341163,63.7751276 C79.9163572,63.8409204 79.9985982,63.950575 80.0808392,64.1150569 C80.1411492,64.2630907 80.1740456,64.4166072 80.1740456,64.5810891 L80.1740456,75.8371359 C80.1740456,76.1660998 80.064391,76.4402364 79.8505645,76.6540629 C79.6312552,76.8678894 79.3626014,76.977544 79.0336375,76.977544 L79.0336375,76.977544 Z M68.8851024,74.7241415 L77.9206431,74.7241415 L77.9206431,65.0416385 L54.5751743,41.6632733 C54.3065205,41.4384813 54.1749349,41.1533793 54.1749349,40.8024845 C54.1749349,40.6599335 54.2078313,40.506417 54.2681414,40.3364524 L54.235245,40.3090387 C54.9754137,38.3133246 55.3482394,36.246335 55.3482394,34.1080699 C55.3482394,30.8403622 54.5422779,27.8248601 52.9248723,25.0560809 C51.3129493,22.2927845 49.1198569,20.1051748 46.3565605,18.4877691 C43.593264,16.8758462 40.5722792,16.0698847 37.3045715,16.0698847 C34.0368638,16.0698847 31.0213617,16.8758462 28.2525825,18.4877691 C25.4892861,20.1051748 23.2961936,22.2927845 21.6842707,25.0560809 C20.0723478,27.8248601 19.2609036,30.8403622 19.2609036,34.1080699 C19.2609036,37.3812603 20.0723478,40.3967624 21.6842707,43.1600589 C23.2961936,45.928838 25.4892861,48.1164477 28.2525825,49.7283707 C31.0213617,51.3457763 34.0368638,52.1517378 37.3045715,52.1517378 C39.4044575,52.1517378 41.4659644,51.7789121 43.5055403,51.0387434 L43.532954,51.0716398 C43.7412977,50.9893988 43.8948142,50.9510197 43.9989861,50.9510197 C44.32795,50.9510197 44.613052,51.0935707 44.8597749,51.3786727 L44.8926713,51.3786727 L54.7012771,61.1872786 L60.9899696,61.1872786 C61.2970026,61.1872786 61.5656564,61.2969332 61.7904484,61.5107597 C62.0207231,61.7245862 62.1303777,61.9877573 62.1303777,62.300273 L62.1303777,67.9420032 L67.7775907,67.9420032 C68.0846236,67.9420032 68.3477947,68.0516578 68.5616212,68.2819325 C68.7754477,68.5067245 68.8851024,68.7753783 68.8851024,69.0824113 L68.8851024,74.7241415 Z M32.8032493,22.8246094 C34.6728606,22.8191266 36.2683353,23.4825371 37.5841908,24.809358 C38.9000462,26.1361789 39.557974,27.7371364 39.557974,29.6067477 C39.557974,31.476359 38.9000462,33.0718337 37.5841908,34.3876892 C36.2683353,35.7035446 34.6728606,36.3614723 32.8032493,36.3614723 C30.933638,36.3614723 29.3381633,35.7035446 28.0223078,34.3876892 C26.7064524,33.0718337 26.0485246,31.476359 26.0485246,29.6067477 C26.0485246,27.7371364 26.7064524,26.1361789 28.0223078,24.809358 C29.3381633,23.4825371 30.933638,22.8191266 32.8032493,22.8191266 L32.8032493,22.8246094 Z M32.8032493,34.1080699 C34.0587947,34.1080699 35.1224445,33.6749341 35.9941988,32.7976972 C36.865953,31.9259429 37.3045715,30.8622931 37.3045715,29.6067477 C37.3045715,28.3512023 36.865953,27.2875525 35.9941988,26.4157982 C35.1224445,25.5385612 34.0587947,25.1054255 32.8032493,25.1054255 C31.5477039,25.1054255 30.4840541,25.5385612 29.6122998,26.4157982 C28.7350629,27.2875525 28.3019271,28.3512023 28.3019271,29.6067477 C28.3019271,30.8622931 28.7350629,31.9259429 29.6122998,32.7976972 C30.4840541,33.6749341 31.5477039,34.1080699 32.8032493,34.1080699 L32.8032493,34.1080699 Z" id="Key" stroke-linejoin="round"></path>
            </g>
        </g>
        <g id="Text" transform="translate(-264.000000, -1137.000000)"></g>
    </g>
</svg>