<?xml version="1.0" encoding="UTF-8"?>
<svg width="100px" height="100px" viewBox="0 0 100 100" version="1.1" xmlns="http://www.w3.org/2000/svg" xmlns:xlink="http://www.w3.org/1999/xlink">
    <!-- Generator: sketchtool 47.1 (45422) - http://www.bohemiancoding.com/sketch -->
    <title>img/icon-bitcoin</title>
    <desc>Created with sketchtool.</desc>
    <defs>
        <linearGradient x1="60.5014224%" y1="68.2727694%" x2="26.0079671%" y2="8.59685882%" id="linearGradient-1">
            <stop stop-color="#FFA24B" offset="0%"></stop>
            <stop stop-color="#F7891C" offset="100%"></stop>
        </linearGradient>
    </defs>
    <g id="Icons" stroke="none" stroke-width="1" fill="none" fill-rule="evenodd">
        <g id="img/icon-bitcoin" fill-rule="nonzero">
            <g id="icon-bitcoin">
                <path d="M50,100 C77.6470588,100 100,77.6470588 100,50 C100,22.3529412 77.4509804,0 50,0 C22.5490196,0 0,22.3529412 0,50 C0,77.6470588 22.3529412,100 50,100 Z" id="coin" fill="url(#linearGradient-1)"></path>
                <path d="M65.6862745,37.4509804 C64.5098039,31.5686275 59.2156863,30 52.9411765,29.8039216 L51.9607843,21.5686275 L47.0588235,21.9607843 L48.0392157,30.1960784 C46.6666667,30.3921569 45.4901961,30.3921569 44.1176471,30.5882353 L43.1372549,22.3529412 L38.2352941,22.745098 L39.2156863,31.1764706 C38.2352941,31.1764706 37.0588235,31.372549 36.0784314,31.5686275 L36.0784314,31.5686275 L29.4117647,32.1568627 L30,37.6470588 C30,37.6470588 33.5294118,37.254902 33.5294118,37.4509804 C35.4901961,37.254902 36.2745098,38.4313725 36.4705882,39.4117647 L37.4509804,49.0196078 C37.6470588,49.0196078 37.8431373,49.0196078 38.0392157,49.0196078 C37.8431373,49.0196078 37.6470588,49.0196078 37.4509804,49.0196078 L39.0196078,62.3529412 C39.0196078,62.9411765 38.627451,64.1176471 37.4509804,64.1176471 C37.4509804,64.1176471 33.9215686,64.5098039 33.9215686,64.5098039 L33.7254902,70.5882353 L40,70 C41.1764706,70 42.3529412,69.8039216 43.5294118,69.8039216 L44.5098039,78.2352941 L49.4117647,77.8431373 L48.4313725,69.4117647 C49.8039216,69.4117647 51.1764706,69.2156863 52.3529412,69.2156863 L53.3333333,77.4509804 L58.2352941,77.0588235 L57.254902,68.627451 C65.4901961,67.4509804 70.9803922,64.7058824 70.7843137,56.6666667 C70.5882353,50.1960784 67.4509804,47.4509804 62.5490196,46.6666667 C65.0980392,44.7058824 66.6666667,41.9607843 65.6862745,37.4509804 L65.6862745,37.4509804 Z M60.7843137,56.2745098 C61.5686275,62.5490196 50.9803922,62.745098 47.6470588,63.1372549 L46.4705882,51.9607843 C50,51.5686275 60.1960784,49.6078431 60.7843137,56.2745098 L60.7843137,56.2745098 Z M46.0784314,46.6666667 L45.0980392,36.4705882 C47.8431373,36.2745098 56.4705882,34.5098039 57.0588235,40.5882353 C57.4509804,46.2745098 48.8235294,46.4705882 46.0784314,46.6666667 Z" id="Bitcoin_Symbol" fill="#FFFFFF"></path>
            </g>
        </g>
        <g id="Text" transform="translate(-2179.000000, -837.000000)"></g>
    </g>
</svg>