<?xml version="1.0" encoding="UTF-8"?>
<svg width="73px" height="96px" viewBox="0 0 73 96" version="1.1" xmlns="http://www.w3.org/2000/svg" xmlns:xlink="http://www.w3.org/1999/xlink">
    <!-- Generator: sketchtool 47.1 (45422) - http://www.bohemiancoding.com/sketch -->
    <title>img/icon-lock-white</title>
    <desc>Created with sketchtool.</desc>
    <defs></defs>
    <g id="Icons" stroke="none" stroke-width="1" fill="none" fill-rule="evenodd">
        <g id="img/icon-lock-white" fill="#FFFFFF">
            <g id="icon-lock-white">
                <path d="M65.7631579,36.5473684 C67.6789474,36.5473684 69.3052632,37.2210526 70.6368421,38.5736842 C71.9736842,39.9210526 72.6421053,41.5526316 72.6421053,43.4684211 L72.6421053,88.2473684 C72.6421053,90.1315789 71.9736842,91.7473684 70.6368421,93.1 C69.3052632,94.4473684 67.6789474,95.1210526 65.7631579,95.1210526 L7.18947368,95.1210526 C5.27368421,95.1210526 3.65263158,94.4473684 2.31578947,93.1 C0.984210526,91.7473684 0.315789474,90.1315789 0.315789474,88.2473684 L0.315789474,43.4684211 C0.315789474,41.5526316 0.984210526,39.9210526 2.31578947,38.5736842 C3.65263158,37.2210526 5.27368421,36.5473684 7.18947368,36.5473684 L14.1105263,36.5473684 L14.1105263,22.8 C14.1105263,16.6157895 16.2947368,11.3315789 20.6578947,6.95263158 C25.0210526,2.57368421 30.2947368,0.384210526 36.4789474,0.384210526 C42.6631579,0.384210526 47.9368421,2.57368421 52.3,6.95263158 C56.6631579,11.3315789 58.8421053,16.6157895 58.8421053,22.8 L58.8421053,36.5473684 L65.7631579,36.5473684 Z M17.5473684,22.8 L17.5473684,36.5473684 L55.4052632,36.5473684 L55.4052632,22.8 C55.4052632,17.5894737 53.5526316,13.1315789 49.8526316,9.42631579 C46.1473684,5.72105263 41.6894737,3.86842105 36.4789474,3.86842105 C31.2684211,3.86842105 26.8105263,5.72105263 23.1052632,9.42631579 C19.4,13.1315789 17.5473684,17.5894737 17.5473684,22.8 L17.5473684,22.8 Z M69.2,88.2473684 L69.2,43.4684211 C69.2,42.4947368 68.8631579,41.6789474 68.1894737,41.0210526 C67.5157895,40.3631579 66.7052632,40.0315789 65.7631579,40.0315789 L7.18947368,40.0315789 C6.24736842,40.0315789 5.44210526,40.3631579 4.76315789,41.0210526 C4.08947368,41.6789474 3.75263158,42.4947368 3.75263158,43.4684211 L3.75263158,88.2473684 C3.75263158,89.1894737 4.08947368,90 4.76315789,90.6736842 C5.44210526,91.3473684 6.24736842,91.6842105 7.18947368,91.6842105 L65.7631579,91.6842105 C66.7052632,91.6842105 67.5157895,91.3473684 68.1894737,90.6736842 C68.8631579,90 69.2,89.1894737 69.2,88.2473684 Z M36.4789474,57.2210526 C37.9210526,57.2210526 39.1473684,57.7210526 40.1526316,58.7263158 C41.1526316,59.7315789 41.6578947,60.9526316 41.6578947,62.4 C41.6578947,63.4947368 41.3368421,64.4947368 40.6894737,65.3894737 C40.0473684,66.2842105 39.2263158,66.9 38.2210526,67.2473684 L38.2210526,72.7105263 C38.2210526,73.2105263 38.0473684,73.6263158 37.7,73.9578947 C37.3578947,74.2894737 36.9473684,74.4526316 36.4789474,74.4526316 C36.0052632,74.4526316 35.6,74.2894737 35.2526316,73.9578947 C34.9105263,73.6263158 34.7368421,73.2105263 34.7368421,72.7105263 L34.7368421,67.2473684 C33.7315789,66.9 32.9052632,66.2842105 32.2631579,65.3894737 C31.6210526,64.4947368 31.3,63.4947368 31.3,62.4 C31.3,60.9526316 31.8,59.7315789 32.8052632,58.7263158 C33.8105263,57.7210526 35.0315789,57.2210526 36.4789474,57.2210526 Z" id="lock"></path>
            </g>
        </g>
        <g id="Text" transform="translate(-146.000000, -1137.000000)"></g>
    </g>
</svg>