<?xml version="1.0" encoding="UTF-8"?>
<svg width="70px" height="94px" viewBox="0 0 70 94" version="1.1" xmlns="http://www.w3.org/2000/svg" xmlns:xlink="http://www.w3.org/1999/xlink">
    <!-- Generator: sketchtool 47.1 (45422) - http://www.bohemiancoding.com/sketch -->
    <title>img/icon-lock-green</title>
    <desc>Created with sketchtool.</desc>
    <defs></defs>
    <g id="Icons" stroke="none" stroke-width="1" fill="none" fill-rule="evenodd">
        <g id="img/icon-lock-green" fill-rule="nonzero" fill="#0EC286">
            <g id="icon-lock-green">
                <path d="M59,30.5 L59,24 C59,10.5 49,0.5 35.5,0.5 C22,0.5 12,10.5 12,24 L12,31 L0.5,31 L0.5,93.5 L70,93.5 L70,30.5 L59,30.5 Z M21,24 C21,16 27.5,9.5 35.5,9.5 C43.5,9.5 50,16 50,24 L50,31 L21,31 L21,24 Z M61,84 L10,84 L10,40 L12,40 L59,40 L61.5,40 L61.5,84 L61,84 Z" id="Shape"></path>
                <path d="M35.5,46 C29,46 23.5,51.5 23.5,58 C23.5,63 27,67.5 31,69 L31,72.5 L40.5,72.5 L40.5,69 C45,67 48,63 48,58 C47.5,51.5 42,46 35.5,46 Z M35.5,55.5 C37,55.5 38.5,57 38.5,58.5 C38.5,60.5 37,61.5 35.5,61.5 C34,61.5 32.5,60 32.5,58.5 C32.5,57 34,55.5 35.5,55.5 Z" id="Shape"></path>
            </g>
        </g>
        <g id="Text" transform="translate(-2910.000000, -256.000000)"></g>
    </g>
</svg>