<?xml version="1.0" encoding="UTF-8"?>
<svg width="60px" height="95px" viewBox="0 0 60 95" version="1.1" xmlns="http://www.w3.org/2000/svg" xmlns:xlink="http://www.w3.org/1999/xlink">
    <!-- Generator: sketchtool 47.1 (45422) - http://www.bohemiancoding.com/sketch -->
    <title>img/icon-trezor-white</title>
    <desc>Created with sketchtool.</desc>
    <defs></defs>
    <g id="Icons" stroke="none" stroke-width="1" fill="none" fill-rule="evenodd">
        <g id="img/icon-trezor-white" stroke="#FFFFFF" stroke-width="0.72">
            <g id="icon-trezor-white" transform="translate(-3.000000, -3.000000)">
                <path d="M54.7684211,21.8789474 C54.7684211,20.5736842 53.7052632,19.5105263 52.4,19.5105263 L14.0736842,19.5105263 C12.7684211,19.5105263 11.7052632,20.5736842 11.7052632,21.8789474 L11.7052632,39.3157895 C11.7052632,40.6210526 12.7684211,41.6842105 14.0736842,41.6842105 L52.4,41.6842105 C53.7052632,41.6842105 54.7684211,40.6210526 54.7684211,39.3157895 L54.7684211,21.8789474 Z" id="Rectangle-211"></path>
                <path d="M31.2789474,50.1 C31.2789474,48.7894737 30.2157895,47.7315789 28.9105263,47.7315789 L14.0736842,47.7315789 C12.7684211,47.7315789 11.7052632,48.7894737 11.7052632,50.1 L11.7052632,55.4421053 C11.7052632,56.7473684 12.7684211,57.8105263 14.0736842,57.8105263 L28.9105263,57.8105263 C30.2157895,57.8105263 31.2789474,56.7473684 31.2789474,55.4421053 L31.2789474,50.1 Z" id="Rectangle-211-Copy"></path>
                <path d="M54.7684211,50.1 C54.7684211,48.7894737 53.7052632,47.7315789 52.4,47.7315789 L37.5631579,47.7315789 C36.2526316,47.7315789 35.1947368,48.7894737 35.1947368,50.1 L35.1947368,55.4421053 C35.1947368,56.7473684 36.2526316,57.8105263 37.5631579,57.8105263 L52.4,57.8105263 C53.7052632,57.8105263 54.7684211,56.7473684 54.7684211,55.4421053 L54.7684211,50.1 Z" id="Rectangle-211-Copy-2"></path>
                <path d="M3.95263158,10.7105263 C3.86315789,6.76315789 6.95263158,3.56315789 10.8789474,3.56315789 L55.4578947,3.56315789 C59.3736842,3.56315789 62.5421053,6.71578947 62.5421053,10.6631579 L62.5421053,62.2736842 C62.5421053,64.9105263 61.6578947,68.9315789 60.5105263,71.3578947 L50.3842105,92.8263158 C49.2631579,95.2105263 46.2210526,97.1421053 43.6052632,97.1421053 L24.7473684,97.1421053 C22.1263158,97.1421053 19.0736842,95.1842105 17.9736842,92.8526316 L7.22631579,70.1263158 C6.10526316,67.7578947 5.15263158,63.7684211 5.09473684,61.0578947 L3.95263158,10.7105263 L3.95263158,10.7105263 Z" id="Path-394"></path>
            </g>
        </g>
        <g id="Text" transform="translate(-695.000000, -1137.000000)"></g>
    </g>
</svg>