<?xml version="1.0" encoding="UTF-8"?>
<svg width="95px" height="101px" viewBox="0 0 95 101" version="1.1" xmlns="http://www.w3.org/2000/svg" xmlns:xlink="http://www.w3.org/1999/xlink">
    <!-- Generator: sketchtool 47.1 (45422) - http://www.bohemiancoding.com/sketch -->
    <title>img/icon-contacts</title>
    <desc>Created with sketchtool.</desc>
    <defs></defs>
    <g id="Icons" stroke="none" stroke-width="1" fill="none" fill-rule="evenodd">
        <g id="img/icon-contacts">
            <g id="icon-contacts" transform="translate(1.000000, 1.000000)">
                <path d="M0.159198006,98.5593007 L0.159198006,0.064665887 L74.8165436,0.064665887 C79.9492361,0.064665887 84.1487116,4.09399186 84.1487116,9.01872361 L84.1487116,89.6052431 C84.1487116,94.5299746 79.9492361,98.5593007 74.8165436,98.5593007 L0.159198006,98.5593007 L0.159198006,98.5593007 Z" id="Shape" stroke="#9B9BAB" stroke-width="3"></path>
                <path d="M93.4808801,13.4957524 L93.4808801,22.4498102" id="Shape" stroke="#9B9BAB" stroke-width="3"></path>
                <path d="M93.4808801,35.8808967 L93.4808801,44.8349544" id="Shape" stroke="#9B9BAB" stroke-width="3"></path>
                <g id="Group" transform="translate(21.000000, 24.000000)" fill-rule="nonzero" fill="#9B9BAB">
                    <path d="M21.0693884,27.1084954 C13.5975358,27.1084954 7.51258186,21.0286592 7.51258186,13.5516888 C7.51258186,6.07983623 13.5924181,-5.68434189e-14 21.0693884,-5.68434189e-14 C28.541241,-5.97524986e-14 34.6210773,6.07983623 34.6210773,13.5516888 C34.6210773,21.0286592 28.541241,27.1084954 21.0693884,27.1084954 Z M21.0693884,3.01944729 C15.2607907,3.01944729 10.5371469,7.7430911 10.5371469,13.5516888 C10.5371469,19.3602866 15.2607907,24.0839304 21.0693884,24.0839304 C26.8779862,24.0839304 31.60163,19.3602866 31.60163,13.5516888 C31.60163,7.7482088 26.8779862,3.01944729 21.0693884,3.01944729 Z" id="Shape"></path>
                    <path d="M7.7479964,49.9539406 C6.71421953,49.9539406 3.75618473,49.790174 1.93428094,48.0910952 C-0.138390502,46.1617195 -0.046271771,42.9836233 0.030493838,42.0522006 C0.808385343,32.7635619 10.3477917,24.9181167 20.8595624,24.9181167 C25.1737896,24.9181167 29.3293679,26.2077789 32.8708214,28.6386899 C33.3467681,28.9662231 33.8124795,29.3142272 34.2628377,29.6775844 C34.9076689,30.2047083 35.0049053,31.1566018 34.4828992,31.801433 C33.9557753,32.4462641 33.0038818,32.5435005 32.3590506,32.0214944 C31.9752226,31.7093142 31.5709237,31.4073695 31.1666249,31.1258956 C28.1267067,29.037871 24.5647825,27.9324463 20.8646801,27.9324463 C11.8575153,27.9324463 3.69988995,34.5138178 3.04482342,42.2978506 C2.94246927,43.5414534 3.19323693,45.1330604 3.99671697,45.8751279 C5.02537613,46.8372569 7.31299128,46.9549642 8.02435259,46.9191402 L33.0857651,46.9191402 C33.9199514,46.9191402 34.5954887,47.5946776 34.5954887,48.4288639 C34.5954887,49.2630502 33.9148337,49.9488229 33.0806474,49.9488229 L8.09088278,49.9488229 C8.04482342,49.9539406 7.92199844,49.9539406 7.7479964,49.9539406 Z" id="Shape"></path>
                    <path d="M14.3498387,49.9539406 C13.3160619,49.9539406 10.3580271,49.790174 8.53612329,48.0910952 C6.46345185,46.1617195 6.55557058,42.9836233 6.63233619,42.0522006 C7.41022769,32.7635619 16.949634,24.9181167 27.4614048,24.9181167 C31.775632,24.9181167 35.9312103,26.2077789 39.4726637,28.6386899 C39.9486105,28.9662231 40.4143219,29.3142272 40.8646801,29.6775844 C41.5095112,30.2047083 41.6067477,31.1566018 41.0847415,31.801433 C40.5576177,32.4462641 39.6057241,32.5435005 38.960893,32.0214944 C38.5770649,31.7093142 38.1727661,31.4073695 37.7684672,31.1258956 C34.7285491,29.037871 31.1666248,27.9324463 27.4665225,27.9324463 C18.4593577,27.9324463 10.3017323,34.5138178 9.64666577,42.2978506 C9.54431162,43.5414534 9.79507928,45.1330604 10.5985593,45.8751279 C11.6272185,46.8372569 13.9148336,46.9549642 14.6261949,46.9191402 L39.6876074,46.9191402 C40.5217937,46.9191402 41.1973311,47.5946776 41.1973311,48.4288639 C41.1973311,49.2630502 40.516676,49.9488229 39.6824897,49.9488229 L14.6927251,49.9488229 C14.6466658,49.9539406 14.5238408,49.9539406 14.3498387,49.9539406 Z" id="Shape-Copy" transform="translate(24.011092, 37.436029) scale(-1, 1) translate(-24.011092, -37.436029) "></path>
                </g>
            </g>
        </g>
        <g id="Text" transform="translate(-146.000000, -548.000000)"></g>
    </g>
</svg>