<?xml version="1.0" encoding="UTF-8"?>
<svg width="83px" height="100px" viewBox="0 0 83 100" version="1.1" xmlns="http://www.w3.org/2000/svg" xmlns:xlink="http://www.w3.org/1999/xlink">
    <!-- Generator: sketchtool 47.1 (45422) - http://www.bohemiancoding.com/sketch -->
    <title>img/icon-account</title>
    <desc>Created with sketchtool.</desc>
    <defs></defs>
    <g id="Icons" stroke="none" stroke-width="1" fill="none" fill-rule="evenodd">
        <g id="img/icon-account" fill-rule="nonzero" fill="#FFFFFF">
            <g id="icon-account">
                <path d="M42.1903787,54.2169908 C27.2466735,54.2169908 15.0767656,42.0573183 15.0767656,27.1033777 C15.0767656,12.1596725 27.2364381,5.68434189e-14 42.1903787,5.68434189e-14 C57.1340839,5.10252593e-14 69.2937564,12.1596725 69.2937564,27.1033777 C69.2937564,42.0573183 57.1340839,54.2169908 42.1903787,54.2169908 Z M42.1903787,6.03889458 C30.5731832,6.03889458 21.1258956,15.4861822 21.1258956,27.1033777 C21.1258956,38.7205732 30.5731832,48.1678608 42.1903787,48.1678608 C53.8075742,48.1678608 63.2548618,38.7205732 63.2548618,27.1033777 C63.2548618,15.4964176 53.8075742,6.03889458 42.1903787,6.03889458 Z" id="Shape"></path>
                <path d="M15.5475947,99.9078813 C13.4800409,99.9078813 7.56397134,99.580348 3.92016377,96.1821904 C-0.22517912,92.3234391 -0.0409416581,85.9672467 0.11258956,84.1044012 C1.66837257,65.5271238 20.7471853,49.8362334 41.7707267,49.8362334 C50.3991812,49.8362334 58.7103378,52.4155578 65.7932446,57.2773797 C66.7451382,57.9324463 67.6765609,58.6284545 68.5772774,59.3551689 C69.8669396,60.4094166 70.0614125,62.3132037 69.0174002,63.6028659 C67.9631525,64.8925281 66.0593654,65.087001 64.7697032,64.0429887 C64.0020471,63.4186285 63.1934493,62.814739 62.3848516,62.2517912 C56.3050154,58.0757421 49.1811668,55.8648925 41.7809621,55.8648925 C23.7666325,55.8648925 7.45138178,69.0276356 6.14124872,84.5957011 C5.93654043,87.0829069 6.43807574,90.2661208 8.04503582,91.7502559 C10.1023541,93.6745138 14.6775844,93.9099284 16.1003071,93.8382805 L66.223132,93.8382805 C67.8915046,93.8382805 69.2425793,95.1893552 69.2425793,96.8577277 C69.2425793,98.5261003 67.8812692,99.8976459 66.2128966,99.8976459 L16.2333675,99.8976459 C16.1412487,99.9078813 15.8955988,99.9078813 15.5475947,99.9078813 Z" id="Shape"></path>
                <path d="M28.7512794,99.9078813 C26.6837256,99.9078813 20.767656,99.580348 17.1238485,96.1821904 C12.9785056,92.3234391 13.162743,85.9672467 13.3162743,84.1044012 C14.8720573,65.5271238 33.95087,49.8362334 54.9744114,49.8362334 C63.6028659,49.8362334 71.9140225,52.4155578 78.9969293,57.2773797 C79.9488229,57.9324463 80.8802456,58.6284545 81.7809621,59.3551689 C83.0706243,60.4094166 83.2650972,62.3132037 82.2210849,63.6028659 C81.1668372,64.8925281 79.2630501,65.087001 77.9733879,64.0429887 C77.2057318,63.4186285 76.397134,62.814739 75.5885363,62.2517912 C69.5087001,58.0757421 62.3848515,55.8648925 54.9846468,55.8648925 C36.9703172,55.8648925 20.6550665,69.0276356 19.3449334,84.5957011 C19.1402251,87.0829069 19.6417604,90.2661208 21.2487205,91.7502559 C23.3060388,93.6745138 27.8812691,93.9099284 29.3039918,93.8382805 L79.4268167,93.8382805 C81.0951893,93.8382805 82.446264,95.1893552 82.446264,96.8577277 C82.446264,98.5261003 81.0849539,99.8976459 79.4165813,99.8976459 L29.4370522,99.8976459 C29.3449334,99.9078813 29.0992835,99.9078813 28.7512794,99.9078813 Z" id="Shape-Copy" transform="translate(48.073786, 74.872057) scale(-1, 1) translate(-48.073786, -74.872057) "></path>
            </g>
        </g>
        <g id="Text" transform="translate(-2910.000000, -837.000000)"></g>
    </g>
</svg>