<?xml version="1.0" encoding="UTF-8"?>
<svg width="73px" height="96px" viewBox="0 0 73 96" version="1.1" xmlns="http://www.w3.org/2000/svg" xmlns:xlink="http://www.w3.org/1999/xlink">
    <!-- Generator: sketchtool 47.1 (45422) - http://www.bohemiancoding.com/sketch -->
    <title>img/icon-lock</title>
    <desc>Created with sketchtool.</desc>
    <defs></defs>
    <g id="Icons" stroke="none" stroke-width="1" fill="none" fill-rule="evenodd">
        <g id="img/icon-lock" fill-rule="nonzero" fill="#9B9BAB">
            <g id="icon-lock">
                <path d="M66.0283579,36.5478211 C67.9431947,36.5478211 69.5676421,37.2227105 70.9017474,38.5725158 C72.2358526,39.9223158 72.9029,41.5546105 72.9029,43.4694474 L72.9029,88.2481474 C72.9029,90.1315895 72.2358526,91.7481895 70.9017474,93.0979947 C69.5676421,94.4477947 67.9431947,95.1226895 66.0283579,95.1226895 L7.45348947,95.1226895 C5.53865263,95.1226895 3.91420526,94.4477947 2.5801,93.0979947 C1.24598947,91.7481895 0.578947368,90.1315895 0.578947368,88.2481474 L0.578947368,43.4694474 C0.578947368,41.5546105 1.24598947,39.9223158 2.5801,38.5725158 C3.91420526,37.2227105 5.53865263,36.5478211 7.45348947,36.5478211 L14.3751158,36.5478211 L14.3751158,22.7987368 C14.3751158,16.6147579 16.5567421,11.3333421 20.9200579,6.95432632 C25.2833737,2.57531579 30.5569421,0.385847368 36.7409211,0.385847368 C42.9249053,0.385847368 48.1984737,2.57531579 52.5617895,6.95432632 C56.9251053,11.3333421 59.1067263,16.6147579 59.1067263,22.7987368 L59.1067263,36.5478211 L66.0283579,36.5478211 Z M17.8123895,22.7987368 L17.8123895,36.5478211 L55.6694579,36.5478211 L55.6694579,22.7987368 C55.6694579,17.5878684 53.8174316,13.1304474 50.1133211,9.42633684 C46.4092105,5.72223158 41.9517895,3.8702 36.7409211,3.8702 C31.5300579,3.8702 27.0726368,5.72223158 23.3685263,9.42633684 C19.6644158,13.1304474 17.8123895,17.5878684 17.8123895,22.7987368 L17.8123895,22.7987368 Z M69.4656263,88.2481474 L69.4656263,43.4694474 C69.4656263,42.4963368 69.1281842,41.6801895 68.4532789,41.0209789 C67.7783789,40.3617737 66.9700789,40.0321789 66.0283579,40.0321789 L7.45348947,40.0321789 C6.51176842,40.0321789 5.70346842,40.3617737 5.02856316,41.0209789 C4.35366316,41.6801895 4.01622105,42.4963368 4.01622105,43.4694474 L4.01622105,88.2481474 C4.01622105,89.1898684 4.35366316,89.9981684 5.02856316,90.6730684 C5.70346842,91.3479684 6.51176842,91.6854158 7.45348947,91.6854158 L66.0283579,91.6854158 C66.9700789,91.6854158 67.7783789,91.3479684 68.4532789,90.6730684 C69.1281842,89.9981684 69.4656263,89.1898684 69.4656263,88.2481474 L69.4656263,88.2481474 Z M36.7409211,57.2185316 C38.1849,57.2185316 39.4091211,57.7207789 40.4136211,58.7252842 C41.4181263,59.7297842 41.9203737,60.9540053 41.9203737,62.3979842 C41.9203737,63.4966579 41.5986211,64.4933 40.9551105,65.3879368 C40.3116,66.2825737 39.4876053,66.9025316 38.4831,67.2478316 L38.4831,72.7097947 C38.4831,73.2120474 38.3104526,73.6279684 37.9651579,73.9575737 C37.6198579,74.2871737 37.2117842,74.4519737 36.7409211,74.4519737 C36.2700632,74.4519737 35.8619895,74.2871737 35.5166895,73.9575737 C35.1713895,73.6279684 34.9987421,73.2120474 34.9987421,72.7097947 L34.9987421,67.2478316 C33.9942421,66.9025316 33.1702474,66.2825737 32.5267368,65.3879368 C31.8832263,64.4933 31.5614737,63.4966579 31.5614737,62.3979842 C31.5614737,60.9540053 32.0637158,59.7297842 33.0682211,58.7252842 C34.0727263,57.7207789 35.2969474,57.2185316 36.7409211,57.2185316 L36.7409211,57.2185316 Z" id="lock"></path>
            </g>
        </g>
        <g id="Text" transform="translate(-984.000000, -548.000000)"></g>
    </g>
</svg>