<?xml version="1.0" encoding="UTF-8"?>
<svg width="100px" height="100px" viewBox="0 0 100 100" version="1.1" xmlns="http://www.w3.org/2000/svg" xmlns:xlink="http://www.w3.org/1999/xlink">
    <!-- Generator: sketchtool 47.1 (45422) - http://www.bohemiancoding.com/sketch -->
    <title>img/icon-proposal-pending</title>
    <desc>Created with sketchtool.</desc>
    <defs></defs>
    <g id="Icons" stroke="none" stroke-width="1" fill="none" fill-rule="evenodd">
        <g id="img/icon-proposal-pending">
            <g id="icon-proposal-pending">
                <path d="M50,100 C77.6142376,100 100,77.6142376 100,50 C100,22.3857625 77.6142376,0 50,0 C22.3857625,0 0,22.3857625 0,50 C0,77.6142376 22.3857625,100 50,100 Z" id="Oval-204" fill="#FFF6EF" fill-rule="nonzero"></path>
                <g id="Group" transform="translate(24.000000, 19.000000)" fill-rule="nonzero" fill="#F6A623">
                    <path d="M25.2832661,32.5301945 C16.317043,32.5301945 9.01509824,25.234391 9.01509824,16.2620266 C9.01509824,7.29580348 16.3109017,5.68434189e-14 25.2832661,5.68434189e-14 C34.2494892,5.33525231e-14 41.5452927,7.29580348 41.5452927,16.2620266 C41.5452927,25.234391 34.2494892,32.5301945 25.2832661,32.5301945 Z M25.2832661,3.62333675 C18.3129488,3.62333675 12.6445762,9.29170931 12.6445762,16.2620266 C12.6445762,23.2323439 18.3129488,28.9007165 25.2832661,28.9007165 C32.2535834,28.9007165 37.921956,23.2323439 37.921956,16.2620266 C37.921956,9.29785056 32.2535834,3.62333675 25.2832661,3.62333675 Z" id="Shape"></path>
                    <path d="M9.29759568,59.9447288 C8.05706343,59.9447288 4.50742167,59.7482088 2.32113713,57.7093142 C-0.166068602,55.3940635 -0.0555261252,51.580348 0.0365926056,50.4626407 C0.970062411,39.3162743 12.41735,29.90174 25.0314749,29.90174 C30.2085476,29.90174 35.1952415,31.4493347 39.4449856,34.3664278 C40.0161218,34.7594678 40.5749754,35.1770727 41.1154053,35.6131013 C41.8892026,36.2456499 42.0058864,37.3879222 41.379479,38.1617195 C40.7469304,38.9355169 39.6046581,39.0522006 38.8308608,38.4257932 C38.3702671,38.0511771 37.8851085,37.6888434 37.3999498,37.3510747 C33.7520481,34.8454452 29.477739,33.5189355 25.0376161,33.5189355 C14.2290184,33.5189355 4.43986794,41.4165814 3.6537881,50.7574207 C3.53096313,52.2497441 3.83188431,54.1596725 4.79606036,55.0501535 C6.03045136,56.2047083 8.77558953,56.345957 9.62922311,56.3029683 L39.7029181,56.3029683 C40.7039416,56.3029683 41.5145865,57.1136131 41.5145865,58.1146366 C41.5145865,59.1156602 40.6978004,59.9385875 39.6967768,59.9385875 L9.70905934,59.9385875 C9.6537881,59.9447288 9.50639813,59.9447288 9.29759568,59.9447288 Z" id="Shape"></path>
                </g>
                <polyline id="Shape" stroke="#F6A623" stroke-width="5" points="61.0669136 63.6479133 66.2706812 68.8516809 79.2801 55.8422618"></polyline>
            </g>
        </g>
        <g id="Text" transform="translate(-295.000000, -1417.000000)"></g>
    </g>
</svg>