<?xml version="1.0" encoding="UTF-8"?>
<svg width="96px" height="95px" viewBox="0 0 96 95" version="1.1" xmlns="http://www.w3.org/2000/svg" xmlns:xlink="http://www.w3.org/1999/xlink">
    <!-- Generator: sketchtool 47.1 (45422) - http://www.bohemiancoding.com/sketch -->
    <title>img/icon-testnet-white</title>
    <desc>Created with sketchtool.</desc>
    <defs></defs>
    <g id="Icons" stroke="none" stroke-width="1" fill="none" fill-rule="evenodd">
        <g id="img/icon-testnet-white" fill="#FFFFFF">
            <g id="icon-testnet-white" transform="translate(-2.000000, 0.000000)">
                <path d="M70.3076051,38.2117991 C71.3865884,39.2907824 72.5287317,40.4750324 73.734035,41.7750757 C74.934075,43.0698557 76.6920283,45.0120257 79.0078949,47.6015856 C81.3184982,50.1911455 83.4448848,52.8122855 85.3923181,55.4650054 C87.334488,58.1177254 89.260868,60.9493986 91.1714579,63.9547619 C93.0873112,66.9601252 94.5978879,69.9760151 95.7084512,72.9971684 C96.8190145,76.0183216 97.3716645,78.7499916 97.3716645,81.1869148 C97.3716645,84.9186181 96.0453045,88.108198 93.3925846,90.760918 C90.7398646,93.4136379 87.5502847,94.7399979 83.8185814,94.7399979 L16.1847496,94.7399979 C12.4530464,94.7399979 9.26346646,93.4136379 6.61074652,90.760918 C3.95802658,88.108198 2.63166661,84.9186181 2.63166661,81.1869148 C2.63166661,78.7499916 3.18431659,76.0183216 4.2948799,72.9971684 C5.40544321,69.9760151 6.91601984,66.9601252 8.83187313,63.9547619 C10.7424631,60.9493986 12.668843,58.1177254 14.611013,55.4650054 C16.5584463,52.8122855 18.6848329,50.1911455 20.9954362,47.6015856 C23.3113028,45.0120257 25.0692561,43.0698557 26.2692961,41.7750757 C27.4745994,40.4750324 28.6167427,39.2907824 29.695726,38.2117991 L29.695726,10.1319164 L24.6060828,10.1319164 C24.1429095,10.1319164 23.7481595,9.96875311 23.4270961,9.64768978 C23.1007695,9.32136312 22.9376061,8.92661313 22.9376061,8.46343981 L22.9376061,1.6632133 C22.9376061,1.20530331 23.1007695,0.810553315 23.4270961,0.484226656 C23.7481595,0.16316333 24.1429095,0 24.6060828,0 L75.3972483,0 C75.8604216,0 76.2551716,0.16316333 76.5762349,0.484226656 C76.9025616,0.810553315 77.0657249,1.20530331 77.0657249,1.6632133 L77.0657249,8.46343981 C77.0657249,8.92661313 76.9025616,9.32136312 76.5762349,9.64768978 C76.2551716,9.96875311 75.8604216,10.1319164 75.3972483,10.1319164 L70.3076051,10.1319164 L70.3076051,38.2117991 Z M26.3166661,6.75285651 L73.686665,6.75285651 L73.686665,3.37905992 L26.3166661,3.37905992 L26.3166661,6.75285651 Z M66.9338085,10.1319164 L33.0695226,10.1319164 L33.0695226,21.7901995 C35.2906492,21.1112295 37.3959825,20.6638462 39.3855224,20.4480495 C41.3750624,20.2322529 42.9909057,20.2006729 44.243579,20.3533095 C45.490989,20.5059462 46.6489223,20.7796395 47.7121156,21.1638629 C48.7753089,21.5480862 49.5174389,21.8744128 49.9332422,22.1375795 C50.3490455,22.3954828 50.6964255,22.6533862 50.9753822,22.9007628 C51.2490755,23.1165595 51.6122455,23.3534095 52.0596288,23.6165761 C52.5070121,23.8797428 53.2859855,24.2165961 54.3965488,24.6323994 C55.5071121,25.0482028 56.6492554,25.3218961 57.8177154,25.4429528 C58.9914387,25.5640094 60.4125386,25.4482161 62.0757519,25.0955728 C63.7389652,24.7429294 65.3600719,24.0850128 66.9338085,23.1323495 L66.9338085,10.1319164 L66.9338085,10.1319164 Z M83.8185814,91.3609379 C86.623938,91.3609379 89.024018,90.366168 91.0135579,88.3818913 C92.9978346,86.3923514 93.9926045,83.9922714 93.9926045,81.1869148 C93.9926045,78.4078749 93.0978379,75.123555 91.3135679,71.3339551 C89.5240346,67.5390918 87.4502814,64.0073952 85.0923081,60.7388653 C82.7290715,57.4703354 80.1500382,54.1860154 77.3394183,50.8859055 C74.5340617,47.5857956 72.3550417,45.127819 70.7970951,43.5067124 C69.2391484,41.8856057 68.1180585,40.7697791 67.4390885,40.1539691 C67.1022352,39.8118524 66.9338085,39.3960491 66.9338085,38.9065591 L66.9338085,26.9693194 C64.4337252,28.1746227 61.8599553,28.7746427 59.2072353,28.7746427 C57.386122,28.7746427 55.6123787,28.4904227 53.8860055,27.9167194 C52.1596322,27.3482794 50.9438022,26.8482627 50.2332522,26.4166694 C49.5227022,25.9850761 49.0595289,25.6587494 48.8437322,25.4429528 C48.5963556,25.2587361 48.3805589,25.1060994 48.1963422,24.9797794 C48.0121256,24.8587228 47.4331589,24.6271361 46.4647056,24.2850195 C45.490989,23.9481661 44.4751657,23.7376328 43.4119724,23.6639461 C42.3435157,23.5849961 40.8803091,23.6639461 39.0170891,23.8955328 C37.1486058,24.1218561 35.1695925,24.5955561 33.0695226,25.3061061 L33.0695226,38.9065591 C33.0695226,39.3960491 32.9010959,39.8118524 32.5642426,40.1539691 C31.8852726,40.7697791 30.7641826,41.8856057 29.206236,43.5067124 C27.6482894,45.127819 25.4692694,47.5857956 22.6639128,50.8859055 C19.8532929,54.1860154 17.2742596,57.4703354 14.911023,60.7388653 C12.5530497,64.0073952 10.4792964,67.5390918 8.68976314,71.3339551 C6.90549318,75.123555 6.01072653,78.4078749 6.01072653,81.1869148 C6.01072653,83.9922714 7.00549651,86.3923514 8.98977313,88.3818913 C10.9793131,90.366168 13.379393,91.3609379 16.1847496,91.3609379 L83.8185814,91.3609379 Z M51.7122488,33.8169159 C54.5176054,33.8169159 56.9071587,34.8116859 58.8809087,36.8012258 C60.859922,38.7907658 61.8441653,41.1855824 61.8441653,43.990939 C61.8441653,46.8015589 60.859922,49.1911122 58.8809087,51.1648622 C56.9071587,53.1386121 54.5176054,54.1228554 51.7122488,54.1228554 C48.9068922,54.1228554 46.5068123,53.1386121 44.5172723,51.1648622 C42.5329957,49.1911122 41.5382257,46.8015589 41.5382257,43.990939 C41.5382257,41.1855824 42.5329957,38.7907658 44.5172723,36.8012258 C46.5068123,34.8116859 48.9068922,33.8169159 51.7122488,33.8169159 L51.7122488,33.8169159 Z M51.7122488,50.7490589 C53.5649421,50.7490589 55.1544688,50.0911422 56.4755654,48.7805722 C57.8019254,47.4700023 58.4651053,45.8752123 58.4651053,43.990939 C58.4651053,42.1119291 57.8019254,40.5066124 56.4755654,39.1802524 C55.1544688,37.8538925 53.5649421,37.1907125 51.7122488,37.1907125 C49.8332389,37.1907125 48.2279222,37.8538925 46.9015623,39.1802524 C45.5752023,40.5066124 44.9120223,42.1119291 44.9120223,43.990939 C44.9120223,45.8752123 45.5752023,47.4700023 46.9015623,48.7805722 C48.2279222,50.0911422 49.8332389,50.7490589 51.7122488,50.7490589 Z M41.5382257,57.5019154 C43.4172357,57.5019154 45.0120257,58.1650954 46.3225956,59.4914553 C47.6331656,60.8178153 48.2910822,62.4178686 48.2910822,64.3021419 C48.2910822,66.1495718 47.6331656,67.7390985 46.3225956,69.0654584 C45.0120257,70.3918184 43.4172357,71.0549984 41.5382257,71.0549984 C39.6539524,71.0549984 38.0591625,70.3918184 36.7485925,69.0654584 C35.4380225,67.7390985 34.7801059,66.1495718 34.7801059,64.3021419 C34.7801059,62.4178686 35.4380225,60.8178153 36.7485925,59.4914553 C38.0591625,58.1650954 39.6539524,57.5019154 41.5382257,57.5019154 Z M41.5382257,67.6759385 C42.490889,67.6759385 43.296179,67.3443485 43.943569,66.6811685 C44.590959,66.0179885 44.9120223,65.2284885 44.9120223,64.3021419 C44.9120223,63.3442152 44.590959,62.5336619 43.943569,61.8704819 C43.296179,61.207302 42.490889,60.875712 41.5382257,60.875712 C40.6118791,60.875712 39.8171158,61.207302 39.1539358,61.8704819 C38.4907558,62.5336619 38.1591658,63.3442152 38.1591658,64.3021419 C38.1591658,65.2284885 38.4907558,66.0179885 39.1539358,66.6811685 C39.8171158,67.3443485 40.6118791,67.6759385 41.5382257,67.6759385 Z M56.7545221,71.0549984 C58.175622,71.0549984 59.375662,71.5497517 60.3651686,72.533995 C61.349412,73.5235017 61.8441653,74.7235416 61.8441653,76.1446416 C61.8441653,77.5288983 61.349412,78.7184116 60.3651686,79.7079182 C59.375662,80.6921615 58.175622,81.1869148 56.7545221,81.1869148 C55.3702654,81.1869148 54.1807521,80.6921615 53.1912455,79.7079182 C52.2070022,78.7184116 51.7122488,77.5288983 51.7122488,76.1446416 C51.7122488,74.7235416 52.2070022,73.5235017 53.1912455,72.533995 C54.1807521,71.5497517 55.3702654,71.0549984 56.7545221,71.0549984 Z M56.7545221,77.8078549 C57.2176954,77.8078549 57.6177087,77.6446916 57.9598254,77.3236283 C58.2966787,76.9973016 58.4651053,76.6078149 58.4651053,76.1446416 C58.4651053,75.6498883 58.2966787,75.2393483 57.9598254,74.918285 C57.6177087,74.5919583 57.2176954,74.4340583 56.7545221,74.4340583 C56.2913487,74.4340583 55.9018621,74.5919583 55.5755354,74.918285 C55.2544721,75.2393483 55.0913088,75.6498883 55.0913088,76.1446416 C55.0913088,76.6078149 55.2544721,76.9973016 55.5755354,77.3236283 C55.9018621,77.6446916 56.2913487,77.8078549 56.7545221,77.8078549 Z" id="flask"></path>
            </g>
        </g>
        <g id="Text" transform="translate(-409.000000, -1137.000000)"></g>
    </g>
</svg>