<?xml version="1.0" encoding="UTF-8"?>
<svg width="400px" height="247px" viewBox="0 0 400 247" version="1.1" xmlns="http://www.w3.org/2000/svg" xmlns:xlink="http://www.w3.org/1999/xlink">
    <!-- Generator: sketchtool 47.1 (45422) - http://www.bohemiancoding.com/sketch -->
    <title>img/onboarding-tour-phone</title>
    <desc>Created with sketchtool.</desc>
    <defs>
        <linearGradient x1="50.0034413%" y1="-0.00291497976%" x2="50.0034413%" y2="75.267085%" id="linearGradient-1">
            <stop stop-color="#4054A5" offset="0%"></stop>
            <stop stop-color="#24285E" offset="100%"></stop>
        </linearGradient>
    </defs>
    <g id="Onboarding" stroke="none" stroke-width="1" fill="none" fill-rule="evenodd">
        <g id="img/onboarding-tour-phone">
            <g id="onboarding-tour-phone" transform="translate(1.000000, 0.000000)">
                <g id="Group" opacity="0.15" transform="translate(0.000000, 50.000000)" stroke="#FFFFFF" stroke-width="2">
                    <g transform="translate(0.000000, 45.000000)">
                        <polyline id="Shape" points="13 82.7 0 82.7 0 49 13 49"></polyline>
                        <polyline id="Shape_1_" points="58.3 82.7 71.3 82.7 71.3 49 58.3 49"></polyline>
                        <rect id="Rectangle-path" x="13" y="0.2" width="45.4" height="82.5"></rect>
                        <path d="M25.9,15.2 L29.1,15.2" id="Shape_2_"></path>
                        <path d="M42.1,15.2 L45.3,15.2" id="Shape_3_"></path>
                        <path d="M25.9,30.2 L29.1,30.2" id="Shape_4_"></path>
                        <path d="M42.1,30.2 L45.3,30.2" id="Shape_5_"></path>
                        <path d="M25.9,45.2 L29.1,45.2" id="Shape_6_"></path>
                        <path d="M42.1,45.2 L45.3,45.2" id="Shape_7_"></path>
                        <path d="M25.9,60.2 L29.1,60.2" id="Shape_8_"></path>
                        <path d="M42.1,60.2 L45.3,60.2" id="Shape_9_"></path>
                        <path d="M35.7,82.7 L35.7,75.2" id="Shape_10_"></path>
                    </g>
                    <g transform="translate(71.000000, 11.000000)">
                        <polyline id="Shape_11_" points="71.8 60 71.8 30.5 61.6 30.5 61.6 12.7 41.2 12.7 41.2 30.5 31 30.5 31 77.8"></polyline>
                        <path d="M41.2,131 L61.6,131" id="Shape_12_"></path>
                        <path d="M51.4,0.9 L51.4,12.7" id="Shape_13_"></path>
                        <rect id="Rectangle-path_1_" x="0.3" y="77.8" width="40.9" height="53.2"></rect>
                        <rect id="Rectangle-path_2_" x="61.6" y="60" width="40.9" height="71"></rect>
                        <path d="M76.9,77.8 L87.1,77.8" id="Shape_14_"></path>
                        <path d="M76.9,95.5 L87.1,95.5" id="Shape_15_"></path>
                        <path d="M76.9,113.2 L87.1,113.2" id="Shape_16_"></path>
                        <path d="M15.6,95.5 L25.8,95.5" id="Shape_17_"></path>
                        <path d="M15.6,113.2 L25.8,113.2" id="Shape_18_"></path>
                    </g>
                    <g transform="translate(224.000000, 56.000000)">
                        <polyline id="Shape_19_" points="13.5 83.4 0.5 83.4 0.5 49.6 13.5 49.6"></polyline>
                        <polyline id="Shape_20_" points="58.9 83.4 71.8 83.4 71.8 49.6 58.9 49.6"></polyline>
                        <rect id="Rectangle-path_3_" x="13.5" y="0.9" width="45.4" height="82.5"></rect>
                        <path d="M26.5,15.9 L29.7,15.9" id="Shape_21_"></path>
                        <path d="M42.7,15.9 L45.9,15.9" id="Shape_22_"></path>
                        <path d="M26.5,30.9 L29.7,30.9" id="Shape_23_"></path>
                        <path d="M42.7,30.9 L45.9,30.9" id="Shape_24_"></path>
                        <path d="M26.5,45.9 L29.7,45.9" id="Shape_25_"></path>
                        <path d="M42.7,45.9 L45.9,45.9" id="Shape_26_"></path>
                        <path d="M26.5,60.9 L29.7,60.9" id="Shape_27_"></path>
                        <path d="M42.7,60.9 L45.9,60.9" id="Shape_28_"></path>
                        <path d="M36.2,83.4 L36.2,75.9" id="Shape_29_"></path>
                    </g>
                    <g transform="translate(295.000000, 0.000000)">
                        <polyline id="Shape_30_" points="72.4 60 72.4 30.4 62.1 30.4 62.1 12.7 41.7 12.7 41.7 30.4 31.5 30.4 31.5 77.8"></polyline>
                        <path d="M41.7,131.1 L62.1,131.1" id="Shape_31_"></path>
                        <path d="M51.9,0.9 L51.9,12.7" id="Shape_32_"></path>
                        <rect id="Rectangle-path_4_" x="0.8" y="77.8" width="40.9" height="53.2"></rect>
                        <rect id="Rectangle-path_5_" x="62.1" y="60" width="40.9" height="71"></rect>
                        <path d="M77.5,77.8 L87.7,77.8" id="Shape_33_"></path>
                        <path d="M77.5,95.5 L87.7,95.5" id="Shape_34_"></path>
                        <path d="M77.5,113.2 L87.7,113.2" id="Shape_35_"></path>
                        <path d="M16.2,95.5 L26.4,95.5" id="Shape_36_"></path>
                        <path d="M16.2,113.2 L26.4,113.2" id="Shape_37_"></path>
                    </g>
                </g>
                <path d="M187.5,247 C255.7,247 311,191.7 311,123.5 C311,55.3 255.7,0 187.5,0 C119.3,0 64,55.3 64,123.5 C64,191.7 119.3,247 187.5,247 Z" id="Shape" fill="url(#linearGradient-1)" fill-rule="nonzero" opacity="0.3"></path>
                <g id="Group" transform="translate(133.000000, 32.000000)" stroke="#6778BA" stroke-width="2">
                    <path d="M8,0 L91.8,0 C96.2,0 99.8,3.6 99.8,8 L99.8,175.9 C99.8,180.3 96.2,183.9 91.8,183.9 L8,183.9 C3.6,183.9 0,180.3 0,175.9 L0,8 C0,3.6 3.6,0 8,0 Z" id="Shape" fill-opacity="0.6548" fill="#293881" fill-rule="nonzero"></path>
                    <path d="M0.5,156 L99.3,156" id="Shape" stroke-linecap="square"></path>
                    <path d="M44.1,170.3 L62.8,170.3" id="Shape" stroke-linecap="square"></path>
                </g>
                <g id="Group" transform="translate(166.000000, 66.000000)" fill-rule="nonzero" fill="#5BC2A7">
                    <path d="M31.8,0 L0,0 L0,31.8 L31.8,31.8 L31.8,0 L31.8,0 Z M27.3,27.3 L4.6,27.3 L4.6,4.5 L27.3,4.5 L27.3,27.3 L27.3,27.3 Z" id="Shape"></path>
                    <polygon id="Shape" points="65.9 90.9 61.4 90.9 61.4 100 100 100 100 95.5 65.9 95.5"></polygon>
                    <rect id="Rectangle-path" x="9.1" y="9.1" width="13.6" height="13.6"></rect>
                    <path d="M0,100 L31.8,100 L31.8,68.2 L0,68.2 L0,100 L0,100 Z M4.5,72.7 L27.2,72.7 L27.2,95.4 L4.5,95.4 L4.5,72.7 L4.5,72.7 Z" id="Shape"></path>
                    <rect id="Rectangle-path" x="9.1" y="77.3" width="13.6" height="13.6"></rect>
                    <path d="M68.2,0 L68.2,31.8 L100,31.8 L100,0 L68.2,0 L68.2,0 Z M95.5,27.3 L72.8,27.3 L72.8,4.5 L95.5,4.5 L95.5,27.3 L95.5,27.3 Z" id="Shape"></path>
                    <rect id="Rectangle-path" x="77.3" y="9.1" width="13.6" height="13.6"></rect>
                    <rect id="Rectangle-path" x="90.9" y="36.4" width="9.1" height="9.1"></rect>
                    <rect id="Rectangle-path" x="0" y="54.5" width="9.1" height="9.1"></rect>
                    <polygon id="Shape" points="47.7 36.4 29.5 36.4 29.5 40.9 52.3 40.9 52.3 31.8 52.3 27.3 56.8 27.3 56.8 18.2 52.3 18.2 47.7 18.2 43.2 18.2 43.2 9.1 47.7 9.1 47.7 13.6 63.6 13.6 63.6 0 59.1 0 59.1 9.1 52.3 9.1 52.3 0 50 0 40.9 0 38.6 0 38.6 22.7 47.7 22.7 47.7 27.3 38.6 27.3 38.6 31.8 47.7 31.8"></polygon>
                    <polygon id="Shape" points="6.8 50 15.9 50 20.5 50 22.7 50 22.7 54.5 13.6 54.5 13.6 59.1 22.7 59.1 22.7 63.6 40.9 63.6 40.9 59.1 27.3 59.1 27.3 54.5 27.3 45.5 20.5 45.5 20.5 38.6 15.9 38.6 15.9 45.5 11.4 45.5 11.4 36.4 0 36.4 0 40.9 6.8 40.9"></polygon>
                    <polygon id="Shape" points="50 90.9 50 79.5 40.9 79.5 40.9 70.5 36.4 70.5 36.4 84.1 45.5 84.1 45.5 90.9 36.4 90.9 36.4 95.5 45.5 95.5 45.5 100 56.8 100 56.8 95.5 50 95.5"></polygon>
                    <polygon id="Shape" points="72.7 45.5 63.6 45.5 63.6 34.1 59.1 34.1 59.1 50 81.8 50 81.8 45.5 77.3 45.5 77.3 40.9 84.1 40.9 84.1 36.4 77.3 36.4 72.7 36.4 68.2 36.4 68.2 40.9 72.7 40.9"></polygon>
                    <polygon id="Shape" points="68.2 86.4 75 86.4 75 90.9 84.1 90.9 84.1 86.4 84.1 81.8 84.1 75 75 75 75 81.8 68.2 81.8 68.2 75 63.6 75 63.6 81.8 59.1 81.8 59.1 63.6 54.5 63.6 54.5 59.1 50 59.1 50 45.5 34.1 45.5 34.1 54.5 38.6 54.5 38.6 50 45.5 50 45.5 59.1 45.5 68.2 54.5 68.2 54.5 81.8 54.5 86.4 59.1 86.4 63.6 86.4"></polygon>
                    <polygon id="Shape" points="95.5 56.8 88.6 56.8 84.1 56.8 72.7 56.8 72.7 65.9 68.2 65.9 68.2 56.8 63.6 56.8 63.6 70.5 77.3 70.5 77.3 61.4 84.1 61.4 84.1 68.2 88.6 68.2 88.6 61.4 95.5 61.4 95.5 75 88.6 75 88.6 88.6 100 88.6 100 84.1 93.2 84.1 93.2 79.5 100 79.5 100 61.4 100 56.8 100 50 95.5 50"></polygon>
                </g>
            </g>
        </g>
    </g>
</svg>