<?xml version="1.0" encoding="UTF-8"?>
<svg width="100px" height="95px" viewBox="0 0 100 95" version="1.1" xmlns="http://www.w3.org/2000/svg" xmlns:xlink="http://www.w3.org/1999/xlink">
    <!-- Generator: sketchtool 47.1 (45422) - http://www.bohemiancoding.com/sketch -->
    <title>img/qr-scan-guides</title>
    <desc>Created with sketchtool.</desc>
    <defs></defs>
    <g id="Icons" stroke="none" stroke-width="1" fill="none" fill-rule="evenodd">
        <g id="img/qr-scan-guides">
            <g id="qr-scan-guides">
                <g id="scan-line" transform="translate(0.000000, 44.578728)">
                    <path d="M0,0 L100.000931,0" id="Shape" fill="#000000" fill-rule="nonzero"></path>
                    <path d="M0,0 L100.000931,0" id="line" stroke="#647CE8" stroke-width="6"></path>
                </g>
                <path d="M6.82737279,4.01610164 L28.1528725,4.01610164 C29.277381,4.01610164 30.1609233,3.13255928 30.1609233,2.00805082 C30.1609233,0.883542362 29.277381,0 28.1528725,0 L4.81932197,0 C3.69481351,0 2.81127115,0.883542362 2.81127115,2.00805082 L2.81127115,25.3014404 C2.81127115,26.4259488 3.69481351,27.3094912 4.81932197,27.3094912 C5.94383043,27.3094912 6.82737279,26.4259488 6.82737279,25.3014404 L6.82737279,4.01610164 Z" id="top-left" fill-opacity="0.3" fill="#FFFFFF" fill-rule="nonzero"></path>
                <path d="M6.82737279,90.2418039 L6.82737279,68.9163042 C6.82737279,67.7917957 5.94383043,66.9082534 4.81932197,66.9082534 C3.69481351,66.9082534 2.81127115,67.7917957 2.81127115,68.9163042 L2.81127115,92.2498547 C2.81127115,93.3743632 3.69481351,94.2579056 4.81932197,94.2579056 L28.1127115,94.2579056 C29.23722,94.2579056 30.1207623,93.3743632 30.1207623,92.2498547 C30.1207623,91.1253463 29.23722,90.2418039 28.1127115,90.2418039 L6.82737279,90.2418039 Z" id="bottom-left" fill-opacity="0.3" fill="#FFFFFF" fill-rule="nonzero"></path>
                <path d="M93.5751683,4.01610164 L93.5751683,25.3416014 C93.5751683,26.4661098 94.4587106,27.3496522 95.5832191,27.3496522 C96.7077276,27.3496522 97.5912699,26.4661098 97.5912699,25.3416014 L97.5912699,2.00805082 C97.5912699,0.883542362 96.7077276,0 95.5832191,0 L72.2898296,0 C71.1653211,0 70.2817788,0.883542362 70.2817788,2.00805082 C70.2817788,3.13255928 71.1653211,4.01610164 72.2898296,4.01610164 L93.5751683,4.01610164 Z" id="top-right" fill-opacity="0.3" fill="#FFFFFF" fill-rule="nonzero"></path>
                <path d="M93.6153293,90.6032531 L72.2898296,90.6032531 C71.1653211,90.6032531 70.2817788,91.4867954 70.2817788,92.6113039 C70.2817788,93.7358124 71.1653211,94.6193547 72.2898296,94.6193547 L95.6233801,94.6193547 C96.7478886,94.6193547 97.6314309,93.7358124 97.6314309,92.6113039 L97.6314309,69.3179144 C97.6314309,68.1934059 96.7478886,67.3098635 95.6233801,67.3098635 C94.4988717,67.3098635 93.6153293,68.1934059 93.6153293,69.3179144 L93.6153293,90.6032531 Z" id="bottom-right" fill-opacity="0.3" fill="#FFFFFF" fill-rule="nonzero"></path>
            </g>
        </g>
    </g>
</svg>