<?xml version="1.0" encoding="UTF-8"?>
<svg width="724px" height="256px" viewBox="0 0 724 256" version="1.1" xmlns="http://www.w3.org/2000/svg" xmlns:xlink="http://www.w3.org/1999/xlink">
    <!-- Generator: sketchtool 47.1 (45422) - http://www.bohemiancoding.com/sketch -->
    <title>../img/logo</title>
    <desc>Created with sketchtool.</desc>
    <defs>
        <linearGradient x1="50%" y1="0%" x2="50%" y2="100%" id="linearGradient-1">
            <stop stop-color="#1E3186" offset="0%"></stop>
            <stop stop-color="#111B49" offset="100%"></stop>
        </linearGradient>
    </defs>
    <g id="App-Assets" stroke="none" stroke-width="1" fill="none" fill-rule="evenodd">
        <g id="../img/logo">
            <g id="app-logo">
                <g id="logo-primary">
                    <g id="prim" transform="translate(58.000000, 29.000000)">
                        <g id="wallet-full">
                            <g id="blocks" transform="translate(238.157895, 172.368421)" fill-rule="nonzero" fill="#FFFFFF">
                                <path d="M339.140451,3.94736842 L339.140451,23.6842105 L359.092611,23.6842105 L359.092611,3.94736842 L339.140451,3.94736842 Z M335.155143,0 L363.077919,0 L363.077919,27.6315789 L335.155143,27.6315789 L335.155143,0 Z" id="block"></path>
                                <path d="M283.406516,23.6842105 L303.358676,23.6842105 L303.358676,3.94736842 L283.406516,3.94736842 L283.406516,23.6842105 Z M279.421208,0 L307.343984,0 L307.343984,27.6315789 L279.421208,27.6315789 L279.421208,0 Z" id="block"></path>
                                <path d="M227.551815,23.6842105 L247.503974,23.6842105 L247.503974,3.94736842 L227.551815,3.94736842 L227.551815,23.6842105 Z M223.566506,0 L251.489283,0 L251.489283,27.6315789 L223.566506,27.6315789 L223.566506,0 Z" id="block"></path>
                                <path d="M171.81788,23.6842105 L191.770039,23.6842105 L191.770039,3.94736842 L171.81788,3.94736842 L171.81788,23.6842105 Z M167.832572,0 L195.755348,0 L195.755348,27.6315789 L167.832572,27.6315789 L167.832572,0 Z" id="block"></path>
                                <path d="M115.963178,23.6842105 L135.915338,23.6842105 L135.915338,3.94736842 L115.963178,3.94736842 L115.963178,23.6842105 Z M111.97787,0 L139.900646,0 L139.900646,27.6315789 L111.97787,27.6315789 L111.97787,0 Z" id="block"></path>
                                <path d="M60.2292435,23.6842105 L80.181403,23.6842105 L80.181403,3.94736842 L60.2292435,3.94736842 L60.2292435,23.6842105 Z M56.2439351,0 L84.1667114,0 L84.1667114,27.6315789 L56.2439351,27.6315789 L56.2439351,0 Z" id="block"></path>
                                <path d="M4.37454187,3.94736842 L4.37454187,23.6842105 L24.3267013,23.6842105 L24.3267013,3.94736842 L4.37454187,3.94736842 Z M0.389233421,0 L28.3120098,0 L28.3120098,27.6315789 L0.389233421,27.6315789 L0.389233421,0 Z" id="block"></path>
                            </g>
                            <path d="M88.2426309,94.1830147 L110.505964,94.1830147 C114.044967,102.819686 116.356387,109.154536 117.440224,113.187566 C119.065979,119.23711 120.275364,124.598399 121.068415,129.271592 L121.782158,129.271592 C123.36826,120.053238 126.064594,108.978577 129.87124,96.0472755 L146.644191,43.7141759 L175.193893,43.7141759 L138.317194,149.91676 L107.167429,149.91676 C102.206352,135.857354 95.8150509,117.505882 87.9935272,94.862343 L67.8055436,149.91676 L36.8766991,149.91676 L0,43.7141759 L28.5497026,43.7141759 L45.3226528,96.0472755 C49.1292988,108.978577 51.8256327,120.053238 53.4117352,129.271592 L54.1254778,129.271592 C54.918529,124.598399 56.127914,119.23711 57.7536691,113.187566 C59.3794242,107.138021 60.7870691,102.608933 61.976646,99.6001648 L81.9614377,43.7141759 L106.749122,43.7141759 L88.2426309,94.1830147 Z M263.67092,149.395538 L258.087759,134.609605 L257.137434,134.609605 C250.8019,141.074482 244.426865,145.475014 238.012138,147.811331 C231.59741,150.147648 223.36134,151.315789 213.303681,151.315789 C200.395031,151.315789 190.317724,148.499449 183.071458,142.866684 C175.825192,137.23392 172.202113,129.264957 172.202113,118.959558 C172.202113,108.014072 177.230867,99.7570743 187.288526,94.1883182 C197.346186,88.6195621 212.670027,85.5791948 233.260511,85.0671253 L255.949527,84.49105 L255.949527,78.8263091 C255.949527,72.0413878 253.989501,66.9687752 250.069389,63.6083189 C246.149278,60.2478626 240.071217,58.5676596 231.835023,58.5676596 C225.103519,58.5676596 218.649291,59.3677563 212.472146,60.9679736 C206.295001,62.5681908 200.355527,64.4564189 194.653547,66.6327144 L185.625457,50.5026049 C192.752932,47.4941964 200.553441,45.20592 209.027217,43.6377071 C217.500993,42.0694941 225.499484,41.2853994 233.02293,41.2853994 C249.732899,41.2853994 262.344382,44.229755 270.857755,50.1185546 C279.371128,56.0073542 283.62775,65.2564714 283.62775,77.8661835 L283.62775,149.395538 L263.67092,149.395538 Z M222.094189,134.033529 C232.231043,134.033529 240.368122,131.745253 246.50567,127.168631 C252.643218,122.59201 255.711946,116.175235 255.711946,107.918114 L255.711946,98.7009084 L238.843672,99.2769837 C225.69744,99.6610359 216.134888,101.43725 210.155728,104.605681 C204.176568,107.774111 201.187033,112.622696 201.187033,119.151583 C201.187033,123.888226 202.929279,127.552669 206.413822,130.145021 C209.898366,132.737373 215.125103,134.033529 222.094189,134.033529 Z M333.129515,149.395538 L305.21371,149.395538 L305.21371,0 L333.129515,0 L333.129515,149.395538 Z M383.581605,149.395538 L355.6658,149.395538 L355.6658,0 L383.581605,0 L383.581605,149.395538 Z M463.493778,151.315789 C443.061682,151.315789 427.084498,146.499208 415.561747,136.8659 C404.038995,127.232592 398.277706,113.966989 398.277706,97.0686949 C398.277706,79.7223396 403.623232,66.0886929 414.314445,56.1673457 C425.005658,46.2459986 439.695956,41.2853994 458.385779,41.2853994 C475.729302,41.2853994 489.429688,45.5419135 499.487347,54.0550695 C509.545007,62.5682254 514.573761,74.2816402 514.573761,89.1956652 L514.573761,101.38926 L427.025045,101.38926 C427.421016,111.694659 430.865911,119.615616 437.359833,125.152368 C443.853755,130.68912 453.000544,133.457454 464.800475,133.457454 C472.561503,133.457454 479.787863,132.865382 486.47977,131.681222 C493.171677,130.497061 500.35844,128.528823 508.040275,125.776449 L508.040275,144.114848 C501.229576,146.739204 494.339787,148.595428 487.3707,149.683576 C480.401613,150.771724 472.442719,151.315789 463.493778,151.315789 Z M458.385779,58.3756345 C449.516032,58.3756345 442.408462,60.647909 437.062856,65.192526 C431.71725,69.7371431 428.529732,76.3619433 427.500208,85.0671253 L487.133119,85.0671253 C486.97473,76.2979346 484.361362,69.6571325 479.292935,65.1445198 C474.224508,60.631907 467.255526,58.3756345 458.385779,58.3756345 Z M582.199586,133.073404 C589.010284,133.073404 595.82088,132.209299 602.631579,130.481065 L602.631579,147.475287 C599.543006,148.563435 595.563559,149.475545 590.693118,150.211645 C585.822676,150.947745 580.774124,151.315789 575.547309,151.315789 C549.096457,151.315789 535.871229,140.050429 535.871229,117.519369 L535.871229,60.2958857 L517.933839,60.2958857 L517.933839,50.3105797 L537.177926,42.0534999 L546.681179,19.5865616 L563.905824,19.5865616 L563.905824,43.2056505 L601.324882,43.2056505 L601.324882,60.2958857 L563.905824,60.2958857 L563.905824,117.135319 C563.905824,122.576058 565.588675,126.592543 568.954427,129.184895 C572.320179,131.777247 576.735188,133.073404 582.199586,133.073404 Z" id="wallet" fill="#FFFFFF"></path>
                            <path d="M88.1449697,94.0687443 L110.383663,94.0687443 C113.91875,102.736022 116.227612,109.093322 117.310249,113.140644 C118.934205,119.211627 120.142251,124.591915 120.934425,129.281669 L121.647377,129.281669 C123.231725,120.030648 125.925074,108.916739 129.727507,95.9396117 L146.481894,43.4210526 L175,43.4210526 L138.164114,150 L107.048823,150 C102.093236,135.890771 95.7090091,117.474264 87.8961418,94.75048 L67.7305008,150 L36.8358864,150 L0,43.4210526 L28.5181056,43.4210526 L45.2724927,95.9396117 C49.0749258,108.916739 51.7682755,120.030648 53.3526226,129.281669 L54.0655752,129.281669 C54.8577488,124.591915 56.0657954,119.211627 57.6897512,113.140644 C59.313707,107.069661 60.7197939,102.524523 61.9080543,99.5050918 L81.8707282,43.4210526 L106.630979,43.4210526 L88.1449697,94.0687443 Z" id="Path-Copy" fill="#EA244B"></path>
                        </g>
                    </g>
                </g>
            </g>
        </g>
    </g>
</svg>