<?xml version="1.0" encoding="UTF-8"?>
<svg width="375px" height="270px" viewBox="0 0 375 270" version="1.1" xmlns="http://www.w3.org/2000/svg" xmlns:xlink="http://www.w3.org/1999/xlink">
    <!-- Generator: sketchtool 47.1 (45422) - http://www.bohemiancoding.com/sketch -->
    <title>img/tour/currencies</title>
    <desc>Created with sketchtool.</desc>
    <defs></defs>
    <g id="Design" stroke="none" stroke-width="1" fill="none" fill-rule="evenodd">
        <g id="Multiple-currencies" transform="translate(0.000000, -64.000000)">
            <g id="exportable" transform="translate(0.000000, 64.000000)">
                <g id="graphic" transform="translate(206.195552, 145.254237) rotate(5.000000) translate(-206.195552, -145.254237) translate(49.195552, 36.254237)">
                    <g id="phone" transform="translate(77.000000, -0.000000)" stroke="#FFFFFF" stroke-width="2">
                        <rect id="Rectangle-3" x="1" y="1" width="120" height="216" rx="8"></rect>
                        <path d="M2,29 L120,29" id="Line-2" stroke-linecap="square"></path>
                        <path d="M2.34862297,190.984779 L120.348623,190.984779" id="Line-2" stroke-linecap="square"></path>
                    </g>
                    <g id="networks" transform="translate(0.000000, 36.000000)">
                        <g id="blocks3" transform="translate(178.896251, 112.998227) rotate(5.000000) translate(-178.896251, -112.998227) translate(44.396251, 102.498227)" fill-rule="nonzero">
                            <path d="M168.553236,21.2152008 L183.332292,21.6566938 L183.332292,-0.656693799 L168.553236,-0.215200809 L168.553236,21.2152008 Z M165.601219,-4.37782181 L186.284308,-5.24283064 L186.284308,26.2428306 L165.601219,25.3778218 L165.601219,-4.37782181 Z" id="block" fill="#004466"></path>
                            <path d="M127.269737,19.9819437 L142.048793,20.4234367 L142.048793,0.576563261 L127.269737,1.01805625 L127.269737,19.9819437 Z M124.317721,-2.65126193 L145.000809,-3.51627076 L145.000809,24.5162708 L124.317721,23.6512619 L124.317721,-2.65126193 Z" id="block" fill="#FFFFFF"></path>
                            <path d="M44.6132846,17.5127573 L59.3923407,17.9542503 L59.3923407,3.04574966 L44.6132846,3.48724265 L44.6132846,17.5127573 Z M41.6612685,0.80559903 L62.3443568,-0.0594097958 L62.3443568,21.0594098 L41.6612685,20.194401 L41.6612685,0.80559903 Z" id="block" fill="#FFFFFF"></path>
                            <path d="M3.24033094,4.72317199 L3.24033094,16.276828 L18.019387,16.718321 L18.019387,4.281679 L3.24033094,4.72317199 Z M0.288314785,2.53590011 L20.9714032,1.67089128 L20.9714032,19.3291087 L0.288314785,18.4640999 L0.288314785,2.53590011 Z" id="block" fill="#004466"></path>
                        </g>
                        <g id="blocks2" transform="translate(3.158313, 50.818444)" fill-rule="nonzero">
                            <path d="M251.209688,7.08432155 L251.209688,33.9156784 L265.988744,34.4206938 L265.988744,6.57930625 L251.209688,7.08432155 Z M248.257672,1.8592729 L268.94076,0.869806011 L268.94076,40.130194 L248.257672,39.1407271 L248.257672,1.8592729 Z" id="block" fill="#004466"></path>
                            <path d="M209.926189,32.5049795 L224.705245,33.0099948 L224.705245,7.99000518 L209.926189,8.49502049 L209.926189,32.5049795 Z M206.974173,3.83425142 L227.657261,2.84478452 L227.657261,38.1552155 L206.974173,37.1657486 L206.974173,3.83425142 Z" id="block" fill="#004466"></path>
                            <path d="M127.269737,29.6805249 L142.048793,30.1855402 L142.048793,10.8144598 L127.269737,11.3194751 L127.269737,29.6805249 Z M124.317721,7.78848792 L145.000809,6.79902103 L145.000809,34.200979 L124.317721,33.2115121 L124.317721,7.78848792 Z" id="block" fill="#FFFFFF"></path>
                            <path d="M85.8967832,28.2667692 L100.675839,28.7717845 L100.675839,12.2282155 L85.8967832,12.7332308 L85.8967832,28.2667692 Z M82.9447671,9.76774591 L103.627855,8.77827902 L103.627855,32.221721 L82.9447671,31.2322541 L82.9447671,9.76774591 Z" id="block" fill="#FFFFFF"></path>
                            <path d="M44.6132846,26.8560702 L59.3923407,27.3610855 L59.3923407,13.6389145 L44.6132846,14.1439298 L44.6132846,26.8560702 Z M41.6612685,11.7427244 L62.3443568,10.7532575 L62.3443568,30.2467425 L41.6612685,29.2572756 L41.6612685,11.7427244 Z" id="block" fill="#004466"></path>
                            <path d="M3.24033094,15.5576855 L3.24033094,25.4423145 L18.019387,25.9473298 L18.019387,15.0526702 L3.24033094,15.5576855 Z M0.288314785,13.7219824 L20.9714032,12.7325155 L20.9714032,28.2674845 L0.288314785,27.2780176 L0.288314785,13.7219824 Z" id="block" fill="#004466"></path>
                        </g>
                        <g id="blocks1" transform="translate(136.708354, 32.368324) rotate(-5.000000) translate(-136.708354, -32.368324) translate(2.208354, 11.868324)" fill-rule="nonzero">
                            <path d="M251.209688,6.774813 L251.209688,34.225187 L265.988744,34.8081153 L265.988744,6.19188469 L251.209688,6.774813 Z M248.257672,1.44572025 L268.94076,0.303599871 L268.94076,40.6964001 L248.257672,39.5542798 L248.257672,1.44572025 Z" id="block" fill="#004466"></path>
                            <path d="M209.926189,32.6609101 L224.705245,33.2100624 L224.705245,7.78993757 L209.926189,8.33908986 L209.926189,32.6609101 Z M206.974173,3.62626271 L227.657261,2.55031905 L227.657261,38.449681 L206.974173,37.3737373 L206.974173,3.62626271 Z" id="block" fill="#004466"></path>
                            <path d="M168.553236,31.1878998 L183.332292,31.7032029 L183.332292,9.2967971 L168.553236,9.81210019 L168.553236,31.1878998 Z M165.601219,5.67901156 L186.284308,4.669388 L186.284308,36.330612 L165.601219,35.3209884 L165.601219,5.67901156 Z" id="block" fill="#FFFFFF"></path>
                            <path d="M127.269737,29.8125258 L142.048793,30.2940529 L142.048793,10.7059471 L127.269737,11.1874742 L127.269737,29.8125258 Z M124.317721,7.59509003 L145.000809,6.65164318 L145.000809,34.3483568 L124.317721,33.40491 L124.317721,7.59509003 Z" id="block" fill="#FFFFFF"></path>
                            <path d="M85.8967832,28.5288276 L100.675839,28.9765055 L100.675839,12.0234945 L85.8967832,12.4711724 L85.8967832,28.5288276 Z M82.9447671,9.38280184 L103.627855,8.50567509 L103.627855,32.4943249 L82.9447671,31.6171982 L82.9447671,9.38280184 Z" id="block" fill="#FFFFFF"></path>
                            <path d="M44.6132846,27.3423565 L59.3923407,27.7562583 L59.3923407,13.2437417 L44.6132846,13.6576435 L44.6132846,27.3423565 Z M41.6612685,11.0344163 L62.3443568,10.2234663 L62.3443568,30.7765337 L41.6612685,29.9655837 L41.6612685,11.0344163 Z" id="block" fill="#004466"></path>
                        </g>
                        <g id="bch" transform="translate(137.507611, 110.674311) rotate(5.000000) translate(-137.507611, -110.674311) translate(118.007611, 99.174311)" fill="#FFFFFF">
                            <g transform="translate(0.000000, -4.088889)">
                                <path d="M10.4,27.0888889 L0,27.0888889 L0,4.08888889 L10.4,4.08888889 L10.4,27.0888889 Z M28.6,4.08888889 L39,4.08888889 L39,27.0888889 L28.6,27.0888889 L28.6,4.08888889 Z M10.4,4.08888889 L10.4,27.0888889 C6.91911987,24.4223652 4.68,20.2595645 4.68,15.5820646 C4.68,10.9125377 6.92928203,6.75595678 10.4,4.08888889 Z M28.6,27.0888889 C32.0810286,24.4223572 34.32,20.2611246 34.32,15.5856066 C34.32,10.9139236 32.0761367,6.75568271 28.6,4.08888889 L28.6,27.0888889 Z" id="Combined-Shape"></path>
                                <g id="btc" transform="translate(19.500000, 15.588889) rotate(-26.000000) translate(-19.500000, -15.588889) translate(7.800000, 4.088889)">
                                    <g id="Combined-Shape">
                                        <path d="M11.5,23 C5.14872538,23 7.46069873e-14,17.8512746 7.46069873e-14,11.5 C7.46069873e-14,5.14872538 5.14872538,2.23820962e-13 11.5,2.23820962e-13 C17.8512746,2.23820962e-13 23,5.14872538 23,11.5 C23,17.8512746 17.8512746,23 11.5,23 Z M15.737049,11.7661377 C16.7151077,11.5172288 17.445203,10.8497458 17.622744,9.49793696 C17.8679175,7.65113843 16.4663478,6.68930565 14.5602977,6.06749433 L15.1386102,3.56083555 L13.6309205,3.21275796 L13.067029,5.65331397 C12.6703451,5.56173227 12.2641463,5.47626371 11.8597112,5.3915027 L12.4264839,2.93504228 L10.9201876,2.58713619 L10.341361,5.0930255 C10.0133455,5.02440558 9.69127088,4.95680678 9.37823023,4.88453565 L9.3799419,4.87712159 L7.3005512,4.39615535 L6.92468178,6.02550885 C6.92468178,6.02550885 8.0429737,6.26136048 8.0198803,6.27770459 C8.63024131,6.41906806 8.74672788,6.82390813 8.73254757,7.14687021 L8.07377061,10.002487 L7.14774509,14.0135442 C7.07598825,14.20172 6.89118085,14.4861908 6.46420116,14.3882155 C6.47962863,14.4099987 5.36750035,14.1348219 5.36750035,14.1348219 L4.64781788,15.8876899 L6.6095174,16.3405839 C6.97495331,16.425402 7.33278035,16.51407 7.68447453,16.5982686 L7.10054984,19.133517 L8.60640508,19.4816216 L9.1850876,16.973146 C9.59743524,17.0773546 9.99650021,17.1733907 10.3872532,17.2630524 L9.81043645,19.7595942 L11.3180793,20.1076609 L11.9031853,17.5771405 C14.4714541,18.0148885 16.394838,17.7782816 17.1715778,15.4202049 C17.7971393,13.5217609 17.0951826,12.4478229 15.737049,11.7661377 Z M11.5118931,7.20178172 C12.3622115,7.39809319 15.0997273,7.74140705 14.6850112,9.53945222 C14.2866831,11.2630884 11.6597782,10.4445187 10.8086154,10.2480123 L11.5118931,7.20178172 Z M9.6270042,15.1147749 L10.4030923,11.7561645 C11.4247974,11.9917434 14.6978149,12.4342587 14.2419997,14.4105374 C13.8048922,16.3057842 10.6494759,15.3500301 9.6270042,15.1147749 Z"></path>
                                    </g>
                                </g>
                            </g>
                        </g>
                        <g id="btc" transform="translate(166.706376, 61.563605)" fill="#FFFFFF">
                            <g id="Combined-Shape">
                                <path d="M11.5,23 C5.14872538,23 7.46069873e-14,17.8512746 7.46069873e-14,11.5 C7.46069873e-14,5.14872538 5.14872538,2.23820962e-13 11.5,2.23820962e-13 C17.8512746,2.23820962e-13 23,5.14872538 23,11.5 C23,17.8512746 17.8512746,23 11.5,23 Z M15.737049,11.7661377 C16.7151077,11.5172288 17.445203,10.8497458 17.622744,9.49793696 C17.8679175,7.65113843 16.4663478,6.68930565 14.5602977,6.06749433 L15.1386102,3.56083555 L13.6309205,3.21275796 L13.067029,5.65331397 C12.6703451,5.56173227 12.2641463,5.47626371 11.8597112,5.3915027 L12.4264839,2.93504228 L10.9201876,2.58713619 L10.341361,5.0930255 C10.0133455,5.02440558 9.69127088,4.95680678 9.37823023,4.88453565 L9.3799419,4.87712159 L7.3005512,4.39615535 L6.92468178,6.02550885 C6.92468178,6.02550885 8.0429737,6.26136048 8.0198803,6.27770459 C8.63024131,6.41906806 8.74672788,6.82390813 8.73254757,7.14687021 L8.07377061,10.002487 L7.14774509,14.0135442 C7.07598825,14.20172 6.89118085,14.4861908 6.46420116,14.3882155 C6.47962863,14.4099987 5.36750035,14.1348219 5.36750035,14.1348219 L4.64781788,15.8876899 L6.6095174,16.3405839 C6.97495331,16.425402 7.33278035,16.51407 7.68447453,16.5982686 L7.10054984,19.133517 L8.60640508,19.4816216 L9.1850876,16.973146 C9.59743524,17.0773546 9.99650021,17.1733907 10.3872532,17.2630524 L9.81043645,19.7595942 L11.3180793,20.1076609 L11.9031853,17.5771405 C14.4714541,18.0148885 16.394838,17.7782816 17.1715778,15.4202049 C17.7971393,13.5217609 17.0951826,12.4478229 15.737049,11.7661377 Z M11.5118931,7.20178172 C12.3622115,7.39809319 15.0997273,7.74140705 14.6850112,9.53945222 C14.2866831,11.2630884 11.6597782,10.4445187 10.8086154,10.2480123 L11.5118931,7.20178172 Z M9.6270042,15.1147749 L10.4030923,11.7561645 C11.4247974,11.9917434 14.6978149,12.4342587 14.2419997,14.4105374 C13.8048922,16.3057842 10.6494759,15.3500301 9.6270042,15.1147749 Z"></path>
                            </g>
                        </g>
                    </g>
                </g>
            </g>
        </g>
    </g>
</svg>