<?xml version="1.0" encoding="UTF-8"?>
<svg width="375px" height="270px" viewBox="0 0 375 270" version="1.1" xmlns="http://www.w3.org/2000/svg" xmlns:xlink="http://www.w3.org/1999/xlink">
    <!-- Generator: sketchtool 47.1 (45422) - http://www.bohemiancoding.com/sketch -->
    <title>img/tour/notifications</title>
    <desc>Created with sketchtool.</desc>
    <defs></defs>
    <g id="Design" stroke="none" stroke-width="1" fill="none" fill-rule="evenodd">
        <g id="Payment-Notification" transform="translate(0.000000, -64.000000)">
            <g id="exportable" transform="translate(0.000000, 64.000000)">
                <g id="graphic" transform="translate(115.000000, 28.000000)">
                    <g id="phone-notice">
                        <g id="phone">
                            <path d="M52.2141823,175.055419 L28.7773276,174.922556 L28.7773276,174.922556 C26.5770741,174.910083 24.8000031,173.12291 24.8000031,170.922621 L24.8000031,4.80000305 L24.8000031,4.80000305 C24.8000031,2.59086405 26.5908641,0.800003052 28.8000031,0.800003052 L117.200005,0.800003052 L117.200005,0.800003052 C119.409144,0.800003052 121.200005,2.59086405 121.200005,4.80000305 L121.200005,170.921625 L121.200005,170.921625 C121.200005,173.122304 119.422326,174.909642 117.221679,174.921566 L92.5194864,175.055419" id="Path-2" stroke="#FFFFFF" stroke-width="1.6"></path>
                            <path d="M25.6065574,23.3702752 L120.393443,23.3702752" id="Line-2" stroke="#FFFFFF" stroke-width="1.6" stroke-linecap="square"></path>
                            <path d="M25.8865988,153.909202 L47.7878151,153.909202 M97.325612,153.909202 L120.673484,153.909202" id="Line-2" stroke="#FFFFFF" stroke-width="1.6" stroke-linecap="square"></path>
                            <g id="notice" transform="translate(0.000000, 54.000000)">
                                <path d="M25.6065574,3.37027523 L120.393443,3.37027523" id="Line-2" stroke="#FFFFFF" stroke-width="1.6" stroke-linecap="square"></path>
                                <path d="M25.6065574,37.3702752 L120.393443,37.3702752" id="Line-2" stroke="#FFFFFF" stroke-width="1.6" stroke-linecap="square"></path>
                                <path d="M60.6065574,16.3702752 L105.606557,16.3702752" id="Line-2" stroke="#FFFFFF" stroke-width="1.6" stroke-linecap="round"></path>
                                <path d="M60.6065574,24.3702752 L110.606557,24.3702752" id="Line-2" stroke="#FFFFFF" stroke-width="1.6" stroke-linecap="round"></path>
                                <g id="btc" transform="translate(33.000000, 10.000000)" fill="#FFFFFF">
                                    <g id="Combined-Shape">
                                        <path d="M10,20 C4.4771525,20 7.46069873e-14,15.5228475 7.46069873e-14,10 C7.46069873e-14,4.4771525 4.4771525,2.23820962e-13 10,2.23820962e-13 C15.5228475,2.23820962e-13 20,4.4771525 20,10 C20,15.5228475 15.5228475,20 10,20 Z M13.6843904,10.231424 C14.5348762,10.0149816 15.1697418,9.43456153 15.3241252,8.25907562 C15.5373196,6.65316386 14.3185633,5.81678752 12.6611284,5.27608203 L13.1640089,3.09637874 L11.8529743,2.79370257 L11.3626339,4.91592519 C11.0176914,4.83628893 10.6644751,4.76196845 10.3127924,4.68826322 L10.8056382,2.55221068 L9.49581527,2.24968364 L8.99248779,4.42871782 C8.70725699,4.36904833 8.42719207,4.31026677 8.15498281,4.24742231 L8.15647122,4.24097529 L6.3483054,3.82274378 L6.02146242,5.23957292 C6.02146242,5.23957292 6.99389017,5.44466129 6.97380896,5.45887355 C7.50455766,5.58179831 7.60585033,5.93383316 7.59351963,6.21466975 L7.02067009,8.69781479 L6.21543051,12.1856906 C6.15303326,12.3493217 5.99233118,12.5966876 5.62104448,12.5114917 C5.63445968,12.5304337 4.66739161,12.2911495 4.66739161,12.2911495 L4.04158077,13.8153825 L5.74740644,14.2092034 C6.06517679,14.2829582 6.37633074,14.3600609 6.68215177,14.433277 L6.17439117,16.6378409 L7.48383051,16.9405405 L7.98703269,14.7592574 C8.34559586,14.8498736 8.69260888,14.9333832 9.03239411,15.01135 L8.53081431,17.1822558 L9.84180805,17.4849225 L10.350596,15.28447 C12.5838731,15.6651204 14.2563809,15.4593753 14.9318067,13.4088739 C15.4757733,11.758053 14.8653762,10.8241939 13.6843904,10.231424 Z M10.0103418,6.26241888 C10.7497492,6.43312452 13.1301977,6.73165831 12.7695749,8.29517584 C12.4232027,9.7939899 10.1389376,9.0821902 9.39879597,8.91131505 L10.0103418,6.26241888 Z M8.371308,13.1432825 L9.04616719,10.2227518 C9.93460647,10.4276029 12.7807086,10.8123988 12.3843476,12.5309021 C12.0042541,14.1789428 9.26041379,13.3478523 8.371308,13.1432825 Z"></path>
                                    </g>
                                </g>
                                <g id="right" transform="translate(137.500000, 21.000000) scale(-1, 1) translate(-137.500000, -21.000000) translate(129.000000, 0.000000)" stroke="#FFFFFF" stroke-width="2" stroke-linecap="round">
                                    <path d="M9.94463492,0 C3.7994097,5.3729017 0,12.7874194 0,20.9758518 C0,29.1888471 3.82223819,36.6232778 10,42" id="Oval-8-Copy-2"></path>
                                    <path d="M16.9521294,5 C12.0413979,8.95003811 9,14.4272642 9,20.4807951 C9,26.5539719 12.0611709,32.0470973 17,36" id="Oval-8-Copy"></path>
                                </g>
                                <g id="left" stroke="#FFFFFF" stroke-width="2" stroke-linecap="round">
                                    <path d="M9.94463492,0 C3.7994097,5.3729017 0,12.7874194 0,20.9758518 C0,29.1888471 3.82223819,36.6232778 10,42" id="Oval-8"></path>
                                    <path d="M16.9521294,5 C12.0413979,8.95003811 9,14.4272642 9,20.4807951 C9,26.5539719 12.0611709,32.0470973 17,36" id="Oval-8"></path>
                                </g>
                            </g>
                        </g>
                    </g>
                    <g id="user" transform="translate(39.000000, 138.000000)" stroke="#FFFFFF" stroke-width="2">
                        <path d="M33.0890728,79.898886 C50.5765376,79.898886 65,81.8382563 65,68.7300448 C65,55.6218334 50.5765376,42.2641509 33.0890728,42.2641509 C15.601608,42.2641509 -6.73525336e-14,55.6218334 0,68.7300448 C-6.73525336e-14,81.8382563 15.601608,79.898886 33.0890728,79.898886 Z" id="Oval-2"></path>
                        <ellipse id="Oval-2" cx="33.255814" cy="21.1320755" rx="21.1627907" ry="21.1320755"></ellipse>
                    </g>
                </g>
            </g>
        </g>
    </g>
</svg>