<?xml version="1.0" encoding="UTF-8"?>
<svg width="375px" height="270px" viewBox="0 0 375 270" version="1.1" xmlns="http://www.w3.org/2000/svg" xmlns:xlink="http://www.w3.org/1999/xlink">
    <!-- Generator: sketchtool 47.1 (45422) - http://www.bohemiancoding.com/sketch -->
    <title>img/tour/share</title>
    <desc>Created with sketchtool.</desc>
    <defs></defs>
    <g id="Design" stroke="none" stroke-width="1" fill="none" fill-rule="evenodd">
        <g id="Share-wallets" transform="translate(0.000000, -64.000000)">
            <g id="exportable" transform="translate(0.000000, 64.000000)">
                <g id="graphic" transform="translate(68.407733, 27.802072)">
                    <path d="M155.27369,189.547026 C203.795522,179.356111 239,148.983225 239,113.098964 C239,92.2353172 227.099359,73.2347545 207.59985,58.9806855 M170.323055,40.584175 C154.90045,35.719371 137.674011,33 119.5,33 C100.814016,33 83.1297433,35.8747418 67.377866,41.0004035 M24.4983029,64.5025688 C9.12959191,77.9804743 8.52651283e-14,94.8250855 8.52651283e-14,113.098964 C8.52651283e-14,148.831294 34.9070019,179.098818 83.1107122,189.416498" id="network" stroke="#C0C0C0" stroke-width="2" stroke-dasharray="2,4"></path>
                    <g id="wallet-user" transform="translate(86.000000, 120.000000)">
                        <g id="user" transform="translate(1.000000, 0.000000)" stroke="#FFFFFF" stroke-width="2">
                            <path d="M60.5290959,77.5008198 C63.3652133,75.8506267 65,73.1430987 65,68.7300448 C65,55.6218334 50.5765376,42.2641509 33.0890728,42.2641509 C15.601608,42.2641509 -6.73525336e-14,55.6218334 0,68.7300448 C-2.73771363e-14,74.058208 2.57773059,76.900178 6.81205982,78.3967764" id="Oval-2"></path>
                            <ellipse id="Oval-2" cx="33.255814" cy="21.1320755" rx="21.1627907" ry="21.1320755"></ellipse>
                        </g>
                        <g id="btc-wallet" transform="translate(0.500000, 61.000000)">
                            <g id="wallet" transform="translate(10.500000, 0.000000)">
                                <path d="M42.0773502,27.3096438 L42.0773502,29.2876324 C42.0773502,30.9444866 40.7342045,32.2876324 39.0773502,32.2876324 L12.1921801,32.2876324 C11.1607897,27.8237211 7.63886532,24.3130007 3.16876807,23.2978323 L3.16876807,5.79333968 L3.16876807,5.79333968 C3.16876807,4.13648543 4.51191382,2.79333968 6.16876807,2.79333968 L6.16876807,2.79333968 L39.0773502,2.79333968 C40.7342045,2.79333968 42.0773502,4.13648543 42.0773502,5.79333968 L42.0773502,7.00826681 L25.1929624,7.00826681 C24.8090023,7.00826681 24.4282161,7.07780263 24.0690374,7.2135081 L24.0690399,7.21351474 C19.0488772,9.11024048 16.5387959,12.4253894 16.5387959,17.1589616 C16.5387959,21.8925315 19.0488747,25.2076756 24.0690324,27.1043939 C24.4282083,27.2400979 24.8089913,27.309633 25.1929482,27.309633 L25.1929482,27.3096438 L42.0773502,27.3096438 Z" id="Combined-Shape" fill="#00AFFF"></path>
                                <path d="M0.36,23.0585596 L0.36,5.6 C0.36,2.5072054 2.8672054,1.45631557e-15 5.96,8.8817842e-16 L39.28,0 C42.3727946,-5.68137151e-16 44.88,2.5072054 44.88,5.6 C44.88,6.06884565 44.88,6.50925644 44.88,6.92123239 M44.88,27.3897382 C44.88,28.0194751 44.88,28.7188021 44.88,29.4877193 C44.88,32.5805139 42.3727946,35.0877193 39.28,35.0877193 L12.4864195,35.0877193" id="Rectangle" stroke="#FFFFFF" stroke-width="2"></path>
                                <path d="M26.0109006,9.8245614 L43.9356901,9.8245614 L43.9356901,9.8245614 C45.4820874,9.8245614 46.7356901,11.0781641 46.7356901,12.6245614 L46.7356901,21.7614035 L46.7356901,21.7614035 C46.7356901,23.3078008 45.4820874,24.5614035 43.9356901,24.5614035 L26.0109563,24.5614035 L26.0109563,24.5614183 C25.6794134,24.5614183 25.3505053,24.5025361 25.0395538,24.3875147 C21.3065179,23.006659 19.44,20.6084831 19.44,17.192987 C19.44,13.7775113 21.3064957,11.3793408 25.0394872,9.99847563 L25.0394852,9.99847038 C25.3504403,9.88344544 25.679353,9.8245614 26.0109006,9.8245614 Z" id="Rectangle" stroke="#FFFFFF" stroke-width="2"></path>
                                <path d="M25.9848708,12.6365912 L43.9979109,12.6365912 L43.9979109,21.6925825 L25.9848708,21.6925825 C23.4082903,21.0020364 22.12,19.4927054 22.12,17.1645897 C22.12,14.8364739 23.4082903,13.3271411 25.9848708,12.6365912 Z" id="Rectangle" fill="#00AFFF"></path>
                                <ellipse id="Oval" fill="#FFFFFF" cx="26.86" cy="17.1929825" rx="1.76666667" ry="1.75438596"></ellipse>
                            </g>
                            <g id="btc" transform="translate(0.976592, 24.878996)" fill="#FFFFFF">
                                <g id="Combined-Shape">
                                    <path d="M10,20 C4.4771525,20 7.46069873e-14,15.5228475 7.46069873e-14,10 C7.46069873e-14,4.4771525 4.4771525,2.23820962e-13 10,2.23820962e-13 C15.5228475,2.23820962e-13 20,4.4771525 20,10 C20,15.5228475 15.5228475,20 10,20 Z M13.6843904,10.231424 C14.5348762,10.0149816 15.1697418,9.43456153 15.3241252,8.25907562 C15.5373196,6.65316386 14.3185633,5.81678752 12.6611284,5.27608203 L13.1640089,3.09637874 L11.8529743,2.79370257 L11.3626339,4.91592519 C11.0176914,4.83628893 10.6644751,4.76196845 10.3127924,4.68826322 L10.8056382,2.55221068 L9.49581527,2.24968364 L8.99248779,4.42871782 C8.70725699,4.36904833 8.42719207,4.31026677 8.15498281,4.24742231 L8.15647122,4.24097529 L6.3483054,3.82274378 L6.02146242,5.23957292 C6.02146242,5.23957292 6.99389017,5.44466129 6.97380896,5.45887355 C7.50455766,5.58179831 7.60585033,5.93383316 7.59351963,6.21466975 L7.02067009,8.69781479 L6.21543051,12.1856906 C6.15303326,12.3493217 5.99233118,12.5966876 5.62104448,12.5114917 C5.63445968,12.5304337 4.66739161,12.2911495 4.66739161,12.2911495 L4.04158077,13.8153825 L5.74740644,14.2092034 C6.06517679,14.2829582 6.37633074,14.3600609 6.68215177,14.433277 L6.17439117,16.6378409 L7.48383051,16.9405405 L7.98703269,14.7592574 C8.34559586,14.8498736 8.69260888,14.9333832 9.03239411,15.01135 L8.53081431,17.1822558 L9.84180805,17.4849225 L10.350596,15.28447 C12.5838731,15.6651204 14.2563809,15.4593753 14.9318067,13.4088739 C15.4757733,11.758053 14.8653762,10.8241939 13.6843904,10.231424 Z M10.0103418,6.26241888 C10.7497492,6.43312452 13.1301977,6.73165831 12.7695749,8.29517584 C12.4232027,9.7939899 10.1389376,9.0821902 9.39879597,8.91131505 L10.0103418,6.26241888 Z M8.371308,13.1432825 L9.04616719,10.2227518 C9.93460647,10.4276029 12.7807086,10.8123988 12.3843476,12.5309021 C12.0042541,14.1789428 9.26041379,13.3478523 8.371308,13.1432825 Z"></path>
                                </g>
                            </g>
                        </g>
                        <g id="approve" transform="translate(64.592267, 9.197928)" stroke="#FFFFFF" stroke-width="2" stroke-linecap="round">
                            <path d="M0.0921011896,8.87225349 L5.1995027,15.8705851" id="Line"></path>
                            <path d="M16.7159042,0 L5.10817348,15.905299" id="Line"></path>
                        </g>
                    </g>
                    <g id="other-users" transform="translate(23.000000, 0.000000)">
                        <g id="signer-reject" transform="translate(0.400000, 0.700000)">
                            <g id="user" transform="translate(0.600000, 0.000000)" stroke="#FFFFFF" stroke-width="2">
                                <path d="M36.3174575,46.5004919 C38.019128,45.510376 39,43.8858592 39,41.2380269 C39,33.3731 30.3459226,25.3584906 19.8534437,25.3584906 C9.36096481,25.3584906 -4.04115202e-14,33.3731 0,41.2380269 C-1.64262818e-14,44.4349248 1.54663835,46.1401068 4.08723589,47.0380658" id="Oval-2"></path>
                                <ellipse id="Oval-2" cx="19.9534884" cy="12.6792453" rx="12.6976744" ry="12.6792453"></ellipse>
                            </g>
                            <g id="btc-wallet" transform="translate(0.300000, 36.600000)">
                                <g id="wallet" transform="translate(6.300000, 0.000000)">
                                    <path d="M25.2464101,16.3857863 L25.2464101,17.5725794 C25.2464101,18.566692 24.4405227,19.3725794 23.4464101,19.3725794 L7.31530809,19.3725794 C6.69647385,16.6942327 4.58331919,14.5878004 1.90126084,13.9786994 L1.90126084,3.47600381 L1.90126084,3.47600381 C1.90126084,2.48189126 2.70714829,1.67600381 3.70126084,1.67600381 L3.70126084,1.67600381 L23.4464101,1.67600381 C24.4405227,1.67600381 25.2464101,2.48189126 25.2464101,3.47600381 L25.2464101,4.20496009 L15.1158253,4.20496009 C14.8854548,4.20496009 14.6569885,4.24667997 14.441486,4.32810017 L14.4414812,4.32808723 C11.4293454,5.4661191 9.92327753,7.45521569 9.92327753,10.295377 C9.92327753,13.1355189 11.4293248,15.1246053 14.4414194,16.2626364 C14.656925,16.3440588 14.8853948,16.3857798 15.1157689,16.3857798 L15.1157689,16.3857863 L25.2464101,16.3857863 Z" id="Combined-Shape"></path>
                                    <path d="M0.216,13.8351357 L0.216,3.36 C0.216,1.50432324 1.72032324,8.73789342e-16 3.576,5.32907052e-16 L23.568,0 C25.4236768,-3.40882291e-16 26.928,1.50432324 26.928,3.36 C26.928,3.64130739 26.928,3.90555386 26.928,4.15273943 M26.928,16.4338429 C26.928,16.811685 26.928,17.2312812 26.928,17.6926316 C26.928,19.5483083 25.4236768,21.0526316 23.568,21.0526316 L7.49185172,21.0526316" id="Rectangle" stroke="#FFFFFF" stroke-width="2"></path>
                                    <path d="M15.6066098,5.89473684 L26.3614141,5.89473684 L26.3614141,5.89473684 C27.2892524,5.89473684 28.0414141,6.64689846 28.0414141,7.57473684 L28.0414141,13.0568421 L28.0414141,13.0568421 C28.0414141,13.9846805 27.2892524,14.7368421 26.3614141,14.7368421 L15.6064962,14.7368421 L15.6064962,14.736824 C15.4075679,14.736824 15.2102206,14.7014933 15.0236481,14.6324777 C12.7838827,13.8039594 11.664,12.3650642 11.664,10.3157922 C11.664,8.26648066 12.783926,6.82756783 15.0237779,5.99905372 L15.0237856,5.99907466 C15.2103511,5.93006467 15.4076901,5.89473684 15.6066098,5.89473684 Z" id="Rectangle" stroke="#FFFFFF" stroke-width="2"></path>
                                    <path d="M15.5909225,7.58195471 L26.3987465,7.58195471 L26.3987465,13.0155495 L15.5909225,13.0155495 C14.0449742,12.6012218 13.272,11.6956233 13.272,10.2987538 C13.272,8.90188436 14.0449742,7.99628466 15.5909225,7.58195471 Z" id="Rectangle"></path>
                                    <ellipse id="Oval" fill="#FFFFFF" cx="16.116" cy="10.3157895" rx="1.06" ry="1.05263158"></ellipse>
                                </g>
                                <g id="btc" transform="translate(0.585955, 14.927398)" fill="#FFFFFF">
                                    <g id="Combined-Shape">
                                        <path d="M6,12 C2.6862915,12 7.46069873e-14,9.3137085 7.46069873e-14,6 C7.46069873e-14,2.6862915 2.6862915,2.23820962e-13 6,2.23820962e-13 C9.3137085,2.23820962e-13 12,2.6862915 12,6 C12,9.3137085 9.3137085,12 6,12 Z M8.21063426,6.13885443 C8.72092573,6.00898895 9.10184506,5.66073692 9.19447514,4.95544537 C9.32239176,3.99189831 8.59113797,3.49007251 7.59667707,3.16564922 L7.89840532,1.85782725 L7.1117846,1.67622154 L6.81758036,2.94955511 C6.61061484,2.90177336 6.39868503,2.85718107 6.18767543,2.81295793 L6.48338292,1.53132641 L5.69748916,1.34981018 L5.39549267,2.65723069 C5.2243542,2.621429 5.05631524,2.58616006 4.89298969,2.54845338 L4.89388273,2.54458517 L3.80898324,2.29364627 L3.61287745,3.14374375 C3.61287745,3.14374375 4.1963341,3.26679677 4.18428538,3.27532413 C4.5027346,3.34907899 4.5635102,3.56029989 4.55611178,3.72880185 L4.21240206,5.21868887 L3.72925831,7.31141438 C3.69181996,7.40959305 3.59539871,7.55801259 3.37262669,7.50689503 C3.38067581,7.51826021 2.80043496,7.37468969 2.80043496,7.37468969 L2.42494846,8.28922951 L3.44844386,8.52552204 C3.63910607,8.56977494 3.82579844,8.61603653 4.00929106,8.65996621 L3.7046347,9.98270452 L4.4902983,10.1643243 L4.79221962,8.85555444 C5.00735752,8.90992415 5.21556533,8.96002991 5.41943647,9.00680997 L5.11848858,10.3093535 L5.90508483,10.4909535 L6.21035757,9.170682 C7.55032388,9.39907227 8.55382852,9.27562519 8.95908405,8.04532432 C9.28546397,7.0548318 8.91922571,6.49451631 8.21063426,6.13885443 Z M6.0062051,3.75745133 C6.4498495,3.85987471 7.8781186,4.03899498 7.66174496,4.9771055 C7.45392162,5.87639394 6.08336254,5.44931412 5.63927758,5.34678903 L6.0062051,3.75745133 L6.0062051,3.75745133 Z M5.0227848,7.8859695 L5.42770031,6.13365105 C5.96076388,6.25656177 7.66842516,6.4874393 7.43060854,7.51854125 C7.20255246,8.50736566 5.55624827,8.00871136 5.0227848,7.8859695 Z"></path>
                                    </g>
                                </g>
                            </g>
                            <g id="reject" transform="translate(42.192267, 0.497928)" fill="#FFFFFF">
                                <path d="M9,18 C4.02943725,18 0,13.9705627 0,9 C0,4.02943725 4.02943725,0 9,0 C13.9705627,0 18,4.02943725 18,9 C18,13.9705627 13.9705627,18 9,18 Z M3.6,7.2 L3.6,7.2 C2.51551358,7.2 1.63636364,8.07914995 1.63636364,9.16363636 C1.63636364,10.2481228 2.51551358,11.1272727 3.6,11.1272727 L3.6,11.1272727 L14.4,11.1272727 C15.4844864,11.1272727 16.3636364,10.2481228 16.3636364,9.16363636 C16.3636364,8.07914995 15.4844864,7.2 14.4,7.2 L14.4,7.2 L3.6,7.2 Z" id="Combined-Shape"></path>
                            </g>
                        </g>
                        <g id="signer-approve" transform="translate(149.400000, 0.700000)">
                            <g id="user" transform="translate(0.600000, 0.000000)" stroke="#FFFFFF" stroke-width="2">
                                <path d="M36.3174575,46.5004919 C38.019128,45.510376 39,43.8858592 39,41.2380269 C39,33.3731 30.3459226,25.3584906 19.8534437,25.3584906 C9.36096481,25.3584906 -4.04115202e-14,33.3731 0,41.2380269 C-1.64262818e-14,44.4349248 1.54663835,46.1401068 4.08723589,47.0380658" id="Oval-2"></path>
                                <ellipse id="Oval-2" cx="19.9534884" cy="12.6792453" rx="12.6976744" ry="12.6792453"></ellipse>
                            </g>
                            <g id="btc-wallet" transform="translate(0.300000, 36.600000)">
                                <g id="wallet" transform="translate(6.300000, 0.000000)">
                                    <path d="M25.2464101,16.3857863 L25.2464101,17.5725794 C25.2464101,18.566692 24.4405227,19.3725794 23.4464101,19.3725794 L7.31530809,19.3725794 C6.69647385,16.6942327 4.58331919,14.5878004 1.90126084,13.9786994 L1.90126084,3.47600381 L1.90126084,3.47600381 C1.90126084,2.48189126 2.70714829,1.67600381 3.70126084,1.67600381 L3.70126084,1.67600381 L23.4464101,1.67600381 C24.4405227,1.67600381 25.2464101,2.48189126 25.2464101,3.47600381 L25.2464101,4.20496009 L15.1158253,4.20496009 C14.8854548,4.20496009 14.6569885,4.24667997 14.441486,4.32810017 L14.4414812,4.32808723 C11.4293454,5.4661191 9.92327753,7.45521569 9.92327753,10.295377 C9.92327753,13.1355189 11.4293248,15.1246053 14.4414194,16.2626364 C14.656925,16.3440588 14.8853948,16.3857798 15.1157689,16.3857798 L15.1157689,16.3857863 L25.2464101,16.3857863 Z" id="Combined-Shape"></path>
                                    <path d="M0.216,13.8351357 L0.216,3.36 C0.216,1.50432324 1.72032324,8.73789342e-16 3.576,5.32907052e-16 L23.568,0 C25.4236768,-3.40882291e-16 26.928,1.50432324 26.928,3.36 C26.928,3.64130739 26.928,3.90555386 26.928,4.15273943 M26.928,16.4338429 C26.928,16.811685 26.928,17.2312812 26.928,17.6926316 C26.928,19.5483083 25.4236768,21.0526316 23.568,21.0526316 L7.49185172,21.0526316" id="Rectangle" stroke="#FFFFFF" stroke-width="2"></path>
                                    <path d="M15.6066098,5.89473684 L26.3614141,5.89473684 L26.3614141,5.89473684 C27.2892524,5.89473684 28.0414141,6.64689846 28.0414141,7.57473684 L28.0414141,13.0568421 L28.0414141,13.0568421 C28.0414141,13.9846805 27.2892524,14.7368421 26.3614141,14.7368421 L15.6064962,14.7368421 L15.6064962,14.736824 C15.4075679,14.736824 15.2102206,14.7014933 15.0236481,14.6324777 C12.7838827,13.8039594 11.664,12.3650642 11.664,10.3157922 C11.664,8.26648066 12.783926,6.82756783 15.0237779,5.99905372 L15.0237856,5.99907466 C15.2103511,5.93006467 15.4076901,5.89473684 15.6066098,5.89473684 Z" id="Rectangle" stroke="#FFFFFF" stroke-width="2"></path>
                                    <path d="M15.5909225,7.58195471 L26.3987465,7.58195471 L26.3987465,13.0155495 L15.5909225,13.0155495 C14.0449742,12.6012218 13.272,11.6956233 13.272,10.2987538 C13.272,8.90188436 14.0449742,7.99628466 15.5909225,7.58195471 Z" id="Rectangle"></path>
                                    <ellipse id="Oval" fill="#FFFFFF" cx="16.116" cy="10.3157895" rx="1.06" ry="1.05263158"></ellipse>
                                </g>
                                <g id="btc" transform="translate(0.585955, 14.927398)" fill="#FFFFFF">
                                    <g id="Combined-Shape">
                                        <path d="M6,12 C2.6862915,12 7.46069873e-14,9.3137085 7.46069873e-14,6 C7.46069873e-14,2.6862915 2.6862915,2.23820962e-13 6,2.23820962e-13 C9.3137085,2.23820962e-13 12,2.6862915 12,6 C12,9.3137085 9.3137085,12 6,12 Z M8.21063426,6.13885443 C8.72092573,6.00898895 9.10184506,5.66073692 9.19447514,4.95544537 C9.32239176,3.99189831 8.59113797,3.49007251 7.59667707,3.16564922 L7.89840532,1.85782725 L7.1117846,1.67622154 L6.81758036,2.94955511 C6.61061484,2.90177336 6.39868503,2.85718107 6.18767543,2.81295793 L6.48338292,1.53132641 L5.69748916,1.34981018 L5.39549267,2.65723069 C5.2243542,2.621429 5.05631524,2.58616006 4.89298969,2.54845338 L4.89388273,2.54458517 L3.80898324,2.29364627 L3.61287745,3.14374375 C3.61287745,3.14374375 4.1963341,3.26679677 4.18428538,3.27532413 C4.5027346,3.34907899 4.5635102,3.56029989 4.55611178,3.72880185 L4.21240206,5.21868887 L3.72925831,7.31141438 C3.69181996,7.40959305 3.59539871,7.55801259 3.37262669,7.50689503 C3.38067581,7.51826021 2.80043496,7.37468969 2.80043496,7.37468969 L2.42494846,8.28922951 L3.44844386,8.52552204 C3.63910607,8.56977494 3.82579844,8.61603653 4.00929106,8.65996621 L3.7046347,9.98270452 L4.4902983,10.1643243 L4.79221962,8.85555444 C5.00735752,8.90992415 5.21556533,8.96002991 5.41943647,9.00680997 L5.11848858,10.3093535 L5.90508483,10.4909535 L6.21035757,9.170682 C7.55032388,9.39907227 8.55382852,9.27562519 8.95908405,8.04532432 C9.28546397,7.0548318 8.91922571,6.49451631 8.21063426,6.13885443 Z M6.0062051,3.75745133 C6.4498495,3.85987471 7.8781186,4.03899498 7.66174496,4.9771055 C7.45392162,5.87639394 6.08336254,5.44931412 5.63927758,5.34678903 L6.0062051,3.75745133 L6.0062051,3.75745133 Z M5.0227848,7.8859695 L5.42770031,6.13365105 C5.96076388,6.25656177 7.66842516,6.4874393 7.43060854,7.51854125 C7.20255246,8.50736566 5.55624827,8.00871136 5.0227848,7.8859695 Z"></path>
                                    </g>
                                </g>
                            </g>
                            <g id="approve" transform="translate(41.192267, 0.497928)" stroke="#FFFFFF" stroke-width="2" stroke-linecap="round">
                                <path d="M0.0921011896,8.87225349 L5.1995027,15.8705851" id="Line"></path>
                                <path d="M16.7159042,0 L5.10817348,15.905299" id="Line"></path>
                            </g>
                        </g>
                    </g>
                </g>
            </g>
        </g>
    </g>
</svg>