<?xml version="1.0" encoding="UTF-8"?>
<svg width="375px" height="270px" viewBox="0 0 375 270" version="1.1" xmlns="http://www.w3.org/2000/svg" xmlns:xlink="http://www.w3.org/1999/xlink">
    <!-- Generator: sketchtool 47.1 (45422) - http://www.bohemiancoding.com/sketch -->
    <title>img/tour/wallets</title>
    <desc>Created with sketchtool.</desc>
    <defs></defs>
    <g id="Design" stroke="none" stroke-width="1" fill="none" fill-rule="evenodd">
        <g id="Multiple-wallets" transform="translate(0.000000, -64.000000)">
            <g id="exportable" transform="translate(0.000000, 64.000000)">
                <g id="graphic" transform="translate(157.907733, 145.302072) rotate(-5.000000) translate(-157.907733, -145.302072) translate(49.407733, 36.802072)">
                    <g id="phone" transform="translate(78.000000, 0.000000)" stroke="#FFFFFF" stroke-width="2">
                        <path d="M1,29 L119,29" id="Line-2" stroke-linecap="square"></path>
                        <path d="M1.34862297,190.984779 L119.348623,190.984779" id="Line-2" stroke-linecap="square"></path>
                        <path d="M0.0922667892,47.8066882 L0.0922667892,7.99793143 C0.0922667892,4.13193818 3.22627354,0.997931432 7.09226679,0.997931432 L113.030473,0.997931432 C116.896466,0.997931432 120.030473,4.13193818 120.030473,7.99793143 L120.030473,72.1211896 M120.030473,118.657179 L120.030473,127.000694 M120.030473,173.110757 L120.030473,209.987937 C120.030473,213.85393 116.896466,216.987937 113.030473,216.987937 L7.09226679,216.987937 C3.22627354,216.987937 0.0922667892,213.85393 0.0922667892,209.987937 L0.0922667892,131.509228" id="Path-2"></path>
                    </g>
                    <g id="btc-wallet-2" transform="translate(61.392955, 98.293546) rotate(5.000000) translate(-61.392955, -98.293546) translate(4.392955, 53.293546)">
                        <g id="wallet" transform="translate(20.000000, 0.000000)">
                            <path d="M84.1547005,54.6192876 L84.1547005,58.5752648 L84.1547005,58.5752648 C84.1547005,61.8889733 81.468409,64.5752648 78.1547005,64.5752648 L24.3843603,64.5752648 C22.3215795,55.6474423 15.2777306,48.6260014 6.33753614,46.5956645 L6.33753614,11.5866794 L6.33753614,11.5866794 C6.33753614,8.27297087 9.02382764,5.58667936 12.3375361,5.58667936 L12.3375361,5.58667936 L78.1547005,5.58667936 L78.1547005,5.58667936 C81.468409,5.58667936 84.1547005,8.27297087 84.1547005,11.5866794 L84.1547005,14.0165336 L50.3859646,14.0165336 C49.6180491,14.0165336 48.8564813,14.1556039 48.1381278,14.4270123 L48.1381275,14.4270115 C38.0977703,18.22046 33.0775918,24.8507639 33.0775918,34.3179233 C33.0775918,43.7850877 38.0977757,50.4153858 48.1381436,54.2088176 C48.8564946,54.4802236 49.6180594,54.6192926 50.3859717,54.6192926 L50.3859717,54.6192876 L84.1547005,54.6192876 Z" id="Combined-Shape" fill="#00AFFF"></path>
                            <path d="M0.72,46.1171191 L0.72,11.2 C0.72,5.0144108 5.7344108,2.91263114e-15 11.92,1.77635684e-15 L78.56,0 C84.7455892,-1.1362743e-15 89.76,5.0144108 89.76,11.2 C89.76,12.1376913 89.76,13.0185129 89.76,13.8424648 M89.76,54.7794765 C89.76,56.0389501 89.76,57.4376041 89.76,58.9754386 C89.76,65.1610278 84.7455892,70.1754386 78.56,70.1754386 L24.9728391,70.1754386" id="Rectangle" stroke="#FFFFFF" stroke-width="3"></path>
                            <path d="M52.0218302,19.6491228 L87.8713802,19.6491228 L87.8713802,19.6491228 C90.9641748,19.6491228 93.4713802,22.1563282 93.4713802,25.2491228 L93.4713802,43.522807 L93.4713802,43.522807 C93.4713802,46.6156016 90.9641748,49.122807 87.8713802,49.122807 L52.0218479,49.122807 L52.0218479,49.1228141 C51.35876,49.1228141 50.7009417,49.0050485 50.0790375,48.7750034 C42.6130125,46.013288 38.88,41.2169449 38.88,34.3859741 C38.88,27.5550117 42.6130033,22.7586663 50.07901,19.9969381 L50.0790098,19.9969376 C50.7009169,19.7668898 51.3587386,19.6491228 52.0218302,19.6491228 Z" id="Rectangle" stroke="#FFFFFF" stroke-width="3"></path>
                            <path d="M51.9697416,25.2731824 L87.9958217,25.2731824 L87.9958217,43.3851651 L51.9697416,43.3851651 C46.8165805,42.0040727 44.24,38.9854108 44.24,34.3291794 C44.24,29.6729479 46.8165805,26.6542822 51.9697416,25.2731824 Z" id="Rectangle" fill="#00AFFF"></path>
                            <ellipse id="Oval" fill="#FFFFFF" cx="53.72" cy="34.3859649" rx="3.53333333" ry="3.50877193"></ellipse>
                        </g>
                        <g id="btc" transform="translate(0.953184, 49.757992)" fill="#FFFFFF">
                            <g id="Combined-Shape">
                                <path d="M20,40 C8.954305,40 7.46069873e-14,31.045695 7.46069873e-14,20 C7.46069873e-14,8.954305 8.954305,2.23820962e-13 20,2.23820962e-13 C31.045695,2.23820962e-13 40,8.954305 40,20 C40,31.045695 31.045695,40 20,40 Z M27.3687809,20.4628481 C29.0697524,20.0299632 30.3394835,18.8691231 30.6482505,16.5181512 C31.0746392,13.3063277 28.6371266,11.633575 25.3222569,10.5521641 L26.3280177,6.19275748 L23.7059487,5.58740514 L22.7252679,9.83185037 C22.0353828,9.67257786 21.3289501,9.5239369 20.6255848,9.37652644 L21.6112764,5.10442136 L18.9916305,4.49936728 L17.9849756,8.85743565 C17.414514,8.73809666 16.8543841,8.62053353 16.3099656,8.49484461 L16.3129424,8.48195058 L12.6966108,7.64548757 L12.0429248,10.4791458 C12.0429248,10.4791458 13.9877803,10.8893226 13.9476179,10.9177471 C15.0091153,11.1635966 15.2117007,11.8676663 15.1870393,12.4293395 L14.0413402,17.3956296 L12.430861,24.3713813 C12.3060665,24.6986435 11.9846624,25.1933753 11.242089,25.0229834 C11.2689194,25.0608674 9.33478321,24.582299 9.33478321,24.582299 L8.08316154,27.630765 L11.4948129,28.4184068 C12.1303536,28.5659165 12.7526615,28.7201218 13.3643035,28.866554 L12.3487823,33.2756817 L14.967661,33.8810811 L15.9740654,29.5185148 C16.6911917,29.6997472 17.3852178,29.8667664 18.0647882,30.0226999 L17.0616286,34.3645116 L19.6836161,34.9698451 L20.7011919,30.56894 C25.1677463,31.3302409 28.5127617,30.9187506 29.8636135,26.8177477 C30.9515466,23.516106 29.7307524,21.6483877 27.3687809,20.4628481 Z M20.0206837,12.5248378 C21.4994983,12.866249 26.2603953,13.4633166 25.5391499,16.5903517 C24.8464054,19.5879798 20.2778751,18.1643804 18.7975919,17.8226301 L20.0206837,12.5248378 Z M16.742616,26.286565 L18.0923344,20.4455035 C19.8692129,20.8552059 25.5614172,21.6247977 24.7686951,25.0618042 C24.0085082,28.3578855 18.5208276,26.6957045 16.742616,26.286565 Z"></path>
                            </g>
                        </g>
                    </g>
                    <g id="btc-wallet-1" transform="translate(158.097427, 132.403268)">
                        <g id="wallet" transform="translate(10.500000, 0.000000)">
                            <path d="M42.0773502,27.3096438 L42.0773502,29.2876324 C42.0773502,30.9444866 40.7342045,32.2876324 39.0773502,32.2876324 L12.1921801,32.2876324 C11.1607897,27.8237211 7.63886532,24.3130007 3.16876807,23.2978323 L3.16876807,5.79333968 L3.16876807,5.79333968 C3.16876807,4.13648543 4.51191382,2.79333968 6.16876807,2.79333968 L6.16876807,2.79333968 L39.0773502,2.79333968 C40.7342045,2.79333968 42.0773502,4.13648543 42.0773502,5.79333968 L42.0773502,7.00826681 L25.1929624,7.00826681 C24.8090023,7.00826681 24.4282161,7.07780263 24.0690374,7.2135081 L24.0690399,7.21351474 C19.0488772,9.11024048 16.5387959,12.4253894 16.5387959,17.1589616 C16.5387959,21.8925315 19.0488747,25.2076756 24.0690324,27.1043939 C24.4282083,27.2400979 24.8089913,27.309633 25.1929482,27.309633 L25.1929482,27.3096438 L42.0773502,27.3096438 Z" id="Combined-Shape"></path>
                            <path d="M0.36,23.0585596 L0.36,5.6 C0.36,2.5072054 2.8672054,1.45631557e-15 5.96,8.8817842e-16 L39.28,0 C42.3727946,-5.68137151e-16 44.88,2.5072054 44.88,5.6 C44.88,6.06884565 44.88,6.50925644 44.88,6.92123239 M44.88,27.3897382 C44.88,28.0194751 44.88,28.7188021 44.88,29.4877193 C44.88,32.5805139 42.3727946,35.0877193 39.28,35.0877193 L12.4864195,35.0877193" id="Rectangle" stroke="#FFFFFF" stroke-width="2"></path>
                            <path d="M26.0109006,9.8245614 L43.9356901,9.8245614 L43.9356901,9.8245614 C45.4820874,9.8245614 46.7356901,11.0781641 46.7356901,12.6245614 L46.7356901,21.7614035 L46.7356901,21.7614035 C46.7356901,23.3078008 45.4820874,24.5614035 43.9356901,24.5614035 L26.0109563,24.5614035 L26.0109563,24.5614183 C25.6794134,24.5614183 25.3505053,24.5025361 25.0395538,24.3875147 C21.3065179,23.006659 19.44,20.6084831 19.44,17.192987 C19.44,13.7775113 21.3064957,11.3793408 25.0394872,9.99847563 L25.0394852,9.99847038 C25.3504403,9.88344544 25.679353,9.8245614 26.0109006,9.8245614 Z" id="Rectangle" stroke="#FFFFFF" stroke-width="2"></path>
                            <path d="M25.9848708,12.6365912 L43.9979109,12.6365912 L43.9979109,21.6925825 L25.9848708,21.6925825 C23.4082903,21.0020364 22.12,19.4927054 22.12,17.1645897 C22.12,14.8364739 23.4082903,13.3271411 25.9848708,12.6365912 Z" id="Rectangle"></path>
                            <ellipse id="Oval" fill="#FFFFFF" cx="26.86" cy="17.1929825" rx="1.76666667" ry="1.75438596"></ellipse>
                        </g>
                        <g id="btc" transform="translate(0.976592, 24.878996)" fill="#FFFFFF">
                            <g id="Combined-Shape">
                                <path d="M10,20 C4.4771525,20 7.46069873e-14,15.5228475 7.46069873e-14,10 C7.46069873e-14,4.4771525 4.4771525,2.23820962e-13 10,2.23820962e-13 C15.5228475,2.23820962e-13 20,4.4771525 20,10 C20,15.5228475 15.5228475,20 10,20 Z M13.6843904,10.231424 C14.5348762,10.0149816 15.1697418,9.43456153 15.3241252,8.25907562 C15.5373196,6.65316386 14.3185633,5.81678752 12.6611284,5.27608203 L13.1640089,3.09637874 L11.8529743,2.79370257 L11.3626339,4.91592519 C11.0176914,4.83628893 10.6644751,4.76196845 10.3127924,4.68826322 L10.8056382,2.55221068 L9.49581527,2.24968364 L8.99248779,4.42871782 C8.70725699,4.36904833 8.42719207,4.31026677 8.15498281,4.24742231 L8.15647122,4.24097529 L6.3483054,3.82274378 L6.02146242,5.23957292 C6.02146242,5.23957292 6.99389017,5.44466129 6.97380896,5.45887355 C7.50455766,5.58179831 7.60585033,5.93383316 7.59351963,6.21466975 L7.02067009,8.69781479 L6.21543051,12.1856906 C6.15303326,12.3493217 5.99233118,12.5966876 5.62104448,12.5114917 C5.63445968,12.5304337 4.66739161,12.2911495 4.66739161,12.2911495 L4.04158077,13.8153825 L5.74740644,14.2092034 C6.06517679,14.2829582 6.37633074,14.3600609 6.68215177,14.433277 L6.17439117,16.6378409 L7.48383051,16.9405405 L7.98703269,14.7592574 C8.34559586,14.8498736 8.69260888,14.9333832 9.03239411,15.01135 L8.53081431,17.1822558 L9.84180805,17.4849225 L10.350596,15.28447 C12.5838731,15.6651204 14.2563809,15.4593753 14.9318067,13.4088739 C15.4757733,11.758053 14.8653762,10.8241939 13.6843904,10.231424 Z M10.0103418,6.26241888 C10.7497492,6.43312452 13.1301977,6.73165831 12.7695749,8.29517584 C12.4232027,9.7939899 10.1389376,9.0821902 9.39879597,8.91131505 L10.0103418,6.26241888 Z M8.371308,13.1432825 L9.04616719,10.2227518 C9.93460647,10.4276029 12.7807086,10.8123988 12.3843476,12.5309021 C12.0042541,14.1789428 9.26041379,13.3478523 8.371308,13.1432825 Z"></path>
                            </g>
                        </g>
                    </g>
                    <g id="bch-wallet" transform="translate(152.819058, 78.260131)">
                        <g id="wallet" transform="translate(16.500000, 0.000000)">
                            <path d="M18.8486692,32.2876324 L39.0773502,32.2876324 C40.7342045,32.2876324 42.0773502,30.9444866 42.0773502,29.2876324 L42.0773502,27.3096438 L25.1929482,27.3096438 L25.1929482,27.309633 C24.8089913,27.309633 24.4282083,27.2400979 24.0690324,27.1043939 C21.8292738,26.2581673 20.0891527,25.1295993 18.8486692,23.7186902 L18.8486692,32.2876324 Z M3.16876807,23.037754 L3.16876807,5.79333968 L3.16876807,5.79333968 C3.16876807,4.13648543 4.51191382,2.79333968 6.16876807,2.79333968 L6.16876807,2.79333968 L39.0773502,2.79333968 C40.7342045,2.79333968 42.0773502,4.13648543 42.0773502,5.79333968 L42.0773502,7.00826681 L25.1929624,7.00826681 C24.8090023,7.00826681 24.4282161,7.07780263 24.0690374,7.2135081 L24.0690399,7.21351474 C19.0488772,9.11024048 16.5387959,12.4253894 16.5387959,17.1589616 C16.5387959,19.4511708 17.1273932,21.4107683 18.3045878,23.037754 L3.16876807,23.037754 Z" id="Combined-Shape"></path>
                            <path d="M0.36,23.0585596 L0.36,5.6 C0.36,2.5072054 2.8672054,1.45631557e-15 5.96,8.8817842e-16 L39.28,0 C42.3727946,-5.68137151e-16 44.88,2.5072054 44.88,5.6 C44.88,6.06884565 44.88,6.50925644 44.88,6.92123239 M44.88,27.3897382 C44.88,28.0194751 44.88,28.7188021 44.88,29.4877193 C44.88,32.5805139 42.3727946,35.0877193 39.28,35.0877193 C30.2644198,35.0877193 23.5027347,35.0877193 18.9949446,35.0877193" id="Rectangle" stroke="#FFFFFF" stroke-width="2"></path>
                            <path d="M26.0109006,9.8245614 L43.9356901,9.8245614 L43.9356901,9.8245614 C45.4820874,9.8245614 46.7356901,11.0781641 46.7356901,12.6245614 L46.7356901,21.7614035 L46.7356901,21.7614035 C46.7356901,23.3078008 45.4820874,24.5614035 43.9356901,24.5614035 L26.0109563,24.5614035 L26.0109563,24.5614183 C25.6794134,24.5614183 25.3505053,24.5025361 25.0395538,24.3875147 C21.3065179,23.006659 19.44,20.6084831 19.44,17.192987 C19.44,13.7775113 21.3064957,11.3793408 25.0394872,9.99847563 L25.0394852,9.99847038 C25.3504403,9.88344544 25.679353,9.8245614 26.0109006,9.8245614 Z" id="Rectangle" stroke="#FFFFFF" stroke-width="2"></path>
                            <path d="M25.9848708,12.6365912 L43.9979109,12.6365912 L43.9979109,21.6925825 L25.9848708,21.6925825 C23.4082903,21.0020364 22.12,19.4927054 22.12,17.1645897 C22.12,14.8364739 23.4082903,13.3271411 25.9848708,12.6365912 Z" id="Rectangle"></path>
                            <ellipse id="Oval" fill="#FFFFFF" cx="26.86" cy="17.1929825" rx="1.76666667" ry="1.75438596"></ellipse>
                        </g>
                        <g id="bch" transform="translate(0.292259, 24.984263)" fill="#FFFFFF">
                            <g transform="translate(0.000000, -3.555556)">
                                <path d="M8.8,23.5555556 L0,23.5555556 L0,3.55555556 L8.8,3.55555556 L8.8,23.5555556 Z M24.2,3.55555556 L33,3.55555556 L33,23.5555556 L24.2,23.5555556 L24.2,3.55555556 Z M8.8,3.55555556 L8.8,23.5555556 C5.85463989,21.2368393 3.96,17.6170126 3.96,13.5496214 C3.96,9.48916322 5.86323864,5.87474503 8.8,3.55555556 Z M24.2,23.5555556 C27.1454858,21.2368324 29.04,17.6183692 29.04,13.5527013 C29.04,9.49036836 27.1413465,5.8745067 24.2,3.55555556 L24.2,23.5555556 Z" id="Combined-Shape"></path>
                                <g id="btc" transform="translate(16.500000, 13.555556) rotate(-26.000000) translate(-16.500000, -13.555556) translate(6.600000, 3.555556)">
                                    <g id="Combined-Shape">
                                        <path d="M10,20 C4.4771525,20 7.46069873e-14,15.5228475 7.46069873e-14,10 C7.46069873e-14,4.4771525 4.4771525,2.23820962e-13 10,2.23820962e-13 C15.5228475,2.23820962e-13 20,4.4771525 20,10 C20,15.5228475 15.5228475,20 10,20 Z M13.6843904,10.231424 C14.5348762,10.0149816 15.1697418,9.43456153 15.3241252,8.25907562 C15.5373196,6.65316386 14.3185633,5.81678752 12.6611284,5.27608203 L13.1640089,3.09637874 L11.8529743,2.79370257 L11.3626339,4.91592519 C11.0176914,4.83628893 10.6644751,4.76196845 10.3127924,4.68826322 L10.8056382,2.55221068 L9.49581527,2.24968364 L8.99248779,4.42871782 C8.70725699,4.36904833 8.42719207,4.31026677 8.15498281,4.24742231 L8.15647122,4.24097529 L6.3483054,3.82274378 L6.02146242,5.23957292 C6.02146242,5.23957292 6.99389017,5.44466129 6.97380896,5.45887355 C7.50455766,5.58179831 7.60585033,5.93383316 7.59351963,6.21466975 L7.02067009,8.69781479 L6.21543051,12.1856906 C6.15303326,12.3493217 5.99233118,12.5966876 5.62104448,12.5114917 C5.63445968,12.5304337 4.66739161,12.2911495 4.66739161,12.2911495 L4.04158077,13.8153825 L5.74740644,14.2092034 C6.06517679,14.2829582 6.37633074,14.3600609 6.68215177,14.433277 L6.17439117,16.6378409 L7.48383051,16.9405405 L7.98703269,14.7592574 C8.34559586,14.8498736 8.69260888,14.9333832 9.03239411,15.01135 L8.53081431,17.1822558 L9.84180805,17.4849225 L10.350596,15.28447 C12.5838731,15.6651204 14.2563809,15.4593753 14.9318067,13.4088739 C15.4757733,11.758053 14.8653762,10.8241939 13.6843904,10.231424 Z M10.0103418,6.26241888 C10.7497492,6.43312452 13.1301977,6.73165831 12.7695749,8.29517584 C12.4232027,9.7939899 10.1389376,9.0821902 9.39879597,8.91131505 L10.0103418,6.26241888 Z M8.371308,13.1432825 L9.04616719,10.2227518 C9.93460647,10.4276029 12.7807086,10.8123988 12.3843476,12.5309021 C12.0042541,14.1789428 9.26041379,13.3478523 8.371308,13.1432825 Z"></path>
                                    </g>
                                </g>
                            </g>
                        </g>
                    </g>
                </g>
            </g>
        </g>
    </g>
</svg>