<?xml version="1.0" encoding="UTF-8"?>
<svg width="857px" height="250px" viewBox="0 0 857 250" version="1.1" xmlns="http://www.w3.org/2000/svg" xmlns:xlink="http://www.w3.org/1999/xlink">
    <!-- Generator: sketchtool 47.1 (45422) - http://www.bohemiancoding.com/sketch -->
    <title>img/brand/logo</title>
    <desc>Created with sketchtool.</desc>
    <defs>
        <linearGradient x1="50%" y1="0%" x2="50%" y2="100%" id="linearGradient-1">
            <stop stop-color="#1E3186" offset="0%"></stop>
            <stop stop-color="#111B49" offset="100%"></stop>
        </linearGradient>
        <rect id="path-2" x="0" y="0" width="242" height="242"></rect>
    </defs>
    <g id="Img-Assets" stroke="none" stroke-width="1" fill="none" fill-rule="evenodd">
        <g id="img/brand/logo">
            <g id="app-logo">
                <g transform="translate(-26.000000, 0.000000)" id="content">
                    <g transform="translate(0.500000, 0.000000)">
                        <g id="app-logo-name" transform="translate(241.000000, 0.000000)" fill="#FFFFFF">
                            <g id="wallet">
                                <g transform="translate(13.500000, 30.500000)">
                                    <path d="M240.944079,181.315789 L238.455798,174.958368 L230.444079,174.958368 L227.983141,181.315789 L225.631579,181.315789 L233.533923,161.245477 L235.489001,161.245477 L243.350329,181.315789 L240.944079,181.315789 Z M237.731188,172.866571 L235.40697,166.673211 C235.106187,165.889353 234.796294,164.927774 234.477282,163.788446 C234.27676,164.66345 233.989654,165.625029 233.615954,166.673211 L231.264391,172.866571 L237.731188,172.866571 Z M256.010485,181.315789 L256.010485,171.62243 C256.010485,170.40107 255.732493,169.489621 255.176501,168.888055 C254.620508,168.28649 253.750074,167.985711 252.565173,167.985711 C250.997457,167.985711 249.849031,168.409535 249.11986,169.257196 C248.39069,170.104856 248.02611,171.503931 248.02611,173.454461 L248.02611,181.315789 L245.756579,181.315789 L245.756579,166.331414 L247.602282,166.331414 L247.971423,168.382196 L248.080798,168.382196 C248.545644,167.643911 249.19733,167.071976 250.035876,166.666375 C250.874422,166.260774 251.808657,166.057977 252.83861,166.057977 C254.643307,166.057977 256.001366,166.493194 256.912829,167.363641 C257.824292,168.234088 258.280016,169.626327 258.280016,171.540399 L258.280016,181.315789 L256.010485,181.315789 Z M287.90697,171.294305 C287.90697,174.49354 287.098058,177.00914 285.480212,178.84118 C283.862365,180.673221 281.613364,181.589227 278.733141,181.589227 C275.789116,181.589227 273.517329,180.689171 271.917712,178.889032 C270.318094,177.088892 269.518298,174.548228 269.518298,171.266961 C269.518298,168.013039 270.320373,165.490603 271.924548,163.699579 C273.528722,161.908554 275.807345,161.013055 278.760485,161.013055 C281.631593,161.013055 283.873758,161.924504 285.487048,163.74743 C287.100337,165.570356 287.90697,168.085956 287.90697,171.294305 Z M271.979235,171.294305 C271.979235,174.00135 272.555727,176.054389 273.708727,177.453485 C274.861728,178.85258 276.536516,179.552118 278.733141,179.552118 C280.947996,179.552118 282.620506,178.854859 283.75072,177.460321 C284.880934,176.065783 285.446032,174.010465 285.446032,171.294305 C285.446032,168.60549 284.883212,166.566122 283.757556,165.176141 C282.631899,163.78616 280.966225,163.09118 278.760485,163.09118 C276.54563,163.09118 274.861728,163.790717 273.708727,165.189813 C272.555727,166.588908 271.979235,168.623719 271.979235,171.294305 Z M298.99486,181.589227 C298.019595,181.589227 297.128653,181.409216 296.322009,181.049188 C295.515364,180.68916 294.838613,180.135455 294.291735,179.388055 L294.127673,179.388055 C294.237048,180.263059 294.291735,181.092478 294.291735,181.876336 L294.291735,188.042352 L292.022204,188.042352 L292.022204,166.331414 L293.867907,166.331414 L294.18236,168.382196 L294.291735,168.382196 C294.875071,167.561879 295.554101,166.969437 296.328845,166.604852 C297.103588,166.240267 297.992251,166.057977 298.99486,166.057977 C300.981849,166.057977 302.515363,166.737007 303.595446,168.095086 C304.67553,169.453166 305.215563,171.358095 305.215563,173.80993 C305.215563,176.27088 304.666415,178.182645 303.568102,179.545282 C302.46979,180.907919 300.945391,181.589227 298.99486,181.589227 Z M298.666735,167.985711 C297.135478,167.985711 296.028067,168.409535 295.34447,169.257196 C294.660872,170.104856 294.309964,171.453801 294.291735,173.304071 L294.291735,173.80993 C294.291735,175.915409 294.642643,177.421579 295.34447,178.328485 C296.046296,179.23539 297.171936,179.688836 298.721423,179.688836 C300.0157,179.688836 301.029687,179.164753 301.763415,178.116571 C302.497143,177.068388 302.864001,175.623741 302.864001,173.782586 C302.864001,171.914087 302.497143,170.480834 301.763415,169.482782 C301.029687,168.48473 299.997471,167.985711 298.666735,167.985711 Z M315.510485,181.589227 C313.29563,181.589227 311.547926,180.914755 310.267321,179.565789 C308.986716,178.216824 308.346423,176.343796 308.346423,173.946649 C308.346423,171.531272 308.941143,169.612672 310.130602,168.190789 C311.320061,166.768907 312.917376,166.057977 314.922595,166.057977 C316.800208,166.057977 318.28587,166.675484 319.379626,167.910516 C320.473381,169.145548 321.020251,170.774764 321.020251,172.798211 L321.020251,174.233758 L310.697985,174.233758 C310.743558,175.992882 311.18789,177.328155 312.030993,178.239618 C312.874096,179.15108 314.061259,179.606805 315.592516,179.606805 C317.205806,179.606805 318.800842,179.269569 320.377673,178.595086 L320.377673,180.618524 C319.575585,180.96488 318.816804,181.21325 318.101306,181.363641 C317.385807,181.514032 316.522209,181.589227 315.510485,181.589227 Z M314.895251,167.958368 C313.69212,167.958368 312.73282,168.350291 312.017321,169.134149 C311.301823,169.918007 310.880278,171.002632 310.752673,172.388055 L318.586657,172.388055 C318.586657,170.957058 318.26765,169.861041 317.629626,169.099969 C316.991602,168.338898 316.080153,167.958368 314.895251,167.958368 Z M335.143298,181.315789 L335.143298,171.62243 C335.143298,170.40107 334.865306,169.489621 334.309313,168.888055 C333.753321,168.28649 332.882887,167.985711 331.697985,167.985711 C330.130269,167.985711 328.981843,168.409535 328.252673,169.257196 C327.523502,170.104856 327.158923,171.503931 327.158923,173.454461 L327.158923,181.315789 L324.889391,181.315789 L324.889391,166.331414 L326.735095,166.331414 L327.104235,168.382196 L327.21361,168.382196 C327.678456,167.643911 328.330142,167.071976 329.168688,166.666375 C330.007234,166.260774 330.94147,166.057977 331.971423,166.057977 C333.776119,166.057977 335.134179,166.493194 336.045641,167.363641 C336.957104,168.234088 337.412829,169.626327 337.412829,171.540399 L337.412829,181.315789 L335.143298,181.315789 Z M367.135485,181.315789 L364.83861,181.315789 L360.805407,167.931024 C360.614,167.338573 360.399809,166.591185 360.162829,165.688836 C359.925849,164.786488 359.802803,164.244176 359.793688,164.061883 C359.593166,165.265014 359.274159,166.582058 358.836657,168.013055 L354.926501,181.315789 L352.629626,181.315789 L347.311266,161.327508 L349.772204,161.327508 L352.930407,173.673211 C353.367909,175.404991 353.686916,176.972683 353.887438,178.376336 C354.133533,176.708359 354.498113,175.076865 354.981188,173.481805 L358.56322,161.327508 L361.024157,161.327508 L364.783923,173.59118 C365.221425,175.003948 365.590562,176.598984 365.891345,178.376336 C366.064523,177.082059 366.392644,175.505252 366.87572,173.645868 L370.020251,161.327508 L372.481188,161.327508 L367.135485,181.315789 Z M383.924548,181.315789 L383.473376,179.182977 L383.364001,179.182977 C382.616601,180.121784 381.871492,180.75752 381.128649,181.090204 C380.385807,181.422887 379.458407,181.589227 378.346423,181.589227 C376.860738,181.589227 375.696362,181.206418 374.853259,180.440789 C374.010155,179.675161 373.58861,178.585979 373.58861,177.173211 C373.58861,174.147155 376.008508,172.561233 380.848376,172.415399 L383.391345,172.333368 L383.391345,171.40368 C383.391345,170.227893 383.138417,169.359738 382.632556,168.799188 C382.126694,168.238638 381.317782,167.958368 380.205798,167.958368 C378.957094,167.958368 377.544347,168.341176 375.967516,169.106805 L375.270251,167.370477 C376.008536,166.969433 376.817447,166.654983 377.697009,166.427118 C378.57657,166.199252 379.458397,166.085321 380.342516,166.085321 C382.128984,166.085321 383.452864,166.481801 384.314196,167.274774 C385.175529,168.067747 385.606188,169.339218 385.606188,171.089227 L385.606188,181.315789 L383.924548,181.315789 Z M378.797595,179.71618 C380.210362,179.71618 381.320051,179.328814 382.126696,178.554071 C382.933341,177.779327 383.336657,176.694703 383.336657,175.300164 L383.336657,173.946649 L381.067126,174.042352 C379.262429,174.106154 377.961336,174.386425 377.163806,174.883172 C376.366275,175.37992 375.967516,176.152373 375.967516,177.200555 C375.967516,178.020872 376.215886,178.645214 376.712634,179.073602 C377.209381,179.50199 377.904361,179.71618 378.797595,179.71618 Z M392.551501,181.315789 L390.28197,181.315789 L390.28197,160.042352 L392.551501,160.042352 L392.551501,181.315789 Z M399.633532,181.315789 L397.364001,181.315789 L397.364001,160.042352 L399.633532,160.042352 L399.633532,181.315789 Z M410.77611,181.589227 C408.561255,181.589227 406.813551,180.914755 405.532946,179.565789 C404.252341,178.216824 403.612048,176.343796 403.612048,173.946649 C403.612048,171.531272 404.206768,169.612672 405.396227,168.190789 C406.585686,166.768907 408.183001,166.057977 410.18822,166.057977 C412.065833,166.057977 413.551495,166.675484 414.645251,167.910516 C415.739006,169.145548 416.285876,170.774764 416.285876,172.798211 L416.285876,174.233758 L405.96361,174.233758 C406.009183,175.992882 406.453515,177.328155 407.296618,178.239618 C408.139721,179.15108 409.326884,179.606805 410.858141,179.606805 C412.471431,179.606805 414.066467,179.269569 415.643298,178.595086 L415.643298,180.618524 C414.84121,180.96488 414.082429,181.21325 413.366931,181.363641 C412.651432,181.514032 411.787834,181.589227 410.77611,181.589227 Z M410.160876,167.958368 C408.957745,167.958368 407.998445,168.350291 407.282946,169.134149 C406.567448,169.918007 406.145903,171.002632 406.018298,172.388055 L413.852282,172.388055 C413.852282,170.957058 413.533275,169.861041 412.895251,169.099969 C412.257227,168.338898 411.345778,167.958368 410.160876,167.958368 Z M424.99486,179.71618 C425.395904,179.71618 425.78327,179.686558 426.15697,179.627313 C426.530669,179.568068 426.82689,179.506545 427.045641,179.442743 L427.045641,181.179071 C426.799546,181.297561 426.437245,181.395542 425.958727,181.473016 C425.480209,181.55049 425.04955,181.589227 424.666735,181.589227 C421.768283,181.589227 420.319079,180.06255 420.319079,177.009149 L420.319079,168.095086 L418.172595,168.095086 L418.172595,167.001336 L420.319079,166.057977 L421.27611,162.858758 L422.58861,162.858758 L422.58861,166.331414 L426.936266,166.331414 L426.936266,168.095086 L422.58861,168.095086 L422.58861,176.913446 C422.58861,177.815794 422.802801,178.508495 423.231188,178.991571 C423.659576,179.474646 424.247461,179.71618 424.99486,179.71618 Z M448.934313,175.99743 C448.934313,177.756553 448.296299,179.128285 447.020251,180.112664 C445.744203,181.097044 444.012449,181.589227 441.824938,181.589227 C439.455135,181.589227 437.632236,181.283891 436.356188,180.673211 L436.356188,178.431024 C437.176505,178.77738 438.069725,179.050815 439.035876,179.251336 C440.002026,179.451858 440.959048,179.552118 441.90697,179.552118 C443.456456,179.552118 444.623111,179.258175 445.40697,178.670282 C446.190828,178.082388 446.582751,177.264362 446.582751,176.21618 C446.582751,175.523468 446.443755,174.956091 446.165759,174.514032 C445.887762,174.071972 445.422923,173.664099 444.771227,173.290399 C444.119531,172.916699 443.12833,172.492875 441.797595,172.018914 C439.93821,171.353547 438.609773,170.565143 437.812243,169.65368 C437.014713,168.742217 436.615954,167.552776 436.615954,166.085321 C436.615954,164.544948 437.194724,163.319049 438.352282,162.407586 C439.50984,161.496123 441.041075,161.040399 442.946032,161.040399 C444.933021,161.040399 446.760477,161.404979 448.428454,162.134149 L447.703845,164.157586 C446.054097,163.464875 444.449946,163.118524 442.891345,163.118524 C441.66087,163.118524 440.699291,163.382844 440.006579,163.911493 C439.313867,164.440141 438.967516,165.173858 438.967516,166.112664 C438.967516,166.805376 439.095119,167.372753 439.350329,167.814813 C439.605539,168.256872 440.036198,168.662467 440.642321,169.03161 C441.248444,169.400752 442.175844,169.808626 443.424548,170.255243 C445.520912,171.002642 446.963281,171.804717 447.751696,172.661493 C448.540112,173.518268 448.934313,174.630236 448.934313,175.99743 Z M457.520251,179.71618 C457.921294,179.71618 458.30866,179.686558 458.68236,179.627313 C459.05606,179.568068 459.352281,179.506545 459.571032,179.442743 L459.571032,181.179071 C459.324937,181.297561 458.962636,181.395542 458.484118,181.473016 C458.0056,181.55049 457.57494,181.589227 457.192126,181.589227 C454.293674,181.589227 452.84447,180.06255 452.84447,177.009149 L452.84447,168.095086 L450.697985,168.095086 L450.697985,167.001336 L452.84447,166.057977 L453.801501,162.858758 L455.114001,162.858758 L455.114001,166.331414 L459.461657,166.331414 L459.461657,168.095086 L455.114001,168.095086 L455.114001,176.913446 C455.114001,177.815794 455.328191,178.508495 455.756579,178.991571 C456.184967,179.474646 456.772851,179.71618 457.520251,179.71618 Z M471.780016,181.315789 L471.328845,179.182977 L471.21947,179.182977 C470.47207,180.121784 469.72696,180.75752 468.984118,181.090204 C468.241276,181.422887 467.313876,181.589227 466.201891,181.589227 C464.716207,181.589227 463.551831,181.206418 462.708727,180.440789 C461.865624,179.675161 461.444079,178.585979 461.444079,177.173211 C461.444079,174.147155 463.863977,172.561233 468.703845,172.415399 L471.246813,172.333368 L471.246813,171.40368 C471.246813,170.227893 470.993886,169.359738 470.488024,168.799188 C469.982162,168.238638 469.173251,167.958368 468.061266,167.958368 C466.812562,167.958368 465.399816,168.341176 463.822985,169.106805 L463.12572,167.370477 C463.864005,166.969433 464.672916,166.654983 465.552477,166.427118 C466.432039,166.199252 467.313866,166.085321 468.197985,166.085321 C469.984452,166.085321 471.308332,166.481801 472.169665,167.274774 C473.030997,168.067747 473.461657,169.339218 473.461657,171.089227 L473.461657,181.315789 L471.780016,181.315789 Z M466.653063,179.71618 C468.065831,179.71618 469.17552,179.328814 469.982165,178.554071 C470.78881,177.779327 471.192126,176.694703 471.192126,175.300164 L471.192126,173.946649 L468.922595,174.042352 C467.117898,174.106154 465.816804,174.386425 465.019274,174.883172 C464.221744,175.37992 463.822985,176.152373 463.822985,177.200555 C463.822985,178.020872 464.071355,178.645214 464.568102,179.073602 C465.06485,179.50199 465.75983,179.71618 466.653063,179.71618 Z M484.12572,181.589227 C481.956438,181.589227 480.277093,180.92159 479.087634,179.586297 C477.898175,178.251004 477.303454,176.362026 477.303454,173.919305 C477.303454,171.412782 477.907289,169.475953 479.114977,168.108758 C480.322666,166.741564 482.043026,166.057977 484.27611,166.057977 C484.996166,166.057977 485.716211,166.13545 486.436266,166.290399 C487.156322,166.445348 487.721421,166.627637 488.131579,166.837274 L487.434313,168.765008 C486.933009,168.564486 486.386139,168.398147 485.793688,168.265985 C485.201237,168.133823 484.677154,168.067743 484.221423,168.067743 C481.177137,168.067743 479.655016,170.009129 479.655016,173.891961 C479.655016,175.733116 480.026432,177.145863 480.769274,178.130243 C481.512117,179.114623 482.612691,179.606805 484.071032,179.606805 C485.319736,179.606805 486.600322,179.337928 487.912829,178.800164 L487.912829,180.80993 C486.91022,181.329464 485.647863,181.589227 484.12572,181.589227 Z M493.709704,173.645868 C494.101633,173.089875 494.698632,172.360716 495.50072,171.458368 L500.340563,166.331414 L503.033923,166.331414 L496.96361,172.71618 L503.457751,181.315789 L500.709704,181.315789 L495.418688,174.233758 L493.709704,175.710321 L493.709704,181.315789 L491.467516,181.315789 L491.467516,160.042352 L493.709704,160.042352 L493.709704,171.321649 C493.709704,171.822953 493.673246,172.597685 493.600329,173.645868 L493.709704,173.645868 Z M520.410876,181.589227 C519.435611,181.589227 518.544669,181.409216 517.738024,181.049188 C516.93138,180.68916 516.254629,180.135455 515.707751,179.388055 L515.543688,179.388055 C515.653064,180.263059 515.707751,181.092478 515.707751,181.876336 L515.707751,188.042352 L513.43822,188.042352 L513.43822,166.331414 L515.283923,166.331414 L515.598376,168.382196 L515.707751,168.382196 C516.291087,167.561879 516.970117,166.969437 517.74486,166.604852 C518.519604,166.240267 519.408267,166.057977 520.410876,166.057977 C522.397865,166.057977 523.931378,166.737007 525.011462,168.095086 C526.091545,169.453166 526.631579,171.358095 526.631579,173.80993 C526.631579,176.27088 526.082431,178.182645 524.984118,179.545282 C523.885805,180.907919 522.361406,181.589227 520.410876,181.589227 Z M520.082751,167.985711 C518.551493,167.985711 517.444082,168.409535 516.760485,169.257196 C516.076888,170.104856 515.72598,171.453801 515.707751,173.304071 L515.707751,173.80993 C515.707751,175.915409 516.058659,177.421579 516.760485,178.328485 C517.462312,179.23539 518.587951,179.688836 520.137438,179.688836 C521.431716,179.688836 522.445703,179.164753 523.179431,178.116571 C523.913158,177.068388 524.280016,175.623741 524.280016,173.782586 C524.280016,171.914087 523.913158,170.480834 523.179431,169.482782 C522.445703,168.48473 521.413487,167.985711 520.082751,167.985711 Z M537.43236,166.057977 C538.097728,166.057977 538.694727,166.112664 539.223376,166.222039 L538.908923,168.327508 C538.289128,168.190789 537.742258,168.12243 537.268298,168.12243 C536.056052,168.12243 535.019279,168.614613 534.157946,169.598993 C533.296614,170.583373 532.865954,171.809272 532.865954,173.276727 L532.865954,181.315789 L530.596423,181.315789 L530.596423,166.331414 L532.46947,166.331414 L532.729235,169.106805 L532.83861,169.106805 C533.394603,168.13154 534.064518,167.379594 534.848376,166.850946 C535.632234,166.322297 536.493553,166.057977 537.43236,166.057977 Z M554.399157,173.80993 C554.399157,176.252651 553.783929,178.159858 552.553454,179.53161 C551.322979,180.903361 549.623126,181.589227 547.453845,181.589227 C546.113994,181.589227 544.924553,181.274777 543.885485,180.645868 C542.846418,180.016958 542.044342,179.114623 541.479235,177.938836 C540.914128,176.763049 540.631579,175.386761 540.631579,173.80993 C540.631579,171.36721 541.24225,169.464559 542.46361,168.101922 C543.68497,166.739285 545.380266,166.057977 547.549548,166.057977 C549.645912,166.057977 551.311586,166.755236 552.546618,168.149774 C553.78165,169.544312 554.399157,171.431012 554.399157,173.80993 Z M542.983141,173.80993 C542.983141,175.724002 543.36595,177.182321 544.131579,178.18493 C544.897208,179.187539 546.022848,179.688836 547.508532,179.688836 C548.994217,179.688836 550.122135,179.189818 550.892321,178.191766 C551.662507,177.193714 552.047595,175.733117 552.047595,173.80993 C552.047595,171.904973 551.662507,170.458047 550.892321,169.46911 C550.122135,168.480173 548.985102,167.985711 547.481188,167.985711 C545.995504,167.985711 544.874421,168.473337 544.117907,169.448602 C543.361393,170.423867 542.983141,171.877629 542.983141,173.80993 Z M556.559313,188.042352 C555.693424,188.042352 554.991608,187.928421 554.453845,187.700555 L554.453845,185.854852 C555.082754,186.037145 555.702539,186.128289 556.31322,186.128289 C557.024161,186.128289 557.545965,185.934607 557.878649,185.547235 C558.211333,185.159863 558.377673,184.5697 558.377673,183.776727 L558.377673,166.331414 L560.647204,166.331414 L560.647204,183.612664 C560.647204,186.565804 559.284587,188.042352 556.559313,188.042352 Z M558.186266,162.270868 C558.186266,161.751334 558.313869,161.370804 558.569079,161.129266 C558.824289,160.887728 559.143296,160.766961 559.52611,160.766961 C559.890695,160.766961 560.205145,160.890007 560.46947,161.136102 C560.733794,161.382197 560.865954,161.760448 560.865954,162.270868 C560.865954,162.781287 560.733794,163.161817 560.46947,163.412469 C560.205145,163.663121 559.890695,163.788446 559.52611,163.788446 C559.143296,163.788446 558.824289,163.663121 558.569079,163.412469 C558.313869,163.161817 558.186266,162.781287 558.186266,162.270868 Z M571.789782,181.589227 C569.574927,181.589227 567.827223,180.914755 566.546618,179.565789 C565.266013,178.216824 564.62572,176.343796 564.62572,173.946649 C564.62572,171.531272 565.22044,169.612672 566.409899,168.190789 C567.599358,166.768907 569.196673,166.057977 571.201891,166.057977 C573.079505,166.057977 574.565167,166.675484 575.658923,167.910516 C576.752678,169.145548 577.299548,170.774764 577.299548,172.798211 L577.299548,174.233758 L566.977282,174.233758 C567.022855,175.992882 567.467187,177.328155 568.31029,178.239618 C569.153393,179.15108 570.340556,179.606805 571.871813,179.606805 C573.485103,179.606805 575.080139,179.269569 576.65697,178.595086 L576.65697,180.618524 C575.854882,180.96488 575.096101,181.21325 574.380602,181.363641 C573.665104,181.514032 572.801506,181.589227 571.789782,181.589227 Z M571.174548,167.958368 C569.971417,167.958368 569.012116,168.350291 568.296618,169.134149 C567.58112,169.918007 567.159574,171.002632 567.03197,172.388055 L574.865954,172.388055 C574.865954,170.957058 574.546947,169.861041 573.908923,169.099969 C573.270899,168.338898 572.359449,167.958368 571.174548,167.958368 Z M587.15697,181.589227 C584.987688,181.589227 583.308343,180.92159 582.118884,179.586297 C580.929425,178.251004 580.334704,176.362026 580.334704,173.919305 C580.334704,171.412782 580.938539,169.475953 582.146227,168.108758 C583.353916,166.741564 585.074276,166.057977 587.30736,166.057977 C588.027416,166.057977 588.747461,166.13545 589.467516,166.290399 C590.187572,166.445348 590.752671,166.627637 591.162829,166.837274 L590.465563,168.765008 C589.964259,168.564486 589.417389,168.398147 588.824938,168.265985 C588.232487,168.133823 587.708404,168.067743 587.252673,168.067743 C584.208387,168.067743 582.686266,170.009129 582.686266,173.891961 C582.686266,175.733116 583.057682,177.145863 583.800524,178.130243 C584.543367,179.114623 585.643941,179.606805 587.102282,179.606805 C588.350986,179.606805 589.631572,179.337928 590.944079,178.800164 L590.944079,180.80993 C589.94147,181.329464 588.679113,181.589227 587.15697,181.589227 Z M599.33861,179.71618 C599.739654,179.71618 600.12702,179.686558 600.50072,179.627313 C600.874419,179.568068 601.17064,179.506545 601.389391,179.442743 L601.389391,181.179071 C601.143296,181.297561 600.780995,181.395542 600.302477,181.473016 C599.823959,181.55049 599.3933,181.589227 599.010485,181.589227 C596.112033,181.589227 594.662829,180.06255 594.662829,177.009149 L594.662829,168.095086 L592.516345,168.095086 L592.516345,167.001336 L594.662829,166.057977 L595.61986,162.858758 L596.93236,162.858758 L596.93236,166.331414 L601.280016,166.331414 L601.280016,168.095086 L596.93236,168.095086 L596.93236,176.913446 C596.93236,177.815794 597.146551,178.508495 597.574938,178.991571 C598.003326,179.474646 598.591211,179.71618 599.33861,179.71618 Z" id="An-Open-Wallet-Stack-project"></path>
                                    <path d="M263.67092,149.395538 L258.087759,134.609605 L257.137434,134.609605 C250.8019,141.074482 244.426865,145.475014 238.012138,147.811331 C231.59741,150.147648 223.36134,151.315789 213.303681,151.315789 C200.395031,151.315789 190.317724,148.499449 183.071458,142.866684 C175.825192,137.23392 172.202113,129.264957 172.202113,118.959558 C172.202113,108.014072 177.230867,99.7570743 187.288526,94.1883182 C197.346186,88.6195621 212.670027,85.5791948 233.260511,85.0671253 L255.949527,84.49105 L255.949527,78.8263091 C255.949527,72.0413878 253.989501,66.9687752 250.069389,63.6083189 C246.149278,60.2478626 240.071217,58.5676596 231.835023,58.5676596 C225.103519,58.5676596 218.649291,59.3677563 212.472146,60.9679736 C206.295001,62.5681908 200.355527,64.4564189 194.653547,66.6327144 L185.625457,50.5026049 C192.752932,47.4941964 200.553441,45.20592 209.027217,43.6377071 C217.500993,42.0694941 225.499484,41.2853994 233.02293,41.2853994 C249.732899,41.2853994 262.344382,44.229755 270.857755,50.1185546 C279.371128,56.0073542 283.62775,65.2564714 283.62775,77.8661835 L283.62775,149.395538 L263.67092,149.395538 Z M222.094189,134.033529 C232.231043,134.033529 240.368122,131.745253 246.50567,127.168631 C252.643218,122.59201 255.711946,116.175235 255.711946,107.918114 L255.711946,98.7009084 L238.843672,99.2769837 C225.69744,99.6610359 216.134888,101.43725 210.155728,104.605681 C204.176568,107.774111 201.187033,112.622696 201.187033,119.151583 C201.187033,123.888226 202.929279,127.552669 206.413822,130.145021 C209.898366,132.737373 215.125103,134.033529 222.094189,134.033529 Z M333.129515,149.395538 L305.21371,149.395538 L305.21371,0 L333.129515,0 L333.129515,149.395538 Z M383.581605,149.395538 L355.6658,149.395538 L355.6658,0 L383.581605,0 L383.581605,149.395538 Z M463.493778,151.315789 C443.061682,151.315789 427.084498,146.499208 415.561747,136.8659 C404.038995,127.232592 398.277706,113.966989 398.277706,97.0686949 C398.277706,79.7223396 403.623232,66.0886929 414.314445,56.1673457 C425.005658,46.2459986 439.695956,41.2853994 458.385779,41.2853994 C475.729302,41.2853994 489.429688,45.5419135 499.487347,54.0550695 C509.545007,62.5682254 514.573761,74.2816402 514.573761,89.1956652 L514.573761,101.38926 L427.025045,101.38926 C427.421016,111.694659 430.865911,119.615616 437.359833,125.152368 C443.853755,130.68912 453.000544,133.457454 464.800475,133.457454 C472.561503,133.457454 479.787863,132.865382 486.47977,131.681222 C493.171677,130.497061 500.35844,128.528823 508.040275,125.776449 L508.040275,144.114848 C501.229576,146.739204 494.339787,148.595428 487.3707,149.683576 C480.401613,150.771724 472.442719,151.315789 463.493778,151.315789 Z M458.385779,58.3756345 C449.516032,58.3756345 442.408462,60.647909 437.062856,65.192526 C431.71725,69.7371431 428.529732,76.3619433 427.500208,85.0671253 L487.133119,85.0671253 C486.97473,76.2979346 484.361362,69.6571325 479.292935,65.1445198 C474.224508,60.631907 467.255526,58.3756345 458.385779,58.3756345 Z M582.199586,133.073404 C589.010284,133.073404 595.82088,132.209299 602.631579,130.481065 L602.631579,147.475287 C599.543006,148.563435 595.563559,149.475545 590.693118,150.211645 C585.822676,150.947745 580.774124,151.315789 575.547309,151.315789 C549.096457,151.315789 535.871229,140.050429 535.871229,117.519369 L535.871229,60.2958857 L517.933839,60.2958857 L517.933839,50.3105797 L537.177926,42.0534999 L546.681179,19.5865616 L563.905824,19.5865616 L563.905824,43.2056505 L601.324882,43.2056505 L601.324882,60.2958857 L563.905824,60.2958857 L563.905824,117.135319 C563.905824,122.576058 565.588675,126.592543 568.954427,129.184895 C572.320179,131.777247 576.735188,133.073404 582.199586,133.073404 Z" id="allet"></path>
                                    <path d="M88.1449697,94.0687443 L110.383663,94.0687443 C113.91875,102.736022 116.227612,109.093322 117.310249,113.140644 C118.934205,119.211627 120.142251,124.591915 120.934425,129.281669 L121.647377,129.281669 C123.231725,120.030648 125.925074,108.916739 129.727507,95.9396117 L146.481894,43.4210526 L175,43.4210526 L138.164114,150 L107.048823,150 C102.093236,135.890771 95.7090091,117.474264 87.8961418,94.75048 L67.7305008,150 L36.8358864,150 L0,43.4210526 L28.5181056,43.4210526 L45.2724927,95.9396117 C49.0749258,108.916739 51.7682755,120.030648 53.3526226,129.281669 L54.0655752,129.281669 C54.8577488,124.591915 56.0657954,119.211627 57.6897512,113.140644 C59.313707,107.069661 60.7197939,102.524523 61.9080543,99.5050918 L81.8707282,43.4210526 L106.630979,43.4210526 L88.1449697,94.0687443 Z" id="w"></path>
                                </g>
                            </g>
                        </g>
                        <g id="app-logo-image" transform="translate(0.340000, 4.520000)">
                            <g id="app-icon" transform="translate(-0.480080, -0.480080)">
                                <mask id="mask-3" fill="white">
                                    <use xlink:href="#path-2"></use>
                                </mask>
                                <g id="Rectangle"></g>
                                <g id="icon" stroke-width="1" fill-rule="evenodd" mask="url(#mask-3)">
                                    <g transform="translate(24.253410, 24.253410)" id="inner">
                                        <g transform="translate(25.459629, 25.292930)">
                                            <polygon id="Path" stroke="#FFFFFF" stroke-width="1.72368" fill="#FFFFFF" points="14.7910656 0.0467710309 136.36281 0.0467710309 95.3959652 57.5243396"></polygon>
                                            <polygon id="Path" stroke="#FFFFFF" stroke-width="1.72368" fill="#FFFFFF" transform="translate(113.876080, 75.616609) rotate(90.000000) translate(-113.876080, -75.616609) " points="53.0902078 46.8778246 174.661952 46.8778246 133.695107 104.355393"></polygon>
                                            <polygon id="Path" stroke="#FFFFFF" stroke-width="1.72368" fill="#FFFFFF" transform="translate(28.760458, 67.263994) scale(-1, -1) rotate(90.000000) translate(-28.760458, -67.263994) " points="-32.0254144 38.5252101 89.5463296 38.5252101 48.5794852 96.0027786"></polygon>
                                            <polygon id="Path" stroke="#FFFFFF" stroke-width="1.72368" fill="#FFFFFF" transform="translate(67.139383, 113.941409) scale(-1, -1) translate(-67.139383, -113.941409) " points="6.35351063 85.2026246 127.925255 85.2026246 86.9584102 142.680193"></polygon>
                                        </g>
                                    </g>
                                </g>
                            </g>
                        </g>
                    </g>
                </g>
            </g>
        </g>
    </g>
</svg>