<?xml version="1.0" encoding="UTF-8"?>
<svg width="88px" height="80px" viewBox="0 0 88 80" version="1.1" xmlns="http://www.w3.org/2000/svg" xmlns:xlink="http://www.w3.org/1999/xlink">
    <!-- Generator: sketchtool 47.1 (45422) - http://www.bohemiancoding.com/sketch -->
    <title>img/icon-send-feedback</title>
    <desc>Created with sketchtool.</desc>
    <defs></defs>
    <g id="Img-Assets" stroke="none" stroke-width="1" fill="none" fill-rule="evenodd">
        <g id="img/icon-send-feedback" stroke="#FFFFFF">
            <g id="icon-send-feedback" transform="translate(0.000000, 1.000000)">
                <g id="Shape">
                    <polyline stroke-width="3" points="16.4229653 20.2204459 0.837892915 31.5196218 0.837892915 78.274839 86.5557908 78.274839 86.5557908 31.5196218 70.9707184 20.2204459"></polyline>
                    <path d="M0.837892915,31.5196218 L86.5557908,78.274839" stroke-width="3"></path>
                    <path d="M86.5557908,31.5196218 L43.6968419,54.8972305" stroke-width="3"></path>
                    <path d="M50.8899502,0.349477095 C47.8928203,0.349477095 45.1954046,1.8480418 43.6968419,4.24574518 C42.1982752,1.8480418 39.5008596,0.349477095 36.5037302,0.349477095 C31.7083234,0.349477095 28.1117695,4.24574518 28.1117695,9.04114999 C28.1117695,17.4331126 43.6968419,30.3207693 43.6968419,30.3207693 C43.6968419,30.3207693 59.2819144,17.4331126 59.2819144,9.04114999 C59.2819144,4.24574518 55.6853566,0.349477095 50.8899502,0.349477095 L50.8899502,0.349477095 Z" stroke-width="3"></path>
                </g>
            </g>
        </g>
    </g>
</svg>