<?xml version="1.0" encoding="UTF-8"?>
<svg width="91px" height="91px" viewBox="0 0 91 91" version="1.1" xmlns="http://www.w3.org/2000/svg" xmlns:xlink="http://www.w3.org/1999/xlink">
    <!-- Generator: sketchtool 47.1 (45422) - http://www.bohemiancoding.com/sketch -->
    <title>img/icon-alternative-currency</title>
    <desc>Created with sketchtool.</desc>
    <defs></defs>
    <g id="Img-Assets" stroke="none" stroke-width="1" fill="none" fill-rule="evenodd">
        <g id="img/icon-alternative-currency" stroke="#FFFFFF">
            <g id="icon-alternative-currency" transform="translate(1.000000, 1.000000)">
                <g>
                    <polyline id="Shape" stroke-width="3" points="58.8695628 64.9565194 0.0289833333 64.9565194 0.0289833333 0.0289833333 89.3043456 0.0289833333 89.3043456 44.2608674"></polyline>
                    <circle id="Oval" stroke-width="3" cx="44.6666645" cy="32.4927514" r="8.11594206"></circle>
                    <path d="M77.1304328,36.5507224 L77.1304328,24.3768094 C70.2318817,24.3768094 64.9565194,19.1014471 64.9565194,12.2028964 L24.3768094,12.2028964 C24.3768094,19.1014471 19.1014471,24.3768094 12.2028964,24.3768094 L12.2028964,40.6086935 C19.1014471,40.6086935 24.3768094,45.8840558 24.3768094,52.7826065 L58.8695628,52.7826065" id="Shape" stroke-width="3"></path>
                    <path d="M83.6231861,75.1014472 C86.8695628,76.7246356 89.3043456,78.7536211 89.3043456,81.1884039 C89.3043456,85.6521717 81.9999978,89.3043456 73.0724617,89.3043456 C64.1449256,89.3043456 56.8405778,85.6521717 56.8405778,81.1884039 C56.8405778,78.7536211 58.8695628,76.7246356 62.5217372,75.1014472" id="Shape" stroke-width="3"></path>
                    <path d="M83.6231861,62.9275339 C86.8695628,64.5507222 89.3043456,66.5797078 89.3043456,69.0144906 C89.3043456,73.4782589 81.9999978,77.1304328 73.0724617,77.1304328 C64.1449256,77.1304328 56.8405778,73.4782589 56.8405778,69.0144906 C56.8405778,66.5797078 58.8695628,64.5507222 62.11594,62.9275339" id="Shape" stroke-width="3"></path>
                    <path d="M83.6231861,50.753621 C86.8695628,52.3768094 89.3043456,54.4057949 89.3043456,56.8405778 C89.3043456,61.3043456 81.9999978,64.9565194 73.0724617,64.9565194 C64.1449256,64.9565194 56.8405778,61.3043456 56.8405778,56.8405778 C56.8405778,54.4057949 58.8695628,52.3768094 62.11594,50.753621" id="Shape" stroke-width="3"></path>
                    <ellipse id="Oval" stroke-width="3" cx="73.0724617" cy="44.6666645" rx="16.2318841" ry="8.11594206"></ellipse>
                </g>
            </g>
        </g>
        <g id="Text" transform="translate(-427.000000, -638.000000)"></g>
    </g>
</svg>