<?xml version="1.0" encoding="UTF-8"?>
<svg width="86px" height="100px" viewBox="0 0 86 100" version="1.1" xmlns="http://www.w3.org/2000/svg" xmlns:xlink="http://www.w3.org/1999/xlink">
    <!-- Generator: sketchtool 47.1 (45422) - http://www.bohemiancoding.com/sketch -->
    <title>img/icon-unit</title>
    <desc>Created with sketchtool.</desc>
    <defs></defs>
    <g id="Img-Assets" stroke="none" stroke-width="1" fill="none" fill-rule="evenodd">
        <g id="img/icon-unit" fill="#FFFFFF">
            <g id="icon-unit">
                <g id="Shape">
                    <path d="M78.5644533,0 L7.17773439,0 C3.22265625,0 0,3.17382812 0,7.12890622 L0,92.8710939 C0,96.7773439 3.22265625,100 7.17773439,100 L78.5644533,100 C82.5195311,100 85.7421878,96.7773439 85.7421878,92.8710939 L85.7421878,7.12890622 C85.7421878,3.17382812 82.5195311,0 78.5644533,0 L78.5644533,0 Z M82.1777344,92.8710939 C82.1777344,94.8242189 80.5664061,96.4355467 78.5644533,96.4355467 L7.17773439,96.4355467 C5.17578125,96.4355467 3.56445312,94.8242189 3.56445312,92.8710939 L3.56445312,7.12890622 C3.56445312,5.17578125 5.17578125,3.56445312 7.17773439,3.56445312 L78.5644533,3.56445312 C80.5664061,3.56445312 82.1777344,5.17578125 82.1777344,7.12890622 L82.1777344,92.8710939 Z M71.4355467,10.6933594 L14.3066406,10.6933594 C12.3046875,10.6933594 10.7421875,12.3046875 10.7421875,14.2578125 L10.7421875,32.1289062 C10.7421875,34.1308594 12.3046875,35.6933594 14.3066406,35.6933594 L71.4355467,35.6933594 C73.4375,35.6933594 75,34.1308594 75,32.1289062 L75,14.2578125 C75,12.3046875 73.4375,10.6933594 71.4355467,10.6933594 L71.4355467,10.6933594 Z M71.4355467,32.1289062 L14.3066406,32.1289062 L14.3066406,14.2578125 L71.4355467,14.2578125 L71.4355467,32.1289062 Z M35.7421875,42.8710938 L32.1777344,42.8710938 C30.1757812,42.8710938 28.5644531,44.4335938 28.5644531,46.4355469 L28.5644531,50 C28.5644531,51.953125 30.1757812,53.5644531 32.1777344,53.5644531 L35.7421875,53.5644531 C37.6953125,53.5644531 39.3066406,51.953125 39.3066406,50 L39.3066406,46.4355469 C39.3066406,44.4335938 37.6953125,42.8710938 35.7421875,42.8710938 L35.7421875,42.8710938 Z M53.5644531,42.8710938 L50,42.8710938 C48.046875,42.8710938 46.4355469,44.4335938 46.4355469,46.4355469 L46.4355469,50 C46.4355469,51.953125 48.046875,53.5644531 50,53.5644531 L53.5644531,53.5644531 C55.5664061,53.5644531 57.1777344,51.953125 57.1777344,50 L57.1777344,46.4355469 C57.1777344,44.4335938 55.5664061,42.8710938 53.5644531,42.8710938 L53.5644531,42.8710938 Z M17.8710938,42.8710938 L14.3066406,42.8710938 C12.3046875,42.8710938 10.7421875,44.4335938 10.7421875,46.4355469 L10.7421875,50 C10.7421875,51.953125 12.3046875,53.5644531 14.3066406,53.5644531 L17.8710938,53.5644531 C19.8242188,53.5644531 21.4355469,51.953125 21.4355469,50 L21.4355469,46.4355469 C21.4355469,44.4335938 19.8242188,42.8710938 17.8710938,42.8710938 L17.8710938,42.8710938 Z M71.4355467,42.8710938 L67.8710939,42.8710938 C65.9179689,42.8710938 64.3066406,44.4335938 64.3066406,46.4355469 L64.3066406,50 C64.3066406,51.953125 65.9179689,53.5644531 67.8710939,53.5644531 L71.4355467,53.5644531 C73.4375,53.5644531 75,51.953125 75,50 L75,46.4355469 C75,44.4335938 73.4375,42.8710938 71.4355467,42.8710938 L71.4355467,42.8710938 Z M17.8710938,50 L14.3066406,50 L14.3066406,46.4355469 L17.8710938,46.4355469 L17.8710938,50 Z M35.7421875,50 L32.1777344,50 L32.1777344,46.4355469 L35.7421875,46.4355469 L35.7421875,50 Z M53.5644531,50 L50,50 L50,46.4355469 L53.5644531,46.4355469 L53.5644531,50 Z M71.4355467,50 L67.8710939,50 L67.8710939,46.4355469 L71.4355467,46.4355469 L71.4355467,50 Z M35.7421875,60.6933594 L32.1777344,60.6933594 C30.1757812,60.6933594 28.5644531,62.3046878 28.5644531,64.2578122 L28.5644531,67.8710939 C28.5644531,69.8242189 30.1757812,71.4355467 32.1777344,71.4355467 L35.7421875,71.4355467 C37.6953125,71.4355467 39.3066406,69.8242189 39.3066406,67.8710939 L39.3066406,64.2578122 C39.3066406,62.3046878 37.6953125,60.6933594 35.7421875,60.6933594 L35.7421875,60.6933594 Z M17.8710938,60.6933594 L14.3066406,60.6933594 C12.3046875,60.6933594 10.7421875,62.3046878 10.7421875,64.2578122 L10.7421875,67.8710939 C10.7421875,69.8242189 12.3046875,71.4355467 14.3066406,71.4355467 L17.8710938,71.4355467 C19.8242188,71.4355467 21.4355469,69.8242189 21.4355469,67.8710939 L21.4355469,64.2578122 C21.4355469,62.3046878 19.8242188,60.6933594 17.8710938,60.6933594 L17.8710938,60.6933594 Z M71.4355467,60.6933594 L67.8710939,60.6933594 C65.9179689,60.6933594 64.3066406,62.3046878 64.3066406,64.2578122 L64.3066406,85.6933594 C64.3066406,87.6953122 65.9179689,89.2578122 67.8710939,89.2578122 L71.4355467,89.2578122 C73.4375,89.2578122 75,87.6953122 75,85.6933594 L75,64.2578122 C75,62.3046878 73.4375,60.6933594 71.4355467,60.6933594 L71.4355467,60.6933594 Z M53.5644531,60.6933594 L50,60.6933594 C48.046875,60.6933594 46.4355469,62.3046878 46.4355469,64.2578122 L46.4355469,67.8710939 C46.4355469,69.8242189 48.046875,71.4355467 50,71.4355467 L53.5644531,71.4355467 C55.5664061,71.4355467 57.1777344,69.8242189 57.1777344,67.8710939 L57.1777344,64.2578122 C57.1777344,62.3046878 55.5664061,60.6933594 53.5644531,60.6933594 L53.5644531,60.6933594 Z M17.8710938,67.8710939 L14.3066406,67.8710939 L14.3066406,64.2578122 L17.8710938,64.2578122 L17.8710938,67.8710939 Z M35.7421875,67.8710939 L32.1777344,67.8710939 L32.1777344,64.2578122 L35.7421875,64.2578122 L35.7421875,67.8710939 Z M71.4355467,85.6933594 L67.8710939,85.6933594 L67.8710939,64.2578122 L71.4355467,64.2578122 L71.4355467,85.6933594 Z M53.5644531,67.8710939 L50,67.8710939 L50,64.2578122 L53.5644531,64.2578122 L53.5644531,67.8710939 Z M17.8710938,78.5644533 L14.3066406,78.5644533 C12.3046875,78.5644533 10.7421875,80.1757811 10.7421875,82.1289061 L10.7421875,85.6933594 C10.7421875,87.6953122 12.3046875,89.2578122 14.3066406,89.2578122 L17.8710938,89.2578122 C19.8242188,89.2578122 21.4355469,87.6953122 21.4355469,85.6933594 L21.4355469,82.1289061 C21.4355469,80.1757811 19.8242188,78.5644533 17.8710938,78.5644533 L17.8710938,78.5644533 Z M35.7421875,78.5644533 L32.1777344,78.5644533 C30.1757812,78.5644533 28.5644531,80.1757811 28.5644531,82.1289061 L28.5644531,85.6933594 C28.5644531,87.6953122 30.1757812,89.2578122 32.1777344,89.2578122 L35.7421875,89.2578122 C37.6953125,89.2578122 39.3066406,87.6953122 39.3066406,85.6933594 L39.3066406,82.1289061 C39.3066406,80.1757811 37.6953125,78.5644533 35.7421875,78.5644533 L35.7421875,78.5644533 Z M53.5644531,78.5644533 L50,78.5644533 C48.046875,78.5644533 46.4355469,80.1757811 46.4355469,82.1289061 L46.4355469,85.6933594 C46.4355469,87.6953122 48.046875,89.2578122 50,89.2578122 L53.5644531,89.2578122 C55.5664061,89.2578122 57.1777344,87.6953122 57.1777344,85.6933594 L57.1777344,82.1289061 C57.1777344,80.1757811 55.5664061,78.5644533 53.5644531,78.5644533 L53.5644531,78.5644533 Z M53.5644531,85.6933594 L50,85.6933594 L50,82.1289061 L53.5644531,82.1289061 L53.5644531,85.6933594 Z M17.8710938,85.6933594 L14.3066406,85.6933594 L14.3066406,82.1289061 L17.8710938,82.1289061 L17.8710938,85.6933594 Z M35.7421875,85.6933594 L32.1777344,85.6933594 L32.1777344,82.1289061 L35.7421875,82.1289061 L35.7421875,85.6933594 Z" fill-rule="nonzero"></path>
                </g>
            </g>
        </g>
    </g>
</svg>