<?xml version="1.0" encoding="UTF-8"?>
<svg width="75px" height="99px" viewBox="0 0 75 99" version="1.1" xmlns="http://www.w3.org/2000/svg" xmlns:xlink="http://www.w3.org/1999/xlink">
    <!-- Generator: sketchtool 47.1 (45422) - http://www.bohemiancoding.com/sketch -->
    <title>img/icon-locked</title>
    <desc>Created with sketchtool.</desc>
    <defs></defs>
    <g id="Img-Assets" stroke="none" stroke-width="1" fill="none" fill-rule="evenodd">
        <g id="img/icon-locked">
            <g id="icon-locked" transform="translate(1.000000, 2.000000)">
                <g>
                    <path d="M36.2717928,57.6026371 C37.7759375,57.6026371 39.0511678,58.1258114 40.0975219,59.1721711 C41.1438816,60.2185252 41.6670559,61.4937555 41.6670559,62.9979002 C41.6670559,64.142352 41.3318969,65.1805208 40.6615735,66.1124342 C39.99125,67.0443476 39.1329221,67.6901371 38.0865625,68.0498246 L38.0865625,73.7393695 C38.0865625,74.2625493 37.9067215,74.6958004 37.5470395,75.0391393 C37.187352,75.3824726 36.7622752,75.5541393 36.2717928,75.5541393 C35.7813158,75.5541393 35.356239,75.3824726 34.9965515,75.0391393 C34.636864,74.6958004 34.457023,74.2625493 34.457023,73.7393695 L34.457023,68.0498246 C33.4106689,67.6901371 32.552341,67.0443476 31.8820175,66.1124342 C31.2116941,65.1805208 30.8765351,64.142352 30.8765351,62.9979002 C30.8765351,61.4937555 31.3997039,60.2185252 32.4460636,59.1721711 C33.4924232,58.1258114 34.7676535,57.6026371 36.2717928,57.6026371 L36.2717928,57.6026371 Z" id="lock-path" fill="#FFFFFF"></path>
                    <rect id="Rectangle-2" stroke="#FFFFFF" stroke-width="3" x="0.5" y="38" width="71.5" height="57.5" rx="5"></rect>
                    <path d="M58,37.8320312 L58,21.5 L58,21.5 C58,9.62587788 48.3741221,0 36.5,0 C24.6258779,0 15,9.62587788 15,21.5 L15,37.8320312" id="Oval-7" stroke="#FFFFFF" stroke-width="3"></path>
                </g>
            </g>
        </g>
    </g>
</svg>