<?xml version="1.0" encoding="UTF-8"?>
<svg width="99px" height="99px" viewBox="0 0 99 99" version="1.1" xmlns="http://www.w3.org/2000/svg" xmlns:xlink="http://www.w3.org/1999/xlink">
    <!-- Generator: sketchtool 47.1 (45422) - http://www.bohemiancoding.com/sketch -->
    <title>img/icon-update</title>
    <desc>Created with sketchtool.</desc>
    <defs></defs>
    <g id="Img-Assets" stroke="none" stroke-width="1" fill="none" fill-rule="evenodd">
        <g id="img/icon-update">
            <g id="icon-update">
                <g>
                    <path d="M49.1489362,98.0851064 C76.1702128,98.0851064 98.0851064,76.1702128 98.0851064,49.1489362 C98.0851064,22.1276596 76.1702128,0.212765957 49.1489362,0.212765957 C22.1276596,0.212765957 0.212765957,22.1276596 0.212765957,49.1489362 C0.212765957,76.1702128 22.1276596,98.0851064 49.1489362,98.0851064 Z" id="Oval-87" fill-rule="nonzero"></path>
                    <path d="M91.3404255,24.9361702 L32.3617021,24.9361702 C18.4595745,24.9361702 7.08510638,36.3106383 7.08510638,50.212766 L7.08510638,54.4255319" id="Shape" stroke="#FFFEFE" stroke-width="9.9"></path>
                    <path d="M7.08510638,75.4893617 L66.0638298,75.4893617 C79.9659574,75.4893617 91.3404255,64.1148936 91.3404255,50.212766 L91.3404255,46" id="Shape_1_" stroke="#FFFEFE" stroke-width="9.9"></path>
                    <polyline id="Shape_2_" stroke="#FFFEFE" stroke-width="9.9" points="74.4893617 41.787234 91.3404255 24.9361702 74.4893617 8.08510638"></polyline>
                    <polyline id="Shape_3_" stroke="#FFFEFE" stroke-width="9.9" points="23.9361702 58.6382979 7.08510638 75.4893617 23.9361702 92.3404255"></polyline>
                </g>
            </g>
        </g>
    </g>
</svg>