<?xml version="1.0" encoding="UTF-8"?>
<svg width="80px" height="100px" viewBox="0 0 80 100" version="1.1" xmlns="http://www.w3.org/2000/svg" xmlns:xlink="http://www.w3.org/1999/xlink">
    <!-- Generator: sketchtool 47.1 (45422) - http://www.bohemiancoding.com/sketch -->
    <title>img/icon-sigma</title>
    <desc>Created with sketchtool.</desc>
    <defs></defs>
    <g id="Img-Assets" stroke="none" stroke-width="1" fill="none" fill-rule="evenodd">
        <g id="img/icon-sigma" stroke="#FFFFFF">
            <g id="icon-sigma">
                <g transform="translate(3.000000, 3.000000)" id="Shape">
                    <path d="M34.3391862,47.8426172 L-0.528409028,4.37661961 L-0.655478386,-0.380733198 L68.7372132,-0.380733198 L70.8390395,25.0513646 L65.6287742,25.0513646 L65.5286934,23.7796308 C65.3589496,21.6226836 64.8928618,19.4091023 64.1564901,17.1700838 C61.7552448,9.87579386 55.8683999,7.4323027 45.013617,7.40912121 C43.5105423,7.40591124 42.2259801,7.43511736 39.655655,7.51662472 C36.992562,7.60107383 35.9932843,7.62570265 34.6817957,7.62569184 L20.4950526,7.6818399 L48.6890784,42.9257254 L17.374085,80.7516497 L46.293442,80.7516497 C46.7744015,80.7516497 47.1517045,80.7538071 48.0436511,80.7605349 C50.0794194,80.7758903 51.010256,80.7734169 52.1497636,80.7361522 C56.7282919,80.5864229 59.9418658,79.8275214 62.5516787,77.9965637 C65.3721716,76.0173741 66.738914,73.74488 69.1023136,68.0827126 C69.1698338,67.9209367 69.1698338,67.9209367 69.2375414,67.7587852 C69.6303195,66.8184166 69.8725243,66.2488443 70.1397071,65.6458907 L70.6099701,64.5846443 L75.2469776,65.7438962 L75.0059853,67.0226597 C74.8741002,67.7224742 74.7353236,68.4523239 74.562822,69.3546569 C74.476958,69.8038 74.1722691,71.3944293 74.1136597,71.7008197 C73.2217026,76.363672 72.7182427,79.1196771 72.2393102,82.0763356 C71.6037156,86.0001373 71.161341,89.4682108 70.9033704,92.7332174 L70.8034438,93.9979403 L-1.09050621,94.3698425 L-0.913657302,89.7846326 L34.3391862,47.8426172 Z" stroke-width="2.76" fill-rule="nonzero"></path>
                </g>
            </g>
        </g>
    </g>
</svg>