<?xml version="1.0" encoding="UTF-8"?>
<svg width="74px" height="74px" viewBox="0 0 74 74" version="1.1" xmlns="http://www.w3.org/2000/svg" xmlns:xlink="http://www.w3.org/1999/xlink">
    <!-- Generator: sketchtool 47.1 (45422) - http://www.bohemiancoding.com/sketch -->
    <title>img/icon-ledger-white</title>
    <desc>Created with sketchtool.</desc>
    <defs></defs>
    <g id="Img-Assets" stroke="none" stroke-width="1" fill="none" fill-rule="evenodd">
        <g id="img/icon-ledger-white" fill="#FFFFFF">
            <g id="icon-ledger-white">
                <g id="ledger">
                    <g fill-rule="nonzero">
                        <path d="M62.0402887,0.178392984 L28.343579,0.178392984 L28.343579,45.4019553 L73.5671413,45.4019553 L73.5671413,11.9446211 C73.5855548,5.59196274 68.3929471,0.178392984 62.0402887,0.178392984 Z M17.9951905,0.178392984 L12.3422452,0.178392984 C5.98958686,0.178392984 0.557603598,5.35258721 0.557603598,11.9630346 L0.557603598,17.6159799 L17.9951905,17.6159799 L17.9951905,0.178392984 Z M0.557603598,28.2037439 L17.9951905,28.2037439 L17.9951905,45.6413308 L0.557603598,45.6413308 L0.557603598,28.2037439 Z M56.1479679,73.4273062 L61.8009132,73.4273062 C68.1535715,73.4273062 73.5855548,68.253112 73.5855548,61.6426646 L73.5855548,56.0081328 L56.1479679,56.0081328 L56.1479679,73.4273062 Z M28.343579,56.0081328 L45.7811659,56.0081328 L45.7811659,73.4457197 L28.343579,73.4457197 L28.343579,56.0081328 Z M0.557603598,56.0081328 L0.557603598,61.6610781 C0.557603598,68.0137365 5.73179782,73.4457197 12.3422452,73.4457197 L17.9951905,73.4457197 L17.9951905,56.0081328 L0.557603598,56.0081328 Z" id="Shape"></path>
                    </g>
                </g>
            </g>
        </g>
        <g id="Text" transform="translate(0.000000, -1231.000000)"></g>
    </g>
</svg>