<?xml version="1.0" encoding="UTF-8"?>
<svg width="100px" height="100px" viewBox="0 0 100 100" version="1.1" xmlns="http://www.w3.org/2000/svg" xmlns:xlink="http://www.w3.org/1999/xlink">
    <!-- Generator: sketchtool 47.1 (45422) - http://www.bohemiancoding.com/sketch -->
    <title>img/icon-plugins</title>
    <desc>Created with sketchtool.</desc>
    <defs></defs>
    <g id="Img-Assets" stroke="none" stroke-width="1" fill="none" fill-rule="evenodd" stroke-linejoin="round">
        <g id="img/icon-plugins" stroke="#FFFFFF">
            <g id="icon-plugins">
                <g id="puzzle-piece" transform="translate(-14.331009, -7.099322)">
                    <path d="M15.564946,70.6558871 C16.3916448,71.4872707 20.0858637,73.9720332 22.4615944,70.3135435 C24.8373193,66.6551657 25.6885955,65.0007983 28.0834781,64.5299483 C32.8732664,63.5881263 33.2182182,67.5959944 33.7674335,69.6888406 L34.0649186,73.363758 L34.2079472,76.3207662 L34.2508471,77.7681982 L34.2937649,79.2156302 L34.2308209,81.786478 L33.9390483,84.1705823 L32.9092998,88.1538575 L31.6735927,92.5979377 C51.1245756,96.8334423 53.2697224,96.5282528 56.0043305,96.1669652 C57.3715759,95.9863699 58.708651,95.5697383 59.6526632,94.930345 C60.5966655,94.2909669 61.1474981,93.0549834 61.1710416,90.9863684 C61.2182407,86.8491128 52.4904866,85.8830596 52.2534036,82.779997 C52.1987242,82.0639369 52.1905079,81.1070628 52.7992876,79.790256 C55.0315942,77.0722129 59.2162729,75.8030994 62.9469113,75.6636771 C64.3241865,75.6122247 65.6193599,75.7343331 66.7513282,75.9751472 C66.8015529,75.9813005 66.8545386,75.9919669 66.9047532,75.9984921 C70.1236996,76.4205282 73.3888517,77.6832286 75.2728932,79.9771166 C78.5200746,86.9999501 70.2888302,85.4390641 69.3611179,90.3011614 C68.6852225,93.8435789 73.1011899,97.2425605 77.3446408,96.3352436 L98.3691513,91.3522962 C98.0450333,89.3674996 97.549132,87.1958422 96.9960989,85.211183 C96.4430964,83.2263711 95.7756515,82.3004926 95.5659705,79.443776 C95.356147,76.586927 95.4324621,75.5365562 95.6230618,73.5517596 C95.8138039,71.5670903 96.0105721,69.3294224 96.4240302,67.7221167 C96.8374985,66.1147957 97.6569167,63.7379603 101.249233,64.4442401 C106.039049,65.3859298 105.132945,73.3851009 112.051498,70.0890396 C114.311309,68.1765238 115.555213,64.8620078 115.970979,61.5946753 C115.977489,61.5435947 115.98786,61.4898755 115.994013,61.4389325 C116.231231,60.2897957 116.351475,58.9751308 116.300751,57.5771392 C116.163504,53.7901406 114.913232,49.5424643 112.235598,47.2764318 C105.317055,43.9803603 105.443554,51.7747253 102.977904,53.1781111 C100.512385,54.5815022 99.1447731,54.149933 97.3371386,53.5785597 C96.4333366,53.292813 95.9630165,52.6451449 95.6265613,51.808362 C95.2901366,50.9715714 95.0876888,49.6341934 94.7196266,47.3464586 C94.3515542,45.0587239 94.526954,44.110122 94.5771787,42.0753782 C94.6275206,40.0407668 95.1818528,37.9787686 95.4574576,36.080322 C95.732935,34.181855 96.244408,32.9451978 96.7809983,30.6924994 C97.3175989,28.4397769 98.2223585,26.4790357 98.3691515,24.5027253 C97.7970676,24.0044193 80.6042613,19.8623378 75.2266568,19.1771852 C69.8489352,18.4920303 67.1412428,23.3078455 69.4420023,27.0487032 C71.7427517,30.7895578 78.658045,30.9104411 75.410986,37.9333536 C73.178682,40.6514107 68.9940185,41.9205218 65.2633649,42.0598167 C63.8861,42.1112716 62.5909164,41.9892983 61.4589531,41.7484712 C61.4087333,41.7421956 61.3557375,41.7316566 61.3055127,41.7251314 C58.0865918,41.3031005 54.821302,40.0403897 52.9373881,37.746494 C52.3284912,36.429695 52.1079427,35.4728118 52.1626272,34.7567237 C52.3997152,31.6536509 58.4309935,30.5630773 60.5005712,26.9864135 C61.5353652,25.1980782 61.6667137,23.9827708 60.7865572,22.3127239 C59.9064109,20.6426779 57.5570004,19.0161642 53.6301771,19.3951905 C45.6934941,21.1392275 37.9855708,23.3815593 30.0488547,25.1255895 L31.7965887,28.5032993 L32.6590061,30.0301976 C33.1562521,31.1412877 33.1958258,31.2557605 33.4070221,31.7439791 L33.9833976,33.2085937 L34.5025673,34.5486434 L35.1061155,37.814235 L35.3435322,40.5690922 L35.5923894,43.9965479 L35.3721338,46.8261655 L34.7013627,48.6146932 C34.401491,49.0655831 34.101627,49.5163584 33.8017554,49.9672508 C32.7515144,51.3140397 31.8962907,53.6830967 28.4964064,53.0145949 C23.706627,52.0728951 23.4685227,44.0737265 16.5499659,47.3697981 C14.2901467,49.2823114 12.6984033,53.6478299 12.4931834,55.1915194 C12.2879634,56.7352088 12.123667,57.9001619 12.1120784,58.7843833 C12.1064051,59.2264966 12.0663277,59.1803111 12.0804504,59.3942784 C12.0946952,59.6081159 12.0485795,59.7833042 12.0764672,60.6680298 C12.1042314,61.5527581 12.1870439,61.8797898 12.1854747,62.0809488 C12.183784,62.2822454 12.2121535,62.3823843 12.2682878,62.6639896 C12.3807953,63.2271951 12.5886708,64.5647031 12.7320838,65.0038084 C12.8753741,65.4427915 13.2366339,66.5280344 13.777834,67.7823556 C14.3190342,69.0365239 15.1515982,70.2401263 15.564946,70.6558867 L15.564946,70.6558871 Z" id="svg_7" stroke-width="3" transform="translate(64.189769, 57.797700) rotate(-25.000000) translate(-64.189769, -57.797700) "></path>
                </g>
            </g>
        </g>
    </g>
</svg>