<?xml version="1.0" encoding="UTF-8"?>
<svg width="100px" height="88px" viewBox="0 0 100 88" version="1.1" xmlns="http://www.w3.org/2000/svg" xmlns:xlink="http://www.w3.org/1999/xlink">
    <!-- Generator: sketchtool 47.1 (45422) - http://www.bohemiancoding.com/sketch -->
    <title>img/icon-warning</title>
    <desc>Created with sketchtool.</desc>
    <defs></defs>
    <g id="Img-Assets" stroke="none" stroke-width="1" fill="none" fill-rule="evenodd">
        <g id="img/icon-warning">
            <g id="icon-warning">
                <g>
                    <g id="Signboard" fill-rule="nonzero">
                        <path d="M4.70964905,87.6985724 C3.03206421,87.6985724 1.46836323,86.7959396 0.628995734,85.34286 C-0.209604956,83.8894017 -0.209604956,82.0841305 0.628612275,80.6312458 L45.8210218,2.35590332 C46.6603907,0.902635521 48.2237066,-1.09022556e-06 49.9016758,-1.09022556e-06 C51.579645,-1.09022556e-06 53.1429609,0.902635408 53.982327,2.35571152 L99.1743562,80.6308606 C100.012959,82.0841296 100.012959,83.8894008 99.1747348,85.3422854 C98.3349844,86.7959388 96.7712899,87.6985715 95.093705,87.6985715 L4.70964905,87.6985715 L4.70964905,87.6985724 Z" id="Shape" fill="#010100"></path>
                        <path d="M4.70955477,83.9393197 C4.3754673,83.9393197 4.05165946,83.7520839 3.88388146,83.4620519 C3.71793909,83.1742227 3.71793909,82.7993839 3.88498285,82.509352 L49.0767367,4.23559687 C49.2437804,3.94648271 49.5675883,3.75943045 49.9016757,3.75943045 C50.2357632,3.75943045 50.5595711,3.94648271 50.7269819,4.23596398 L95.9187358,82.5104534 C96.0854124,82.7993839 96.0854124,83.1738556 95.9183687,83.4635205 C95.7520592,83.7517168 95.4278842,83.9393197 95.0937967,83.9393197 L4.70955477,83.9393197 Z" id="Shape" fill="#FFDB00"></path>
                    </g>
                    <g id="Graphic" transform="translate(43.985001, 23.308291)" fill-rule="nonzero" fill="#000000">
                        <path d="M0.36755359,4.96226863 C0.36755359,-1.38512207 11.4657968,-1.35320768 11.4657968,4.96226863 L8.55478446,38.3309948 C8.55478446,40.9605855 3.36953939,40.9680142 3.36953939,38.3309948 L0.36755359,4.96226863 Z" id="path37169"></path>
                        <ellipse id="Oval" cx="5.91667518" cy="47.884485" rx="5.52637826" ry="5.64112866"></ellipse>
                    </g>
                </g>
            </g>
        </g>
    </g>
</svg>