<?xml version="1.0" encoding="UTF-8"?>
<svg width="93px" height="97px" viewBox="0 0 93 97" version="1.1" xmlns="http://www.w3.org/2000/svg" xmlns:xlink="http://www.w3.org/1999/xlink">
    <!-- Generator: sketchtool 47.1 (45422) - http://www.bohemiancoding.com/sketch -->
    <title>img/icon-camera-toggle</title>
    <desc>Created with sketchtool.</desc>
    <defs></defs>
    <g id="Img-Assets" stroke="none" stroke-width="1" fill="none" fill-rule="evenodd">
        <g id="img/icon-camera-toggle" opacity="0.501075634">
            <g id="icon-camera-toggle" transform="translate(1.000000, 0.000000)">
                <g transform="translate(2.369792, 2.880000)">
                    <g id="Group" transform="translate(0.366758, 0.065625)" stroke-width="3" stroke="#FFFFFF">
                        <g id="Group-3">
                            <path d="M0.492163166,45.1473752 C0.492163166,20.3163188 19.569554,0 42.886365,0 C59.4201039,0 73.8341321,9.93242255 80.6172046,24.8310564" id="Shape"></path>
                            <polyline id="Shape" points="85.3867934 0 82.0302481 25.0818751 56.8561604 21.6809429"></polyline>
                        </g>
                        <g id="Group-2" transform="translate(42.770000, 67.200000) scale(-1, -1) translate(-42.770000, -67.200000) translate(0.000000, 44.160000)">
                            <path d="M0.492163166,45.1473752 C0.492163166,20.3163188 19.569554,0 42.886365,0 C59.4201039,0 73.8341321,9.93242255 80.6172046,24.8310564" id="Shape-Copy-2"></path>
                            <polyline id="Shape-Copy" points="85.3867934 0 82.0302481 25.0818751 56.8561604 21.6809429"></polyline>
                        </g>
                    </g>
                    <g id="camera" transform="translate(22.750000, 29.120000)" fill-rule="nonzero" fill="#FFFFFF">
                        <path d="M37.159774,5.20372881 L30.6004519,5.20372881 L26.6745763,1.04074576 C26.6745763,1.04074576 26.6551412,1.02033898 26.6454237,1.02033898 L26.6259887,0.999932203 L26.6259887,0.999932203 C26.0429378,0.387728814 25.2558192,0 24.3618079,0 L16.199096,0 C15.2467796,0 14.4013559,0.428542373 13.8085876,1.11216949 L13.8085876,1.12237288 L9.9701695,5.20372881 L3.26508475,5.20372881 C1.45762712,5.20372881 0,6.69342373 0,8.59125424 L0,29.2123051 C0,31.1101356 1.45762712,32.6508475 3.26508475,32.6508475 L37.159774,32.6508475 C38.9575141,32.6508475 40.4248588,31.1101356 40.4248588,29.2123051 L40.4248588,8.59125424 C40.4248588,6.69342373 38.9575141,5.20372881 37.159774,5.20372881 L37.159774,5.20372881 Z M20.2124294,27.4981356 C15.2662147,27.4981356 11.2334463,23.2535254 11.2334463,18.0497966 C11.2334463,12.8358644 15.2662147,8.60145763 20.2124294,8.60145763 C25.1683616,8.60145763 29.1914124,12.8358644 29.1914124,18.0497966 C29.1914124,23.2535254 25.1683616,27.4981356 20.2124294,27.4981356 L20.2124294,27.4981356 Z M36.5475706,10.6625424 C35.799322,10.6625424 35.1871186,10.0197288 35.1871186,9.22386441 C35.1871186,8.428 35.799322,7.78518644 36.5475706,7.78518644 C37.2958192,7.78518644 37.9080226,8.428 37.9080226,9.22386441 C37.9080226,10.0197288 37.2958192,10.6625424 36.5475706,10.6625424 L36.5475706,10.6625424 Z" id="Shape"></path>
                        <path d="M20.2124294,10.9074237 C16.461469,10.9074237 13.4296045,14.1010847 13.4296045,18.0497966 C13.4296045,21.9883051 16.461469,25.1921695 20.2124294,25.1921695 C23.9536723,25.1921695 26.9952542,21.9985085 26.9952542,18.0497966 C26.9952542,14.1010847 23.9536723,10.9074237 20.2124294,10.9074237 L20.2124294,10.9074237 Z" id="Shape"></path>
                    </g>
                </g>
            </g>
        </g>
        <g id="Text" transform="translate(10.000000, -2430.000000)"></g>
    </g>
</svg>