<?xml version="1.0" encoding="UTF-8"?>
<svg width="98px" height="72px" viewBox="0 0 98 72" version="1.1" xmlns="http://www.w3.org/2000/svg" xmlns:xlink="http://www.w3.org/1999/xlink">
    <!-- Generator: sketchtool 47.1 (45422) - http://www.bohemiancoding.com/sketch -->
    <title>img/icon-wallet</title>
    <desc>Created with sketchtool.</desc>
    <defs></defs>
    <g id="Img-Assets" stroke="none" stroke-width="1" fill="none" fill-rule="evenodd">
        <g id="img/icon-wallet">
            <g id="icon-wallet">
                <g id="wallet" transform="translate(2.816236, 2.727672)">
                    <path d="M87.9648,45.7060298 L87.9648,55.0954755 C87.9648,60.8741181 83.0506774,65.5586334 76.9888,65.5586334 L11.6816,65.5586334 C5.61972259,65.5586334 0.7056,60.8741181 0.7056,55.0954755 L0.7056,10.4631579 C0.7056,4.68451535 5.61972259,1.7656432e-14 11.6816,1.65949126e-14 L11.6816,1.65949126e-14 L76.9888,0 C83.0506774,-1.06151941e-15 87.9648,4.68451535 87.9648,10.4631579 L87.9648,18.5816727" id="Rectangle-4" stroke="#FFFFFF" stroke-width="3"></path>
                    <path d="M50.9573374,18.3564174 L86.0019526,18.3564174 L86.0019526,18.3564174 C89.0947472,18.3564174 91.6019526,20.8636228 91.6019526,23.9564174 L91.6019526,40.2910434 L91.6019526,40.2910434 C91.6019526,43.383838 89.0947472,45.8910434 86.0019526,45.8910434 L50.9573177,45.8910434 L50.9573177,45.8910345 C50.3244182,45.8910345 49.6960979,45.7837465 49.0990595,45.5737299 C41.7679532,42.9949116 38.1024,38.5115813 38.1024,32.123739 C38.1024,25.7358931 41.7679573,21.252556 49.0990718,18.6737279 L49.0990705,18.6737243 C49.6961116,18.4637062 50.3244349,18.3564174 50.9573374,18.3564174 Z" id="Rectangle-4" stroke="#FFFFFF" stroke-width="3"></path>
                    <ellipse id="Oval" fill="#FFFFFF" cx="52.6456" cy="32.1237304" rx="3.46266667" ry="3.27793167"></ellipse>
                </g>
            </g>
        </g>
        <g id="Text" transform="translate(-286.000000, -937.000000)"></g>
    </g>
</svg>