<?xml version="1.0" encoding="UTF-8"?>
<svg width="100px" height="28px" viewBox="0 0 100 28" version="1.1" xmlns="http://www.w3.org/2000/svg" xmlns:xlink="http://www.w3.org/1999/xlink">
    <!-- Generator: sketchtool 47.1 (45422) - http://www.bohemiancoding.com/sketch -->
    <title>img/icon-text-testnet-white</title>
    <desc>Created with sketchtool.</desc>
    <defs></defs>
    <g id="Img-Assets" stroke="none" stroke-width="1" fill="none" fill-rule="evenodd">
        <g id="img/icon-text-testnet-white">
            <g id="icon-text-testnet-white">
                <g>
                    <rect id="Rectangle" stroke="#FBFBFB" x="0.87718749" y="0.87718749" width="98.2449989" height="26.3199997" rx="2"></rect>
                    <path d="M9.60546875,23 L9.60546875,8.7265625 L5.421875,8.7265625 L5.421875,5.8203125 L16.6132812,5.8203125 L16.6132812,8.7265625 L12.4414062,8.7265625 L12.4414062,23 L9.60546875,23 Z M18.4648438,23 L18.4648438,5.8203125 L28.9179688,5.8203125 L28.9179688,8.7265625 L21.3007812,8.7265625 L21.3007812,12.5351562 L28.3789062,12.5351562 L28.3789062,15.4296875 L21.3007812,15.4296875 L21.3007812,20.1054688 L29.1757812,20.1054688 L29.1757812,23 L18.4648438,23 Z M30.8632812,17.4101562 L33.640625,17.0820312 C33.9531266,19.2773547 34.9765538,20.375 36.7109375,20.375 C37.5703168,20.375 38.2460913,20.1503929 38.7382812,19.7011719 C39.2304712,19.2519509 39.4765625,18.6953158 39.4765625,18.03125 C39.4765625,17.640623 39.3906259,17.3085951 39.21875,17.0351562 C39.0468741,16.7617174 38.785158,16.5371103 38.4335938,16.3613281 C38.0820295,16.185546 37.2304755,15.8906271 35.8789062,15.4765625 C34.6679627,15.1093732 33.7812528,14.7109396 33.21875,14.28125 C32.6562472,13.8515604 32.208986,13.2871129 31.8769531,12.5878906 C31.5449202,11.8886684 31.3789062,11.1367228 31.3789062,10.3320312 C31.3789062,9.39452656 31.5917947,8.550785 32.0175781,7.80078125 C32.4433615,7.0507775 33.0312462,6.48437691 33.78125,6.1015625 C34.5312538,5.71874809 35.4570257,5.52734375 36.5585938,5.52734375 C38.214852,5.52734375 39.5078079,5.97655801 40.4375,6.875 C41.3671921,7.77344199 41.8593747,9.05858539 41.9140625,10.7304688 L39.0664062,10.8828125 C38.9414056,9.96093289 38.6718771,9.31640809 38.2578125,8.94921875 C37.8437479,8.58202941 37.2539101,8.3984375 36.4882812,8.3984375 C35.7226524,8.3984375 35.1328146,8.55859215 34.71875,8.87890625 C34.3046854,9.19922035 34.0976562,9.59765387 34.0976562,10.0742188 C34.0976562,10.5429711 34.2851544,10.9374984 34.6601562,11.2578125 C35.0351581,11.5781266 35.8984307,11.9296856 37.25,12.3125 C38.6796946,12.7265646 39.7128874,13.1621071 40.3496094,13.6191406 C40.9863313,14.0761742 41.4726546,14.666012 41.8085938,15.3886719 C42.1445329,16.1113317 42.3125,16.9882761 42.3125,18.0195312 C42.3125,19.5117262 41.8535202,20.7656199 40.9355469,21.78125 C40.0175735,22.7968801 38.582041,23.3046875 36.6289062,23.3046875 C33.175764,23.3046875 31.2539082,21.3398634 30.8632812,17.4101562 Z M47.8789062,23 L47.8789062,8.7265625 L43.6953125,8.7265625 L43.6953125,5.8203125 L54.8867188,5.8203125 L54.8867188,8.7265625 L50.7148438,8.7265625 L50.7148438,23 L47.8789062,23 Z M56.7617188,23 L56.7617188,5.8203125 L59.5273438,5.8203125 L65.2929688,17.2929688 L65.2929688,5.8203125 L67.9414062,5.8203125 L67.9414062,23 L65.0820312,23 L59.4101562,11.796875 L59.4101562,23 L56.7617188,23 Z M70.9414062,23 L70.9414062,5.8203125 L81.3945312,5.8203125 L81.3945312,8.7265625 L73.7773438,8.7265625 L73.7773438,12.5351562 L80.8554688,12.5351562 L80.8554688,15.4296875 L73.7773438,15.4296875 L73.7773438,20.1054688 L81.6523438,20.1054688 L81.6523438,23 L70.9414062,23 Z M87.2304688,23 L87.2304688,8.7265625 L83.046875,8.7265625 L83.046875,5.8203125 L94.2382812,5.8203125 L94.2382812,8.7265625 L90.0664062,8.7265625 L90.0664062,23 L87.2304688,23 Z" id="TESTNET" fill="#FFFFFF"></path>
                </g>
            </g>
        </g>
    </g>
</svg>