<?xml version="1.0" encoding="UTF-8"?>
<svg width="41px" height="28px" viewBox="0 0 41 28" version="1.1" xmlns="http://www.w3.org/2000/svg" xmlns:xlink="http://www.w3.org/1999/xlink">
    <!-- Generator: sketchtool 47.1 (45422) - http://www.bohemiancoding.com/sketch -->
    <title>img/icon-text-ws-white</title>
    <desc>Created with sketchtool.</desc>
    <defs></defs>
    <g id="Img-Assets" stroke="none" stroke-width="1" fill="none" fill-rule="evenodd">
        <g id="img/icon-text-ws-white">
            <g id="icon-text-ws-white" transform="translate(1.000000, 1.000000)">
                <g>
                    <rect id="Rectangle" stroke="#FBFBFB" x="0" y="0" width="39" height="26.3199997" rx="2"></rect>
                    <path d="M7.421875,22 L4.05859375,4.8203125 L6.9765625,4.8203125 L9.0859375,16.6210938 L11.6640625,4.8203125 L15.0507812,4.8203125 L17.5234375,16.8203125 L19.6914062,4.8203125 L22.5507812,4.8203125 L19.1289062,22 L16.1054688,22 L13.2929688,9.15625 L10.5039062,22 L7.421875,22 Z M23.2890625,16.4101562 L26.0664062,16.0820312 C26.3789078,18.2773547 27.4023351,19.375 29.1367188,19.375 C29.996098,19.375 30.6718725,19.1503929 31.1640625,18.7011719 C31.6562525,18.2519509 31.9023438,17.6953158 31.9023438,17.03125 C31.9023438,16.640623 31.8164071,16.3085951 31.6445312,16.0351562 C31.4726554,15.7617174 31.2109393,15.5371103 30.859375,15.3613281 C30.5078107,15.185546 29.6562568,14.8906271 28.3046875,14.4765625 C27.0937439,14.1093732 26.2070341,13.7109396 25.6445312,13.28125 C25.0820284,12.8515604 24.6347673,12.2871129 24.3027344,11.5878906 C23.9707015,10.8886684 23.8046875,10.1367228 23.8046875,9.33203125 C23.8046875,8.39452656 24.017576,7.550785 24.4433594,6.80078125 C24.8691428,6.0507775 25.4570275,5.48437691 26.2070312,5.1015625 C26.957035,4.71874809 27.882807,4.52734375 28.984375,4.52734375 C30.6406333,4.52734375 31.9335891,4.97655801 32.8632812,5.875 C33.7929734,6.77344199 34.285156,8.05858539 34.3398438,9.73046875 L31.4921875,9.8828125 C31.3671869,8.96093289 31.0976583,8.31640809 30.6835938,7.94921875 C30.2695292,7.58202941 29.6796913,7.3984375 28.9140625,7.3984375 C28.1484337,7.3984375 27.5585958,7.55859215 27.1445312,7.87890625 C26.7304667,8.19922035 26.5234375,8.59765387 26.5234375,9.07421875 C26.5234375,9.54297109 26.7109356,9.9374984 27.0859375,10.2578125 C27.4609394,10.5781266 28.324212,10.9296856 29.6757812,11.3125 C31.1054759,11.7265646 32.1386687,12.1621071 32.7753906,12.6191406 C33.4121126,13.0761742 33.8984358,13.666012 34.234375,14.3886719 C34.5703142,15.1113317 34.7382812,15.9882761 34.7382812,17.0195312 C34.7382812,18.5117262 34.2793015,19.7656199 33.3613281,20.78125 C32.4433548,21.7968801 31.0078223,22.3046875 29.0546875,22.3046875 C25.6015452,22.3046875 23.6796895,20.3398634 23.2890625,16.4101562 Z" id="WS" fill="#FFFFFF"></path>
                </g>
            </g>
        </g>
    </g>
</svg>