<?xml version="1.0" encoding="UTF-8"?>
<svg width="375px" height="270px" viewBox="0 0 375 270" version="1.1" xmlns="http://www.w3.org/2000/svg" xmlns:xlink="http://www.w3.org/1999/xlink">
    <!-- Generator: sketchtool 47.1 (45422) - http://www.bohemiancoding.com/sketch -->
    <title>img/onboarding/backup-request</title>
    <desc>Created with sketchtool.</desc>
    <defs></defs>
    <g id="Design" stroke="none" stroke-width="1" fill="none" fill-rule="evenodd">
        <g id="Backup-wallet-request" transform="translate(0.000000, -80.000000)">
            <g id="exportable" transform="translate(0.000000, 80.000000)">
                <g id="graphic" transform="translate(34.407733, 27.802072)">
                    <path d="M38.9671573,37.5801635 C65.4040769,37.5801635 79.0930228,37.5801635 80.0339948,37.5801635 C81.5926812,37.5801635 88,35.357187 88,27.4239331 C87.240126,20.538525 81.7380665,18.0344889 78.0863855,18.0344889 C80.0339948,11.0099164 74.407056,8.41740498 73.7674531,8.11211902 C71.0826686,6.83065665 66.6620087,6.28063364 62.6727852,9.96065433 C55.4325541,2.17666866 48.1798812,5.80899562 47.5359007,6.08778507 C47.2780569,6.19940973 39.5740427,9.3802654 39.5740427,18.3729531 C34.8111209,18.3729531 31,21.9495229 31,27.8057134 C31,33.2251344 33.6557191,36.4832845 38.9671573,37.5801635 Z" id="cloud" stroke="#FFFFFF" stroke-width="2"></path>
                    <path d="M61,44.3051401 C74.6987465,42.8408665 86.5021766,46.6465422 96.4102902,55.722167 C106.318404,64.7977918 111.179944,77.5570695 110.994912,94" id="backup" stroke="#FFFFFF" stroke-width="2" stroke-linecap="round" stroke-dasharray="2,4" transform="translate(86.000000, 69.000000) scale(-1, -1) translate(-86.000000, -69.000000) "></path>
                    <g id="reject" transform="translate(0.000000, 13.000000)" fill="#FFFFFF">
                        <path d="M9,18 C4.02943725,18 0,13.9705627 0,9 C0,4.02943725 4.02943725,0 9,0 C13.9705627,0 18,4.02943725 18,9 C18,13.9705627 13.9705627,18 9,18 Z M3.6,7.2 L3.6,7.2 C2.51551358,7.2 1.63636364,8.07914995 1.63636364,9.16363636 C1.63636364,10.2481228 2.51551358,11.1272727 3.6,11.1272727 L14.4,11.1272727 C15.4844864,11.1272727 16.3636364,10.2481228 16.3636364,9.16363636 C16.3636364,8.07914995 15.4844864,7.2 14.4,7.2 L14.4,7.2 L3.6,7.2 Z" id="Combined-Shape"></path>
                    </g>
                    <g id="phone-keys" transform="translate(104.000000, 0.000000)">
                        <g id="phone" transform="translate(-0.000000, 0.000000)" stroke="#FFFFFF" stroke-width="1.6">
                            <path d="M27.4141793,174.255416 L3.97732456,174.122553 C1.77707108,174.11008 1.95926851e-14,172.322906 3.68923494e-15,170.122618 C2.7259523e-15,134.088634 2.08832627e-15,110.236646 1.77635684e-15,98.566653 M2.28026262e-15,89.2988963 C1.77353759e-15,70.343586 1.01345005e-15,41.9106206 0,4 C-2.705415e-16,1.790861 1.790861,4.05812251e-16 4,0 L92.4000015,0 C94.6091405,7.44262609e-15 96.4000015,1.790861 96.4000015,4 L96.4000015,77.7472448 M96.4000015,90.5685338 L96.4000015,170.121622 C96.4000015,172.322301 94.6223229,174.109639 92.4216758,174.121563 L67.7194833,174.255416" id="Path-2"></path>
                            <path d="M1.10655738,23.3702752 L95.8934426,23.3702752" id="Line-2" stroke-linecap="square"></path>
                            <path d="M0.38659878,153.909202 L22.0131466,153.909202 M73.1459014,153.909202 L96.173484,153.909202" id="Line-2" stroke-linecap="square"></path>
                        </g>
                        <g id="keys" transform="translate(18.000000, 65.000000)">
                            <path d="M25.348876,5.8848849 L55.4240242,5.8848849 L59.9677625,13.0572519 C59.3597809,14.0853274 58.9125457,14.8387494 58.6260568,15.3175177" id="Path-2" stroke="#FFFFFF" stroke-width="2" transform="translate(42.658319, 13.033882) rotate(-20.000000) translate(-42.658319, -13.033882) "></path>
                            <path d="M26.348876,13.8848849 L56.4240242,13.8848849 L60.9677625,21.0572519 C60.205629,22.3447546 59.6479181,23.2823924 59.2946299,23.8701652" id="Path-2-Copy" stroke="#FFFFFF" stroke-width="2" transform="translate(43.658319, 18.877525) rotate(-10.000000) translate(-43.658319, -18.877525) "></path>
                            <g id="front" transform="translate(0.000000, 14.000000)" stroke="#FFFFFF" stroke-width="2">
                                <path d="M25.348876,7.8848849 L55.4240242,7.8848849 L59.9677625,15.0572519 C58.1999303,18.0573861 56.6853508,20.5471732 55.4240242,22.5266132 C53.0090468,22.1828781 52.7449546,18.9959554 49.7829054,19.1297412 C46.8208563,19.263527 47.1453915,22.5266132 44.0866781,22.5266132 C41.0279647,22.5266132 40.8860009,19.2511374 37.9280175,19.1297412 C34.9700342,19.0083449 35.0900325,22.1828781 32.1058899,22.1828781 C29.1217472,22.1828781 30.1319993,21.6052153 26.9439765,19.1297412" id="Path-2"></path>
                                <path d="M23.212195,2.87479519 C20.7990206,1.06690737 17.8256955,0 14.6096654,0 C6.54097001,0 0,6.71572875 0,15 C0,23.2842712 6.54097001,30 14.6096654,30 C18.98907,30 22.9184163,28.0215884 25.5961109,24.8877753" id="Oval-4"></path>
                            </g>
                            <g id="btc" transform="translate(5.000000, 19.197928)" fill="#FFFFFF">
                                <g id="Combined-Shape">
                                    <path d="M10,20 C4.4771525,20 7.46069873e-14,15.5228475 7.46069873e-14,10 C7.46069873e-14,4.4771525 4.4771525,2.23820962e-13 10,2.23820962e-13 C15.5228475,2.23820962e-13 20,4.4771525 20,10 C20,15.5228475 15.5228475,20 10,20 Z M13.6843904,10.231424 C14.5348762,10.0149816 15.1697418,9.43456153 15.3241252,8.25907562 C15.5373196,6.65316386 14.3185633,5.81678752 12.6611284,5.27608203 L13.1640089,3.09637874 L11.8529743,2.79370257 L11.3626339,4.91592519 C11.0176914,4.83628893 10.6644751,4.76196845 10.3127924,4.68826322 L10.8056382,2.55221068 L9.49581527,2.24968364 L8.99248779,4.42871782 C8.70725699,4.36904833 8.42719207,4.31026677 8.15498281,4.24742231 L8.15647122,4.24097529 L6.3483054,3.82274378 L6.02146242,5.23957292 C6.02146242,5.23957292 6.99389017,5.44466129 6.97380896,5.45887355 C7.50455766,5.58179831 7.60585033,5.93383316 7.59351963,6.21466975 L7.02067009,8.69781479 L6.21543051,12.1856906 C6.15303326,12.3493217 5.99233118,12.5966876 5.62104448,12.5114917 C5.63445968,12.5304337 4.66739161,12.2911495 4.66739161,12.2911495 L4.04158077,13.8153825 L5.74740644,14.2092034 C6.06517679,14.2829582 6.37633074,14.3600609 6.68215177,14.433277 L6.17439117,16.6378409 L7.48383051,16.9405405 L7.98703269,14.7592574 C8.34559586,14.8498736 8.69260888,14.9333832 9.03239411,15.01135 L8.53081431,17.1822558 L9.84180805,17.4849225 L10.350596,15.28447 C12.5838731,15.6651204 14.2563809,15.4593753 14.9318067,13.4088739 C15.4757733,11.758053 14.8653762,10.8241939 13.6843904,10.231424 Z M10.0103418,6.26241888 C10.7497492,6.43312452 13.1301977,6.73165831 12.7695749,8.29517584 C12.4232027,9.7939899 10.1389376,9.0821902 9.39879597,8.91131505 L10.0103418,6.26241888 Z M8.371308,13.1432825 L9.04616719,10.2227518 C9.93460647,10.4276029 12.7807086,10.8123988 12.3843476,12.5309021 C12.0042541,14.1789428 9.26041379,13.3478523 8.371308,13.1432825 Z"></path>
                                </g>
                            </g>
                        </g>
                    </g>
                    <path d="M193.408673,84.2614566 C207.10742,82.7971831 218.91085,86.6028587 228.818963,95.6784836 C238.727077,104.754108 243.588617,117.513386 243.403585,133.956317" id="backup" stroke="#FFFFFF" stroke-width="2" stroke-linecap="round" stroke-dasharray="2,4"></path>
                    <g id="safe" transform="translate(217.592267, 140.197928)">
                        <rect id="Rectangle" stroke="#FFFFFF" stroke-width="2" x="0" y="0" width="54" height="54" rx="1.2"></rect>
                        <path d="M5.85,12.3999308 L5.85,7.2 C5.85,6.5372583 6.3872583,6 7.05,6 L46.65,6 C47.3127417,6 47.85,6.5372583 47.85,7.2 L47.85,46.8 C47.85,47.4627417 47.3127417,48 46.65,48 L7.05,48 C6.3872583,48 5.85,47.4627417 5.85,46.8 L5.85,41.6369887 M5.85,34.2197856 L5.85,19.7744436" id="Rectangle" stroke="#FFFFFF" stroke-width="2"></path>
                        <path d="M43.35,14.55 L43.35,38.55" id="Line-3" stroke="#FFFFFF" stroke-width="2" stroke-linecap="round"></path>
                        <path d="M7.88356352,12.5837685 C7.4419184,12.4009098 6.95774358,12.3 6.45,12.3 C4.37893219,12.3 2.7,13.9789322 2.7,16.05 C2.7,18.1210678 4.37893219,19.8 6.45,19.8 C7.03133647,19.8 7.39247748,19.7281948 7.88356352,19.4920898 L7.88356352,12.5837685 Z" id="Oval-7" stroke="#FFFFFF" stroke-width="2"></path>
                        <path d="M7.88356352,34.3337685 C7.4419184,34.1509098 6.95774358,34.05 6.45,34.05 C4.37893219,34.05 2.7,35.7289322 2.7,37.8 C2.7,39.8710678 4.37893219,41.55 6.45,41.55 C7.03133647,41.55 7.39247748,41.4781948 7.88356352,41.2420898 L7.88356352,34.3337685 Z" id="Oval-7" stroke="#FFFFFF" stroke-width="2"></path>
                        <path d="M33.2230957,53.9765625 C32.7476074,55.4966797 32.6605957,56.4805176 32.9620605,56.9280762 C34.5260742,56.9280762 46.5623209,56.9280762 47.6302734,56.9280762 C48.5619141,56.9280762 49.7300781,55.9442383 51.1347656,53.9765625 L33.2230957,53.9765625 Z" id="Path-3" stroke="#FFFFFF" stroke-width="2" transform="translate(41.960685, 55.452319) scale(-1, 1) translate(-41.960685, -55.452319) "></path>
                        <path d="M2.7730957,53.9765625 C2.29760742,55.4966797 2.2105957,56.4805176 2.51206055,56.9280762 C4.07607422,56.9280762 16.1123209,56.9280762 17.1802734,56.9280762 C18.1119141,56.9280762 19.2800781,55.9442383 20.6847656,53.9765625 L2.7730957,53.9765625 Z" id="Path-3" stroke="#FFFFFF" stroke-width="2"></path>
                        <g id="Group-2" transform="translate(15.000000, 15.000000)">
                            <g id="Group" transform="translate(5.100000, 5.399994)" stroke="#FFFFFF" stroke-width="2" stroke-linecap="round">
                                <path d="M2.03916126,1.88916126 L4.62520427,4.47520427 M8.69582471,8.54582471 L11.1608387,11.0108387" id="Line"></path>
                                <path d="M2.08309524,10.9047727 L4.62614716,8.36172081 M8.71726381,4.27060415 L11.2047727,1.78309524" id="Line"></path>
                                <path d="M0.15,6.45 L3.9183754,6.45 M9.68884736,6.45 L13.05,6.45" id="Line"></path>
                                <path d="M-0.35,5.95 L3.34490562,5.95 M9.1117392,5.95 L12.55,5.95" id="Line" transform="translate(6.100000, 6.450000) rotate(90.000000) translate(-6.100000, -6.450000) "></path>
                            </g>
                            <circle id="Oval-6" stroke="#FFFFFF" stroke-width="2" cx="11.85" cy="11.85" r="11.85"></circle>
                            <path d="M11.85,15.6 C9.77893219,15.6 8.1,13.9210678 8.1,11.85 C8.1,9.77893219 9.77893219,8.1 11.85,8.1 C13.9210678,8.1 15.6,9.77893219 15.6,11.85 C15.6,13.9210678 13.9210678,15.6 11.85,15.6 Z M11.85,13.6 C12.8164983,13.6 13.6,12.8164983 13.6,11.85 C13.6,10.8835017 12.8164983,10.1 11.85,10.1 C10.8835017,10.1 10.1,10.8835017 10.1,11.85 C10.1,12.8164983 10.8835017,13.6 11.85,13.6 Z" id="Combined-Shape" fill="#FFFFFF"></path>
                        </g>
                    </g>
                    <g id="approve" transform="translate(286.592267, 156.197928)" stroke="#FFFFFF" stroke-width="2" stroke-linecap="round">
                        <path d="M0.0921011896,8.87225349 L5.1995027,15.8705851" id="Line"></path>
                        <path d="M16.7159042,0 L5.10817348,15.905299" id="Line"></path>
                    </g>
                    <g id="user" transform="translate(119.000000, 138.000000)" stroke="#FFFFFF" stroke-width="2">
                        <path d="M33.0890728,79.898886 C50.5765376,79.898886 65,81.8382563 65,68.7300448 C65,55.6218334 50.5765376,42.2641509 33.0890728,42.2641509 C15.601608,42.2641509 -6.73525336e-14,55.6218334 0,68.7300448 C-6.73525336e-14,81.8382563 15.601608,79.898886 33.0890728,79.898886 Z" id="Oval-2"></path>
                        <ellipse id="Oval-2" cx="33.255814" cy="21.1320755" rx="21.1627907" ry="21.1320755"></ellipse>
                    </g>
                </g>
            </g>
        </g>
    </g>
</svg>