<?xml version="1.0" encoding="UTF-8"?>
<svg width="375px" height="270px" viewBox="0 0 375 270" version="1.1" xmlns="http://www.w3.org/2000/svg" xmlns:xlink="http://www.w3.org/1999/xlink">
    <!-- Generator: sketchtool 47.1 (45422) - http://www.bohemiancoding.com/sketch -->
    <title>img/onboarding/create-ltc</title>
    <desc>Created with sketchtool.</desc>
    <defs></defs>
    <g id="Design" stroke="none" stroke-width="1" fill="none" fill-rule="evenodd">
        <g id="Create-wallet---bitcoin" transform="translate(0.000000, -64.000000)">
            <g id="exportable---ltc" transform="translate(0.000000, 64.000000)">
                <g id="graphic" transform="translate(187.686942, 142.674855) rotate(-5.000000) translate(-187.686942, -142.674855) translate(122.186942, 33.674855)">
                    <g id="phone" transform="translate(9.090961, 0.916650)" stroke="#FFFFFF" stroke-width="2">
                        <path d="M0.982327249,104.254466 L0.982327249,7.03084973 C0.982327249,3.16485649 4.116334,0.0308497341 7.98232725,0.0308497341 L7.98232725,0.0308497341 L113.982327,0.0308497341 C117.84832,0.0308497341 120.982327,3.16485649 120.982327,7.03084973 L120.982327,209.03085 C120.982327,212.896843 117.84832,216.03085 113.982327,216.03085 L7.98232725,216.03085 C4.116334,216.03085 0.982327249,212.896843 0.982327249,209.03085 L0.982327249,145.418236" id="Path-2"></path>
                        <path d="M1.91284426,28.9961947 L119.912844,28.9961947" id="Line-2" stroke-linecap="square"></path>
                        <path d="M2.26146723,190.980973 L120.261467,190.980973" id="Line-2" stroke-linecap="square"></path>
                    </g>
                    <g id="ltc-wallet" transform="translate(61.288618, 105.327627) rotate(5.000000) translate(-61.288618, -105.327627) translate(4.288618, 60.327627)">
                        <g id="wallet" transform="translate(20.000000, 0.000000)">
                            <path d="M84.1547005,54.6192876 L84.1547005,58.5752648 L84.1547005,58.5752648 C84.1547005,61.8889733 81.468409,64.5752648 78.1547005,64.5752648 L24.3843603,64.5752648 C22.3215795,55.6474423 15.2777306,48.6260014 6.33753614,46.5956645 L6.33753614,11.5866794 L6.33753614,11.5866794 C6.33753614,8.27297087 9.02382764,5.58667936 12.3375361,5.58667936 L12.3375361,5.58667936 L78.1547005,5.58667936 L78.1547005,5.58667936 C81.468409,5.58667936 84.1547005,8.27297087 84.1547005,11.5866794 L84.1547005,14.0165336 L50.3859646,14.0165336 C49.6180491,14.0165336 48.8564813,14.1556039 48.1381278,14.4270123 L48.1381275,14.4270115 C38.0977703,18.22046 33.0775918,24.8507639 33.0775918,34.3179233 C33.0775918,43.7850877 38.0977757,50.4153858 48.1381436,54.2088176 C48.8564946,54.4802236 49.6180594,54.6192926 50.3859717,54.6192926 L50.3859717,54.6192876 L84.1547005,54.6192876 Z" id="Combined-Shape" fill="#00AFFF"></path>
                            <path d="M0.72,46.1171191 L0.72,11.2 C0.72,5.0144108 5.7344108,2.91263114e-15 11.92,1.77635684e-15 L78.56,0 C84.7455892,-1.1362743e-15 89.76,5.0144108 89.76,11.2 C89.76,12.1376913 89.76,13.0185129 89.76,13.8424648 M89.76,54.7794765 C89.76,56.0389501 89.76,57.4376041 89.76,58.9754386 C89.76,65.1610278 84.7455892,70.1754386 78.56,70.1754386 L24.9728391,70.1754386" id="Rectangle" stroke="#FFFFFF" stroke-width="3"></path>
                            <path d="M52.0218302,19.6491228 L87.8713802,19.6491228 L87.8713802,19.6491228 C90.9641748,19.6491228 93.4713802,22.1563282 93.4713802,25.2491228 L93.4713802,43.522807 L93.4713802,43.522807 C93.4713802,46.6156016 90.9641748,49.122807 87.8713802,49.122807 L52.0218479,49.122807 L52.0218479,49.1228141 C51.35876,49.1228141 50.7009417,49.0050485 50.0790375,48.7750034 C42.6130125,46.013288 38.88,41.2169449 38.88,34.3859741 C38.88,27.5550117 42.6130033,22.7586663 50.07901,19.9969381 L50.0790098,19.9969376 C50.7009169,19.7668898 51.3587386,19.6491228 52.0218302,19.6491228 Z" id="Rectangle" stroke="#FFFFFF" stroke-width="3"></path>
                            <path d="M51.9697416,25.2731824 L87.9958217,25.2731824 L87.9958217,43.3851651 L51.9697416,43.3851651 C46.8165805,42.0040727 44.24,38.9854108 44.24,34.3291794 C44.24,29.6729479 46.8165805,26.6542822 51.9697416,25.2731824 Z" id="Rectangle" fill="#00AFFF"></path>
                            <ellipse id="Oval" fill="#FFFFFF" cx="53.72" cy="34.3859649" rx="3.53333333" ry="3.50877193"></ellipse>
                        </g>
                        <g id="ltc" transform="translate(0.953184, 49.757992)" fill="#FFFFFF">
                            <g id="Combined-Shape">
                                <path d="M12.0740394,20.5752925 L9.0376213,21.6804583 L8.16373712,24.9971427 L11.2001037,23.8919956 L9.06432292,31.9975694 L29.7400174,31.9975694 L31.0482639,27.1475694 L18.3522569,27.1475694 L20.0033059,20.687892 L23.3658762,19.4640166 L24.156231,16.1777344 L20.8483441,17.3817067 L23.4734375,7.11111111 L15.6217882,7.11111111 L12.0740394,20.5752925 Z M20,40 C8.954305,40 0,31.045695 0,20 C0,8.954305 8.954305,0 20,0 C31.045695,0 40,8.954305 40,20 C40,31.045695 31.045695,40 20,40 Z"></path>
                            </g>
                        </g>
                    </g>
                </g>
            </g>
        </g>
    </g>
</svg>