<?xml version="1.0" encoding="UTF-8"?>
<svg width="90px" height="94px" viewBox="0 0 90 94" version="1.1" xmlns="http://www.w3.org/2000/svg" xmlns:xlink="http://www.w3.org/1999/xlink">
    <!-- Generator: sketchtool 47.1 (45422) - http://www.bohemiancoding.com/sketch -->
    <title>img/tab-icons/icon-settings</title>
    <desc>Created with sketchtool.</desc>
    <defs></defs>
    <g id="Img-Assets" stroke="none" stroke-width="1" fill="none" fill-rule="evenodd">
        <g id="img/tab-icons/icon-settings" fill="#FFFFFF">
            <g id="icon-settings">
                <g id="outline">
                    <path d="M45.0769231,93.1538462 C42.3846154,93.1538462 39.3076923,92.7692308 36.2307692,92.3846154 C34.3076923,92 32.7692308,90.4615385 32.3846154,88.5384615 L30.4615385,79.3076923 C28.1538462,78.1538462 25.8461538,77 23.9230769,75.4615385 L15.0769231,78.5384615 C13.1538462,79.3076923 11.2307692,78.9230769 9.69230769,77 C5.84615385,72.3846154 2.76923077,67.3846154 0.846153846,62 C0.0769230769,60.0769231 0.846153846,57.7692308 2.38461538,56.6153846 L9.69230769,50.8461538 C9.69230769,49.6923077 9.30769231,48.5384615 9.30769231,47 C9.30769231,45.4615385 9.30769231,44.3076923 9.69230769,43.1538462 L2.38461538,37 C1.23076923,36.2307692 0.461538462,33.9230769 1.23076923,31.6153846 C2.76923077,26.2307692 5.84615385,21.2307692 10.0769231,16.6153846 C11.2307692,15.0769231 13.5384615,14.6923077 15.4615385,15.4615385 L23.9230769,18.5384615 C25.8461538,17 28.1538462,15.8461538 30.4615385,14.6923077 L32.3846154,5.46153846 C32.7692308,3.53846154 34.3076923,2 36.2307692,1.61538462 C42,0.461538462 48.1538462,0.461538462 53.9230769,1.61538462 C55.8461538,2 57.3846154,3.53846154 57.7692308,5.46153846 L59.6923077,14.6923077 C62,15.8461538 64.3076923,17 66.2307692,18.5384615 L75.0769231,15.4615385 C76.6153846,14.6923077 78.9230769,15.0769231 80.4615385,17 C84.3076923,21.6153846 87.3846154,26.6153846 89.3076923,32 C90.0769231,33.9230769 89.3076923,36.2307692 87.7692308,37.3846154 L80.4615385,43.1538462 C80.4615385,44.3076923 80.8461538,45.4615385 80.8461538,47 C80.8461538,48.5384615 80.8461538,49.6923077 80.4615385,50.8461538 L87.3846154,57 C88.9230769,58.1538462 89.6923077,60.4615385 88.5384615,62.3846154 C87,67.7692308 83.9230769,72.7692308 79.6923077,77.3846154 C78.5384615,78.9230769 76.2307692,79.3076923 74.3076923,78.5384615 L66.2307692,75.4615385 C64.3076923,77 62,78.1538462 59.6923077,79.3076923 L57.7692308,88.5384615 C57.3846154,90.4615385 55.8461538,92 53.9230769,92.3846154 C50.8461538,92.7692308 47.7692308,93.1538462 45.0769231,93.1538462 Z M38.1538462,86.6153846 C43.1538462,87.3846154 47,87.3846154 52,86.6153846 L54.3076923,75.0769231 L55.8461538,74.3076923 C58.5384615,73.1538462 61.2307692,71.6153846 63.5384615,69.6923077 L64.6923077,68.5384615 L75.8461538,72.3846154 C78.9230769,68.9230769 81.2307692,64.6923077 82.7692308,60.4615385 L73.9230769,52.7692308 L74.3076923,51.2307692 C74.6923077,50.0769231 74.6923077,48.5384615 74.6923077,46.6153846 C74.6923077,45.0769231 74.6923077,43.5384615 74.3076923,42 L73.9230769,40.8461538 L82.7692308,33.1538462 C81.2307692,28.9230769 78.9230769,25.0769231 75.8461538,21.2307692 L64.6923077,25.0769231 L63.5384615,23.9230769 C61.2307692,22 58.5384615,20.4615385 55.8461538,19.3076923 L54.3076923,18.5384615 L52,7 C47.3846154,6.23076923 42.7692308,6.23076923 38.1538462,7 L35.8461538,18.5384615 L34.3076923,19.6923077 C31.6153846,20.8461538 28.9230769,22.3846154 26.6153846,24.3076923 L25.4615385,25.0769231 L14.3076923,21.2307692 C10.8461538,25.0769231 8.53846154,28.9230769 7,33.1538462 L15.8461538,40.8461538 L15.4615385,42.3846154 C15.0769231,43.5384615 15.0769231,45.0769231 15.0769231,47 C15.0769231,48.9230769 15.0769231,50.0769231 15.4615385,51.6153846 L16.2307692,53.1538462 L7.38461538,60.8461538 C8.92307692,65.0769231 11.2307692,68.9230769 14.3076923,72.7692308 L25.4615385,68.9230769 L26.6153846,70.0769231 C28.9230769,72 31.6153846,73.5384615 34.3076923,74.6923077 L35.8461538,75.4615385 L38.1538462,86.6153846 Z M13.1538462,72.7692308 C13.1538462,73.1538462 13.1538462,73.1538462 13.1538462,72.7692308 L13.1538462,72.7692308 Z M83.5384615,61.2307692 C83.5384615,61.6153846 83.9230769,61.6153846 83.5384615,61.2307692 L83.5384615,61.2307692 Z M6.61538462,61.2307692 L6.61538462,61.2307692 C6.61538462,61.6153846 6.61538462,61.2307692 6.61538462,61.2307692 Z M83.5384615,32.3846154 C83.5384615,32.7692308 83.5384615,32.7692308 83.5384615,32.3846154 L83.5384615,32.3846154 Z M6.23076923,32.3846154 L6.23076923,32.3846154 C6.61538462,32.3846154 6.23076923,32.3846154 6.23076923,32.3846154 Z M77,20.8461538 L77,20.8461538 C77,21.2307692 77,21.2307692 77,20.8461538 Z M45.0769231,66.2307692 C34.3076923,66.2307692 25.8461538,57.7692308 25.8461538,47 C25.8461538,36.2307692 34.6923077,27.7692308 45.0769231,27.7692308 C55.8461538,27.7692308 64.3076923,36.2307692 64.3076923,47 C64.3076923,57.7692308 55.8461538,66.2307692 45.0769231,66.2307692 Z M45.0769231,33.9230769 C37.7692308,33.9230769 32,39.6923077 32,47 C32,54.3076923 37.7692308,60.0769231 45.0769231,60.0769231 C52.3846154,60.0769231 58.1538462,54.3076923 58.1538462,47 C58.1538462,39.6923077 52.3846154,33.9230769 45.0769231,33.9230769 Z" fill-rule="nonzero"></path>
                </g>
            </g>
        </g>
    </g>
</svg>