<?xml version="1.0" encoding="UTF-8"?>
<svg width="100px" height="57px" viewBox="0 0 100 57" version="1.1" xmlns="http://www.w3.org/2000/svg" xmlns:xlink="http://www.w3.org/1999/xlink">
    <!-- Generator: sketchtool 47.1 (45422) - http://www.bohemiancoding.com/sketch -->
    <title>img/tab-icons/icon-scan</title>
    <desc>Created with sketchtool.</desc>
    <defs></defs>
    <g id="Img-Assets" stroke="none" stroke-width="1" fill="none" fill-rule="evenodd">
        <g id="img/tab-icons/icon-scan" fill="#FFFFFF">
            <g id="icon-scan">
                <g id="Shape">
                    <path d="M19.6891582,16.563895 C18.1265266,16.563895 17.1889477,15.3137897 17.1889477,14.0636845 L17.1889477,2.50021057 C17.1889477,0.937578964 18.439053,0 19.6891582,0 L34.3778954,0 C35.940527,0 36.8781059,1.25010529 36.8781059,2.50021057 C36.8781059,4.06284218 35.6280006,5.00042114 34.3778954,5.00042114 L22.1893688,5.00042114 L22.1893688,14.3762108 C22.1893688,15.3137897 20.9392635,16.563895 19.6891582,16.563895 Z" fill-rule="nonzero"></path>
                    <path d="M80.3192646,39.6908428 C81.8818962,39.6908428 82.8194752,40.9409481 82.8194752,42.1910534 L82.8194752,54.0670536 C82.8194752,55.6296852 81.5693699,56.5672642 80.3192646,56.5672642 L65.6305275,56.5672642 C64.0678959,56.5672642 63.1303169,55.3171589 63.1303169,54.0670536 C63.1303169,52.504422 64.3804222,51.566843 65.6305275,51.566843 L78.1315804,51.566843 L78.1315804,42.1910534 C77.819054,40.9409481 79.0691593,39.6908428 80.3192646,39.6908428 Z" fill-rule="nonzero"></path>
                    <path d="M22.1893688,41.8785271 L22.1893688,51.2543167 L34.6904217,51.2543167 C36.2530533,51.2543167 37.1906322,52.504422 37.1906322,53.7545273 C37.1906322,55.3171589 35.940527,56.2547379 34.6904217,56.2547379 L20.0016846,56.2547379 C18.439053,56.2547379 17.501474,55.0046326 17.501474,53.7545273 L17.501474,41.8785271 C17.501474,40.3158955 18.7515793,39.3783165 20.0016846,39.3783165 C20.9392635,39.6908428 22.1893688,40.9409481 22.1893688,41.8785271 Z" fill-rule="nonzero"></path>
                    <path d="M77.819054,14.3762108 L77.819054,5.00042114 L65.3180012,5.00042114 C63.7553696,5.00042114 62.8177906,3.75031586 62.8177906,2.50021057 C62.8177906,0.937578964 64.0678959,-4.4408921e-16 65.3180012,-4.4408921e-16 L80.0067383,-4.4408921e-16 C81.5693699,-4.4408921e-16 82.5069489,1.25010529 82.5069489,2.50021057 L82.5069489,14.3762108 C82.5069489,15.9388424 81.2568436,16.8764214 80.0067383,16.8764214 C79.0691593,16.563895 77.819054,15.3137897 77.819054,14.3762108 Z" fill-rule="nonzero"></path>
                    <path d="M97.195686,30.6275795 L2.50021057,30.6275795 C1.25010529,30.6275795 0,29.6900005 0,28.4398952 C0,27.5023163 0.937578964,26.252211 2.50021057,26.252211 L97.5082123,26.252211 C98.7583176,26.252211 100.008423,27.18979 100.008423,28.4398952 C99.6958965,29.3774742 98.7583176,30.6275795 97.195686,30.6275795 Z" fill-rule="nonzero"></path>
                </g>
            </g>
        </g>
    </g>
</svg>