<?xml version="1.0" encoding="UTF-8"?>
<svg width="100px" height="100px" viewBox="0 0 100 100" version="1.1" xmlns="http://www.w3.org/2000/svg" xmlns:xlink="http://www.w3.org/1999/xlink">
    <!-- Generator: sketchtool 47.1 (45422) - http://www.bohemiancoding.com/sketch -->
    <title>img/social-icons/icon-social-message</title>
    <desc>Created with sketchtool.</desc>
    <defs></defs>
    <g id="Img-Assets" stroke="none" stroke-width="1" fill="none" fill-rule="evenodd">
        <g id="img/social-icons/icon-social-message" fill="#FFFFFF">
            <g id="icon-social-message">
                <g id="Combined-Shape">
                    <path d="M36.5755764,64.1211204 C40.1541384,68.8137331 46.7859125,71.9301075 54.3010753,71.9301075 C55.4924445,71.9301075 56.6130493,71.8440527 57.7323195,71.6671281 L66.4091593,75.9046545 C66.6596563,76.0743086 66.9310884,76.1612983 67.2206637,76.2026662 C67.3953193,76.227617 67.5058594,76.2311828 67.7419355,76.2311828 C68.2824002,76.2311828 68.82051,76.024146 69.2127005,75.6937659 C69.8988907,75.1941226 70.3172043,74.4361868 70.3172043,73.5483871 L70.3172043,65.8531053 C73.242711,63.2425167 74.8333333,59.8731019 74.8333333,56.1290323 C74.8333333,51.8205909 72.6143824,47.9466143 69.0298704,45.1128368 C68.81951,34.7552179 58.3227117,26.4516129 45.483871,26.4516129 C32.5806452,26.4516129 22.0430108,34.8387097 22.0430108,45.1612903 C22.0430108,49.1397849 23.5483871,52.9032258 26.5591398,56.1290323 L26.5591398,67.2043011 C26.5591398,67.6344086 26.7741935,67.9569892 27.0967742,68.172043 C27.311828,68.2795699 27.5268817,68.3870968 27.6344086,68.3870968 C27.8494624,68.3870968 27.9569892,68.3870968 28.172043,68.2795699 L36.5755764,64.1211204 Z M39.906481,63.4019487 C41.7634866,63.7673293 43.6774422,63.9784946 45.5913978,63.9784946 C56.9964467,63.9784946 66.5533447,57.4259594 68.6188688,48.776065 C70.6466241,50.8727964 71.8333333,53.4189286 71.8333333,56.1290323 C71.8333333,59.1731969 70.4668096,61.8822703 67.8696949,63.9984378 L67.3172043,64.4486153 L67.3172043,73.0094711 L58.1729456,68.5436703 L57.6886611,68.631722 C56.5821813,68.8329002 55.4885985,68.9301075 54.3010753,68.9301075 C48.3082086,68.9301075 43.0618297,66.7173051 39.906481,63.4019487 Z M49.8924731,99.7849462 C22.3376211,99.7849462 0,77.4473252 0,49.8924731 C0,22.3376211 22.3376211,0 49.8924731,0 C77.4473252,0 99.7849462,22.3376211 99.7849462,49.8924731 C99.7849462,77.4473252 77.4473252,99.7849462 49.8924731,99.7849462 Z M67.3172043,73.3692841 L67.3172043,73.3571743 L67.3239358,73.3504428 L67.4475196,73.2680536 C67.4325474,73.2780351 67.4164175,73.2941342 67.4007796,73.3145646 C67.3723873,73.3304023 67.3446031,73.3486101 67.3172043,73.3692841 Z M67.7289792,73.2312728 C67.7052931,73.2316039 67.6822289,73.2328499 67.6597195,73.2350397 C67.6547734,73.23426 67.6498427,73.2335198 67.6449277,73.2328177 C67.6297678,73.230652 67.6479444,73.230986 67.7289792,73.2312728 Z M67.7067905,73.2311356 C67.7172155,73.2311621 67.7289169,73.2311828 67.7419355,73.2311828 C67.737596,73.2311828 67.7332773,73.2312127 67.7289792,73.2312728 L67.7067905,73.2311356 Z" fill-rule="nonzero"></path>
                </g>
            </g>
        </g>
        <g id="Text" transform="translate(-435.000000, -4213.000000)"></g>
    </g>
</svg>