<?xml version="1.0" encoding="UTF-8"?>
<svg width="100px" height="100px" viewBox="0 0 100 100" version="1.1" xmlns="http://www.w3.org/2000/svg" xmlns:xlink="http://www.w3.org/1999/xlink">
    <!-- Generator: sketchtool 47.1 (45422) - http://www.bohemiancoding.com/sketch -->
    <title>img/social-icons/icon-social-twitter</title>
    <desc>Created with sketchtool.</desc>
    <defs></defs>
    <g id="Img-Assets" stroke="none" stroke-width="1" fill="none" fill-rule="evenodd">
        <g id="img/social-icons/icon-social-twitter" fill="#FFFFFF">
            <g id="icon-social-twitter">
                <g id="Shape">
                    <path d="M49.8924731,0 C22.3655914,0 0,22.3655914 0,49.8924731 C0,77.4193548 22.3655914,99.7849462 49.8924731,99.7849462 C77.4193548,99.7849462 99.7849462,77.4193548 99.7849462,49.8924731 C99.7849462,22.3655914 77.4193548,0 49.8924731,0 Z M69.1397849,40 L69.1397849,41.2903226 C69.1397849,54.4086022 59.1397849,69.5698925 40.8602151,69.5698925 C35.2688172,69.5698925 30,68.3870968 25.5913978,65.483871 C26.344086,65.5913978 27.2043011,65.6989247 27.9569892,65.6989247 C32.5806452,65.6989247 36.8817204,63.655914 40.3225806,60.9677419 C36.0215054,60.9677419 32.2580645,57.9569892 31.0752688,54.0860215 C31.7204301,54.1935484 32.2580645,54.3010753 32.9032258,54.3010753 C33.7634409,54.3010753 34.7311828,54.1935484 35.5913978,53.9784946 C31.0752688,53.1182796 27.6344086,49.0322581 27.6344086,44.1935484 L27.6344086,44.0860215 C29.0322581,44.8387097 30.5376344,45.2688172 32.1505376,45.2688172 C29.4623656,43.4408602 27.7419355,40.4301075 27.7419355,36.9892473 C27.7419355,35.1612903 28.2795699,33.655914 29.1397849,32.1505376 C34.0860215,38.172043 41.3978495,41.9354839 49.5698925,42.3655914 C49.3548387,41.6129032 49.3548387,40.8602151 49.3548387,40.1075269 C49.3548387,34.6236559 53.7634409,30.2150538 59.2473118,30.2150538 C62.1505376,30.2150538 64.7311828,31.3978495 66.5591398,33.3333333 C68.8172043,32.9032258 70.9677419,32.0430108 72.7956989,30.9677419 C72.0430108,33.3333333 70.5376344,35.2688172 68.3870968,36.4516129 C70.4301075,36.2365591 72.2580645,35.6989247 74.0860215,34.8387097 C72.7956989,36.8817204 71.0752688,38.6021505 69.1397849,40 Z" fill-rule="nonzero"></path>
                </g>
            </g>
        </g>
    </g>
</svg>