<?xml version="1.0" encoding="UTF-8"?>
<svg width="100px" height="100px" viewBox="0 0 100 100" version="1.1" xmlns="http://www.w3.org/2000/svg" xmlns:xlink="http://www.w3.org/1999/xlink">
    <!-- Generator: sketchtool 47.1 (45422) - http://www.bohemiancoding.com/sketch -->
    <title>img/social-icons/icon-social-googleplus</title>
    <desc>Created with sketchtool.</desc>
    <defs></defs>
    <g id="Img-Assets" stroke="none" stroke-width="1" fill="none" fill-rule="evenodd">
        <g id="img/social-icons/icon-social-googleplus" fill="#FFFFFF">
            <g id="icon-social-googleplus">
                <g id="Shape">
                    <path d="M49.8924731,0 C22.3655914,0 0,22.3655914 0,49.8924731 C0,77.4193548 22.3655914,99.7849462 49.8924731,99.7849462 C77.4193548,99.7849462 99.7849462,77.4193548 99.7849462,49.8924731 C99.7849462,22.3655914 77.4193548,0 49.8924731,0 Z M42.7956989,69.3548387 C32.1505376,69.3548387 23.4408602,60.6451613 23.4408602,49.8924731 C23.4408602,39.1397849 32.1505376,30.4301075 42.7956989,30.4301075 C47.8494624,30.4301075 52.3655914,32.3655914 55.8064516,35.483871 C51.7204301,39.3548387 51.9354839,39.5698925 50.3225806,41.1827957 C48.3870968,39.5698925 46.1290323,38.3870968 42.7956989,38.3870968 C36.4516129,38.3870968 31.5053763,43.5483871 31.5053763,50 C31.5053763,56.344086 36.4516129,61.6129032 42.7956989,61.6129032 C49.0322581,61.6129032 51.6129032,58.9247312 53.2258065,53.8709677 C50.2150538,53.8709677 42.7956989,53.8709677 42.7956989,53.8709677 L42.7956989,46.1290323 L61.3978495,46.1290323 C62.688172,55.3763441 58.8172043,69.3548387 42.7956989,69.3548387 Z M84.4086022,51.2903226 L77.7419355,51.2903226 L77.7419355,58.2795699 L72.9032258,58.2795699 L72.9032258,51.2903226 L66.0215054,51.2903226 L66.0215054,46.4516129 L72.9032258,46.4516129 L72.9032258,39.6774194 L77.7419355,39.6774194 L77.7419355,46.4516129 L84.4086022,46.4516129 L84.4086022,51.2903226 Z" fill-rule="nonzero"></path>
                </g>
            </g>
        </g>
        <g id="Text" transform="translate(-290.000000, -4213.000000)"></g>
    </g>
</svg>