<?xml version="1.0" encoding="UTF-8"?>
<svg width="375px" height="270px" viewBox="0 0 375 270" version="1.1" xmlns="http://www.w3.org/2000/svg" xmlns:xlink="http://www.w3.org/1999/xlink">
    <!-- Generator: sketchtool 47.1 (45422) - http://www.bohemiancoding.com/sketch -->
    <title>img/backup/backup-warning</title>
    <desc>Created with sketchtool.</desc>
    <defs></defs>
    <g id="Design" stroke="none" stroke-width="1" fill="none" fill-rule="evenodd" stroke-linecap="round">
        <g id="Backup-warning" transform="translate(0.000000, -80.000000)" stroke-width="2" stroke="#FFFFFF">
            <g id="exportable" transform="translate(0.000000, 80.000000)">
                <g id="graphic" transform="translate(122.000000, 49.000000)">
                    <g id="owl">
                        <path d="M25.4980355,37 L46.0720107,38.2342869 C46.1482495,38.5650611 46.8666451,38.4983514 46.9110741,38.8398808 C46.9697524,39.2909457 47,39.7507166 47,40.2174125 C47,46.1724712 42.0751322,51 36,51 C29.9248678,51 25,46.1724712 25,40.2174125 C25,39.0967959 25.1743961,38.0161065 25.4980355,37 Z M35.5,48 C38.2614237,48 40.5,45.7614237 40.5,43 C40.5,40.2385763 38.2614237,38 35.5,38 C32.7385763,38 30.5,40.2385763 30.5,43 C30.5,45.7614237 32.7385763,48 35.5,48 Z" id="Combined-Shape" fill="#FFFFFF"></path>
                        <path d="M105.501965,37 C105.825604,38.0161065 106,39.0967959 106,40.2174125 C106,46.1724712 101.075132,51 95,51 C88.9248678,51 84,46.1724712 84,40.2174125 C84,39.7507166 84.0302476,39.2909457 84.0889259,38.8398808 C84.1333549,38.4983514 86.0498192,38.3840789 86.1260579,38.0533048 L105.501965,37 Z M95,48 C97.7614237,48 100,45.7614237 100,43 C100,40.2385763 97.7614237,38 95,38 C92.2385763,38 90,40.2385763 90,43 C90,45.7614237 92.2385763,48 95,48 Z" id="Combined-Shape" fill="#FFFFFF"></path>
                        <path d="M16.5342607,37 C16.1849482,38.4548195 16,39.973013 16,41.534128 C16,52.2848322 24.7711002,61 35.5908005,61 C45.5018513,61 53.6939406,53.6871834 55,44.1956686" id="Oval"></path>
                        <path d="M75,44.5872366 C76.511585,53.8938129 84.6099452,61 94.3734134,61 C105.212878,61 114,52.241211 114,41.4366971 C114,39.9106848 113.824712,38.4254811 113.493111,37" id="Oval"></path>
                        <path d="M14,77.1568896 C21.7748054,86.327823 30.0416491,90.9132897 38.800531,90.9132897 C47.5594128,90.9132897 56.3411156,86.327823 65.1456392,77.1568896 C65.0485464,113.698113 65.0485464,138.085874 65.1456392,150.320172 C48.3940127,150.320172 37.1024601,142.094074 33.7196378,139.56187 C21.1688339,130.166992 14,112.190083 14,103.247884 C14,89 14,65.5273604 14,42.450631 C15.2648787,25.4356634 23.2434473,14.5969349 36.9468601,7.22612728 C44.0319626,3.41518411 52.3935547,0.932128906 65,0.932128906 C77.6064453,0.932128906 82.9936523,2.09667969 92.8634081,7.22612728 C112.558485,17.461929 116,31.9384276 116,42.450631 C116,51.8275451 116,63.8935858 116,78.648753 C116,126.429699 116,158.819573 116,175.818373 C111.115965,177.45574 100.978552,178.290314 88.2439284,172.105331 C79.1786672,167.702492 73.8341091,152.843137 73.8341091,150.320172 C73.8341091,138.808004 73.8341091,114.420243 73.8341091,77.1568896 C83.0662719,86.327823 90.7107714,90.9132897 96.7676078,90.9132897 C102.824444,90.9132897 109.235242,86.327823 116,77.1568896" id="Path-2"></path>
                        <path d="M10,170 L84,170" id="Path-3"></path>
                        <path d="M12.2164063,141.627472 L46.55,169.548645" id="Path-4"></path>
                        <path d="M0,37 C15.9778906,37 28.9205164,37 38.8278774,37 C47.2683718,37 51.7760506,40.6722826 54.7425333,43.2211532 C58.9682727,46.8520063 62.0848817,53.7782886 64.0923603,64 L66.2503552,64 C69.1243402,53.6469488 72.4262001,46.7206665 76.1559349,43.2211532 C79.8769844,39.7297892 84.587523,37 91.4035095,37 C101.046057,37 114.244887,37 131,37" id="Path-5"></path>
                    </g>
                </g>
            </g>
        </g>
    </g>
</svg>